<svg width="13" height="11" viewBox="0 0 13 11" fill="none" xmlns="http://www.w3.org/2000/svg">
<path d="M0 5.5C0 5.28132 0.0838555 5.0716 0.233119 4.91698C0.382383 4.76235 0.584829 4.67548 0.79592 4.67548L10.1209 4.67548L6.63266 1.44226C6.55406 1.37028 6.48998 1.2829 6.44409 1.18517C6.3982 1.08744 6.37141 0.981273 6.36527 0.872778C6.35913 0.764283 6.37376 0.655602 6.40831 0.552984C6.44286 0.450366 6.49665 0.355836 6.56659 0.274831C6.63653 0.193826 6.72125 0.127945 6.81585 0.0809756C6.91046 0.0340066 7.0131 0.0068771 7.11786 0.00114691C7.22263 -0.00458329 7.32745 0.0111988 7.42631 0.0475862C7.52517 0.0839735 7.6161 0.140248 7.69389 0.213172L12.7347 4.88546C12.8182 4.9628 12.8849 5.05751 12.9307 5.1634C12.9764 5.2693 13 5.384 13 5.5C13 5.616 12.9764 5.7307 12.9307 5.8366C12.8849 5.94249 12.8182 6.0372 12.7347 6.11454L7.69389 10.7868C7.6161 10.8598 7.52517 10.916 7.42631 10.9524C7.32745 10.9888 7.22263 11.0046 7.11786 10.9989C7.0131 10.9931 6.91046 10.966 6.81585 10.919C6.72125 10.8721 6.63653 10.8062 6.56659 10.7252C6.49665 10.6442 6.44286 10.5496 6.40831 10.447C6.37376 10.3444 6.35913 10.2357 6.36527 10.1272C6.37141 10.0187 6.3982 9.91256 6.44409 9.81483C6.48998 9.71709 6.55406 9.62973 6.63266 9.55774L10.1209 6.32452L0.79592 6.32452C0.691398 6.32452 0.5879 6.30319 0.491334 6.26176C0.394769 6.22032 0.307027 6.15959 0.233119 6.08302C0.159211 6.00646 0.100584 5.91557 0.0605857 5.81553C0.020587 5.7155 0 5.60828 0 5.5Z" fill="#1E1E1D"/>
</svg>
