<svg width="13" height="11" viewBox="0 0 13 11" fill="none" xmlns="http://www.w3.org/2000/svg">
<path d="M13 5.5C13 5.28132 12.9161 5.0716 12.7669 4.91698C12.6176 4.76235 12.4152 4.67548 12.2041 4.67548H2.87909L6.36734 1.44226C6.44594 1.37028 6.51002 1.2829 6.55591 1.18517C6.6018 1.08744 6.62859 0.981273 6.63473 0.872778C6.64087 0.764283 6.62624 0.655602 6.59169 0.552984C6.55714 0.450366 6.50335 0.355836 6.43341 0.274831C6.36347 0.193826 6.27875 0.127945 6.18415 0.0809756C6.08954 0.0340066 5.9869 0.0068771 5.88214 0.00114691C5.77737 -0.00458329 5.67255 0.0111988 5.57369 0.0475862C5.47483 0.0839735 5.3839 0.140248 5.30611 0.213172L0.265285 4.88546C0.181825 4.9628 0.115056 5.05751 0.0693426 5.1634C0.0236292 5.2693 0 5.384 0 5.5C0 5.616 0.0236292 5.7307 0.0693426 5.8366C0.115056 5.94249 0.181825 6.0372 0.265285 6.11454L5.30611 10.7868C5.3839 10.8598 5.47483 10.916 5.57369 10.9524C5.67255 10.9888 5.77737 11.0046 5.88214 10.9989C5.9869 10.9931 6.08954 10.966 6.18415 10.919C6.27875 10.8721 6.36347 10.8062 6.43341 10.7252C6.50335 10.6442 6.55714 10.5496 6.59169 10.447C6.62624 10.3444 6.64087 10.2357 6.63473 10.1272C6.62859 10.0187 6.6018 9.91256 6.55591 9.81483C6.51002 9.71709 6.44594 9.62973 6.36734 9.55774L2.87909 6.32452H12.2041C12.3086 6.32452 12.4121 6.30319 12.5087 6.26176C12.6052 6.22032 12.693 6.15959 12.7669 6.08302C12.8408 6.00646 12.8994 5.91557 12.9394 5.81553C12.9794 5.7155 13 5.60828 13 5.5Z" fill="#1E1E1D"/>
</svg>
