<svg width="24" height="24" viewBox="0 0 24 24" fill="none" xmlns="http://www.w3.org/2000/svg">
<path d="M8 12V8C8 6.93913 8.42143 5.92172 9.17157 5.17157C9.92172 4.42143 10.9391 4 12 4C13.0609 4 14.0783 4.42143 14.8284 5.17157C15.5786 5.92172 16 6.93913 16 8V12" stroke="#3358A4" stroke-width="2" stroke-linecap="round"/>
<path d="M3.69461 12.668C3.83961 10.927 3.91261 10.057 4.48661 9.528C5.06061 8.999 5.93461 9 7.68161 9H16.3206C18.0666 9 18.9406 9 19.5146 9.528C20.0886 10.056 20.1616 10.927 20.3066 12.668L20.8206 18.834C20.9046 19.847 20.9466 20.354 20.6506 20.677C20.3526 21 19.8446 21 18.8266 21H5.1746C4.1576 21 3.64861 21 3.35161 20.677C3.05461 20.354 3.09661 19.847 3.18161 18.834L3.69461 12.668Z" stroke="#3358A4" stroke-width="2"/>
</svg>
