<svg width="320" height="191" viewBox="0 0 320 191" fill="none" xmlns="http://www.w3.org/2000/svg">
<path d="M171.006 164.068C208.1 122.847 254.394 117.794 282.753 125.973C284.045 126.355 285.792 126.498 287.641 126.65L287.855 126.667C290.087 126.857 292.346 127.053 294.557 127.498C338.689 136.505 369.154 170.428 362.472 203.134C361.274 209.065 358.728 214.265 354.939 218.597C346.122 228.678 331.87 232.627 316.781 236.808L316.719 236.825L316.332 236.933C306.591 239.643 296.523 242.443 286.702 247.031C285.394 247.769 280.439 252.197 274.378 259.127C269.285 264.95 266.612 268.884 266.136 270.01C262.604 280.477 260.809 291.115 259.073 301.4L259.023 301.695C256.282 318.04 253.908 332.139 245.142 342.162C240.897 347.015 235.456 350.438 228.942 352.311C212.815 356.975 195.381 352.747 179.851 340.405C165.233 328.794 153.932 311.166 148.024 290.767C147.462 288.816 147.124 286.819 146.809 284.835C146.544 283.152 146.286 281.556 145.88 280.58C133.772 251.972 133.645 206.767 169.592 165.666L171.006 164.068Z" fill="#F8DAC3"/>
<path d="M233.415 19.6899C249.663 1.11328 281.675 3.40725 306.3 24.8949C330.915 46.3747 337.487 77.7577 321.244 96.3299C305 114.902 272.98 112.617 248.364 91.137C223.739 69.6492 217.168 38.2666 233.415 19.6899Z" fill="#F8DAC3"/>
<path d="M37.5161 243.666C53.7593 225.094 85.7807 227.379 110.406 248.866C135.021 270.346 141.589 301.734 125.346 320.306C109.102 338.878 77.0814 336.593 52.4657 315.114C27.841 293.626 21.273 262.238 37.5161 243.666Z" fill="#F8DAC3"/>
<path d="M89.0603 15.4694C109.34 -7.71839 151.17 -4.46334 182.317 22.7149C213.463 49.8933 222.307 90.8647 202.031 114.048C181.759 137.226 139.929 133.971 108.783 106.793C77.6368 79.6145 68.7925 38.6435 89.0603 15.4694Z" fill="#F8DAC3"/>
<path d="M10.8923 104.84C31.1643 81.6617 72.9985 84.912 104.145 112.09C135.291 139.269 144.135 180.24 123.863 203.419C103.587 226.602 61.7566 223.347 30.6104 196.169C-0.5357 168.991 -9.37946 128.019 10.8923 104.84Z" fill="#F8DAC3"/>
</svg>
