<svg width="415" height="193" viewBox="0 0 415 193" fill="none" xmlns="http://www.w3.org/2000/svg">
<path d="M322.415 304.946C292.642 304.222 270.494 293.732 255.971 273.474C242.174 252.494 235.276 227.895 235.276 199.68C235.276 167.847 242.174 138.546 255.971 111.777C269.768 84.2851 287.196 61.1338 308.255 42.3234C330.039 22.7895 353.276 8.6817 377.966 0L415 55.346C404.834 61.1338 393.941 69.4538 382.323 80.306C370.704 90.4347 360.175 101.649 350.735 113.948C341.295 125.523 334.759 136.737 331.129 147.589C345.652 148.313 358.36 151.93 369.252 158.442C380.144 164.953 388.858 173.996 395.394 185.572C401.929 196.424 405.197 209.808 405.197 225.725C405.197 251.77 396.846 271.666 380.144 285.412C364.169 299.158 344.926 305.669 322.415 304.946ZM88.2283 304.946C57.7297 304.946 35.2187 294.455 20.6955 273.474C6.89851 252.494 0 227.895 0 199.68C0 167.847 6.89851 138.546 20.6955 111.777C34.4926 84.2851 51.9204 61.1338 72.979 42.3234C94.7638 22.7895 117.638 8.6817 141.601 0L178.635 55.346C169.195 61.1338 158.666 69.4538 147.047 80.306C135.429 90.4347 124.899 101.649 115.459 113.948C106.019 125.523 99.4838 136.737 95.853 147.589C109.65 148.313 121.995 151.93 132.887 158.442C144.506 164.953 153.583 173.996 160.118 185.572C166.654 196.424 169.921 209.808 169.921 225.725C169.921 251.77 161.57 271.666 144.869 285.412C128.167 298.434 109.287 304.946 88.2283 304.946Z" fill="#DAE3F8"/>
</svg>
