<svg width="24" height="24" viewBox="0 0 24 24" fill="none" xmlns="http://www.w3.org/2000/svg">
<path d="M19.0999 10.66C20.2109 11.974 19.9799 13.582 19.9799 15C19.9799 18.906 14.7129 20 11.9999 20C9.28693 20 4.01993 18.906 4.01993 15C4.01993 13.582 3.78893 11.974 4.89993 10.66M19.0999 10.66C18.9049 10.43 18.6699 10.21 18.3839 10M19.0999 10.66C19.7999 11.063 19.9789 9.555 19.9799 9.062V7.188C19.9799 5.563 18.8629 5 17.9049 5C16.9479 5 15.0319 6.563 14.3939 6.563C13.6279 6.563 13.4799 6.406 11.9999 6.406C10.5199 6.406 10.3719 6.563 9.60593 6.563C8.96793 6.563 7.05193 5 6.09493 5C5.13793 5 4.01993 5.563 4.01993 7.188V9.063C4.02193 9.555 4.19993 11.063 4.89993 10.66M4.89993 10.66C5.09493 10.43 5.32993 10.21 5.61593 10" stroke="#3358A4" stroke-width="1.5" stroke-linecap="round"/>
<path d="M12.8253 15.9995C12.8253 16.1725 12.4643 16.3125 12.0183 16.3125C11.5733 16.3125 11.2123 16.1725 11.2123 15.9995C11.2123 15.8265 11.5733 15.6875 12.0183 15.6875C12.4633 15.6875 12.8253 15.8275 12.8253 15.9995ZM15.4993 13.5935C15.4993 14.0245 15.2823 14.3745 15.0153 14.3745C14.7483 14.3745 14.5312 14.0245 14.5312 13.5935C14.5312 13.1625 14.7483 12.8125 15.0153 12.8125C15.2823 12.8125 15.4993 13.1635 15.4993 13.5935ZM9.49925 13.5935C9.49925 14.0245 9.28225 14.3745 9.01525 14.3745C8.74825 14.3745 8.53125 14.0245 8.53125 13.5935C8.53125 13.1625 8.74825 12.8125 9.01525 12.8125C9.28225 12.8125 9.49925 13.1635 9.49925 13.5935Z" stroke="#3358A4" stroke-width="1.5"/>
<path d="M22 15.469C21.517 15.156 19.42 14.375 18.613 14.375M20.387 17.969C19.903 17.656 18.774 16.875 17.967 16.875M2 15.469C2.484 15.156 4.58 14.375 5.387 14.375M3.613 17.969C4.097 17.656 5.226 16.875 6.033 16.875" stroke="#3358A4" stroke-width="1.5" stroke-linecap="round"/>
</svg>
