<svg width="17" height="17" viewBox="0 0 17 17" fill="none" xmlns="http://www.w3.org/2000/svg">
<path d="M8.33333 0C3.73333 0 0 3.73333 0 8.33333C0 12.9333 3.73333 16.6667 8.33333 16.6667C12.9333 16.6667 16.6667 12.9333 16.6667 8.33333C16.6667 3.73333 12.9333 0 8.33333 0ZM8.33333 15C4.65833 15 1.66667 12.0083 1.66667 8.33333C1.66667 4.65833 4.65833 1.66667 8.33333 1.66667C12.0083 1.66667 15 4.65833 15 8.33333C15 12.0083 12.0083 15 8.33333 15ZM12.1583 4.65L6.66667 10.1417L4.50833 7.99167L3.33333 9.16667L6.66667 12.5L13.3333 5.83333L12.1583 4.65Z" fill="#FF9800"/>
</svg>
