<svg width="47" height="47" viewBox="0 0 47 47" fill="none" xmlns="http://www.w3.org/2000/svg">
<path d="M23.3333 0C10.4533 0 0 10.4533 0 23.3333C0 36.2133 10.4533 46.6667 23.3333 46.6667C36.2133 46.6667 46.6667 36.2133 46.6667 23.3333C46.6667 10.4533 36.2133 0 23.3333 0ZM23.3333 42C13.0433 42 4.66667 33.6233 4.66667 23.3333C4.66667 13.0433 13.0433 4.66667 23.3333 4.66667C33.6233 4.66667 42 13.0433 42 23.3333C42 33.6233 33.6233 42 23.3333 42ZM34.0433 13.02L18.6667 28.3967L12.6233 22.3767L9.33333 25.6667L18.6667 35L37.3333 16.3333L34.0433 13.02Z" fill="#21D104"/>
</svg>
