<svg width="53" height="53" viewBox="0 0 53 53" fill="none" xmlns="http://www.w3.org/2000/svg">
<path d="M26.5013 48.5832C29.4019 48.5868 32.2745 48.0172 34.9543 46.9072C37.634 45.7971 40.068 44.1686 42.1164 42.115C44.17 40.0666 45.7986 37.6326 46.9086 34.9528C48.0186 32.2731 48.5882 29.4004 48.5847 26.4999C48.5882 23.5993 48.0186 20.7266 46.9086 18.0469C45.7986 15.3672 44.17 12.9331 42.1164 10.8847C40.068 8.83116 37.634 7.20258 34.9543 6.09255C32.2745 4.98253 29.4019 4.41294 26.5013 4.41652C23.6008 4.41294 20.7281 4.98253 18.0484 6.09255C15.3686 7.20258 12.9346 8.83116 10.8862 10.8847C8.83262 12.9331 7.20404 15.3672 6.09402 18.0469C4.98399 20.7266 4.41441 23.5993 4.41799 26.4999C4.41441 29.4004 4.98399 32.2731 6.09402 34.9528C7.20404 37.6326 8.83262 40.0666 10.8862 42.115C12.9346 44.1686 15.3686 45.7971 18.0484 46.9072C20.7281 48.0172 23.6008 48.5868 26.5013 48.5832Z" stroke="#3358A4" stroke-width="3" stroke-linejoin="round"/>
<path d="M17.668 26.5L24.293 33.125L37.543 19.875" stroke="#3358A4" stroke-width="3" stroke-linecap="round" stroke-linejoin="round"/>
</svg>
