<svg width="23" height="23" viewBox="0 0 23 23" fill="none" xmlns="http://www.w3.org/2000/svg">
<path d="M9.24974 15.3242L5.00391 11.0774L6.41885 9.66243L9.24974 12.4923L14.9095 6.83154L16.3255 8.24749L9.24974 15.3242Z" fill="#3358A4"/>
<path fill-rule="evenodd" clip-rule="evenodd" d="M0 11.0073C0 4.92829 4.92829 0 11.0073 0C17.0864 0 22.0147 4.92829 22.0147 11.0073C22.0147 17.0864 17.0864 22.0147 11.0073 22.0147C4.92829 22.0147 0 17.0864 0 11.0073ZM11.0073 20.0133C9.82466 20.0133 8.65355 19.7804 7.56089 19.3278C6.46823 18.8752 5.47542 18.2118 4.63913 17.3755C3.80285 16.5393 3.13947 15.5464 2.68688 14.4538C2.23428 13.3611 2.00133 12.19 2.00133 11.0073C2.00133 9.82466 2.23428 8.65355 2.68688 7.56089C3.13947 6.46823 3.80285 5.47542 4.63913 4.63913C5.47542 3.80285 6.46823 3.13947 7.56089 2.68688C8.65355 2.23428 9.82466 2.00133 11.0073 2.00133C13.3959 2.00133 15.6866 2.95018 17.3755 4.63913C19.0645 6.32809 20.0133 8.6188 20.0133 11.0073C20.0133 13.3959 19.0645 15.6866 17.3755 17.3755C15.6866 19.0645 13.3959 20.0133 11.0073 20.0133Z" fill="#3358A4"/>
</svg>
