<svg width="16" height="16" viewBox="0 0 16 16" fill="none" xmlns="http://www.w3.org/2000/svg">
<path d="M0 8C0 5.87827 0.842855 3.84344 2.34315 2.34315C3.84344 0.842855 5.87827 0 8 0C10.1217 0 12.1566 0.842855 13.6569 2.34315C15.1571 3.84344 16 5.87827 16 8C16 10.1217 15.1571 12.1566 13.6569 13.6569C12.1566 15.1571 10.1217 16 8 16C5.87827 16 3.84344 15.1571 2.34315 13.6569C0.842855 12.1566 0 10.1217 0 8ZM8.575 4.75C8.575 4.5312 8.48808 4.32135 8.33336 4.16664C8.17865 4.01192 7.9688 3.925 7.75 3.925C7.5312 3.925 7.32135 4.01192 7.16664 4.16664C7.01192 4.32135 6.925 4.5312 6.925 4.75V8.25C6.925 8.587 7.13 8.89 7.444 9.016L9.944 10.016C10.1462 10.0925 10.3703 10.0865 10.5681 9.99944C10.766 9.91237 10.9218 9.75113 11.002 9.55039C11.0821 9.34965 11.0803 9.12546 10.997 8.92604C10.9136 8.72662 10.7552 8.56789 10.556 8.484L8.575 7.691V4.75Z" fill="#3358A4"/>
</svg>
