<svg width="41" height="41" viewBox="0 0 41 41" fill="none" xmlns="http://www.w3.org/2000/svg">
<circle cx="20.5" cy="20.5" r="20.5" fill="white"/>
<path d="M20.5005 22.044L15.0962 27.4483C14.894 27.6505 14.6366 27.7516 14.3241 27.7516C14.0116 27.7516 13.7543 27.6505 13.5521 27.4483C13.3499 27.2461 13.2488 26.9887 13.2488 26.6762C13.2488 26.3637 13.3499 26.1064 13.5521 25.9042L18.9564 20.4999L13.5521 15.0956C13.3499 14.8934 13.2488 14.636 13.2488 14.3235C13.2488 14.011 13.3499 13.7537 13.5521 13.5515C13.7543 13.3493 14.0116 13.2482 14.3241 13.2482C14.6366 13.2482 14.894 13.3493 15.0962 13.5515L20.5005 18.9558L25.9048 13.5515C26.107 13.3493 26.3643 13.2482 26.6768 13.2482C26.9893 13.2482 27.2467 13.3493 27.4489 13.5515C27.6511 13.7537 27.7522 14.011 27.7522 14.3235C27.7522 14.636 27.6511 14.8934 27.4489 15.0956L22.0446 20.4999L27.4489 25.9042C27.6511 26.1064 27.7522 26.3637 27.7522 26.6762C27.7522 26.9887 27.6511 27.2461 27.4489 27.4483C27.2467 27.6505 26.9893 27.7516 26.6768 27.7516C26.3643 27.7516 26.107 27.6505 25.9048 27.4483L20.5005 22.044Z" fill="#1E1E1D"/>
</svg>
