<svg width="519" height="431" viewBox="0 0 519 431" fill="none" xmlns="http://www.w3.org/2000/svg">
<g clip-path="url(#clip0_4510_1241)">
<path d="M333.509 352.565C373.992 284.746 437.299 264.955 479.185 268.591C481.095 268.769 483.575 268.489 486.201 268.193L486.506 268.159C489.678 267.81 492.889 267.463 496.101 267.477C560.259 267.932 612.18 306.973 611.853 354.527C611.813 363.147 609.689 371.114 605.587 378.211C596.042 394.728 577.213 404.167 557.277 414.158L557.196 414.199L556.685 414.456C543.819 420.922 530.52 427.606 518.057 436.719C516.433 438.11 510.729 445.661 504.168 457.015C498.655 466.554 496.003 472.788 495.647 474.492C493.595 490.095 494.016 505.459 494.424 520.313L494.436 520.738C495.11 544.338 495.676 564.699 486.187 581.118C481.592 589.069 474.931 595.35 466.343 599.759C445.09 610.712 419.561 609.596 394.458 596.615C370.829 584.405 350.177 562.871 336.301 535.982C334.977 533.41 333.955 530.713 332.968 528.025C332.135 525.746 331.333 523.584 330.497 522.332C305.694 485.674 293.062 422.521 331.975 355.186L333.509 352.565Z" fill="#DAE3F8"/>
<path d="M380.945 133.585C398.533 103.151 443.904 97.5568 484.238 120.822C524.557 144.078 542.389 186.137 524.805 216.564C507.222 246.99 461.842 252.6 421.523 229.344C381.188 206.079 363.357 164.019 380.945 133.585Z" fill="#DAE3F8"/>
<path d="M168.887 500.526C186.471 470.101 231.849 464.491 272.183 487.755C312.502 511.011 330.329 553.078 312.747 583.504C295.163 613.93 249.783 619.541 209.464 596.285C169.13 573.02 151.304 530.952 168.887 500.526Z" fill="#DAE3F8"/>
<path d="M178.046 167.378C199.999 129.391 259.355 122.44 310.372 151.866C361.388 181.292 385.036 236.13 363.087 274.11C341.143 312.083 281.787 319.033 230.771 289.607C179.754 260.181 156.106 205.344 178.046 167.378Z" fill="#DAE3F8"/>
<path d="M93.4265 313.798C115.371 275.826 174.731 268.868 225.747 298.294C276.763 327.72 300.412 382.557 278.468 420.53C256.519 458.51 197.163 465.461 146.146 436.035C95.13 406.609 71.482 351.771 93.4265 313.798Z" fill="#DAE3F8"/>
</g>
<defs>
<clipPath id="clip0_4510_1241">
<path d="M0 0H519V335C519 388.019 476.019 431 423 431H0V0Z" fill="white"/>
</clipPath>
</defs>
</svg>
