<svg width="348" height="279" viewBox="0 0 348 279" fill="none" xmlns="http://www.w3.org/2000/svg">
<g clip-path="url(#clip0_4416_6108)">
<path d="M211.014 214.735C242.777 179.437 282.419 175.111 306.703 182.115C307.809 182.441 309.305 182.564 310.888 182.694L311.072 182.708C312.984 182.871 314.919 183.04 316.812 183.421C354.602 191.133 380.689 220.181 374.967 248.187C373.941 253.266 371.761 257.719 368.517 261.428C360.966 270.061 348.763 273.443 335.842 277.022L335.789 277.038L335.457 277.129C327.116 279.45 318.495 281.848 310.085 285.776C308.965 286.409 304.722 290.2 299.532 296.134C295.171 301.121 292.881 304.49 292.474 305.454C289.449 314.417 287.911 323.527 286.425 332.334L286.383 332.586C284.036 346.582 282.003 358.655 274.497 367.238C270.862 371.394 266.203 374.325 260.624 375.929C246.815 379.922 231.886 376.302 218.588 365.733C206.07 355.791 196.392 340.696 191.334 323.228C190.852 321.558 190.563 319.849 190.294 318.149C190.067 316.708 189.845 315.341 189.497 314.505C179.13 290.008 179.022 251.298 209.803 216.103L211.014 214.735Z" fill="#DAE3F8"/>
<path d="M264.456 91.1027C278.368 75.1955 305.781 77.1602 326.867 95.5602C347.946 113.953 353.573 140.827 339.665 156.73C325.755 172.633 298.336 170.677 277.257 152.284C256.171 133.884 250.543 107.01 264.456 91.1027Z" fill="#DAE3F8"/>
<path d="M96.7057 282.895C110.615 266.992 138.035 268.948 159.121 287.348C180.199 305.742 185.823 332.618 171.914 348.522C158.005 364.425 130.585 362.469 109.506 344.076C88.4204 325.676 82.7967 298.799 96.7057 282.895Z" fill="#DAE3F8"/>
<path d="M140.845 87.4892C158.21 67.6333 194.031 70.4202 220.701 93.6932C247.372 116.966 254.945 152.051 237.583 171.903C220.224 191.751 184.403 188.963 157.732 165.69C131.062 142.417 123.489 107.333 140.845 87.4892Z" fill="#DAE3F8"/>
<path d="M73.906 164.018C91.2651 144.17 127.088 146.953 153.759 170.226C180.43 193.499 188.003 228.583 170.644 248.431C153.282 268.283 117.462 265.496 90.7913 242.223C64.1207 218.95 56.5473 183.866 73.906 164.018Z" fill="#DAE3F8"/>
</g>
<defs>
<clipPath id="clip0_4416_6108">
<path d="M0 0H348V243C348 262.882 331.882 279 312 279H0V0Z" fill="white"/>
</clipPath>
</defs>
</svg>
