<svg width="652" height="364" viewBox="0 0 652 364" fill="none" xmlns="http://www.w3.org/2000/svg">
<g clip-path="url(#clip0_4519_70)">
<path d="M249.177 280.168C178.904 240.91 112.98 255.675 77.8898 280.214C76.2963 281.344 73.9659 282.359 71.4986 283.434L71.2111 283.559C68.2357 284.867 65.2277 286.197 62.4017 287.845C6.04624 320.918 -19.8491 381.824 4.67791 423.64C9.10728 431.229 15.0424 437.181 22.2772 441.358C39.1148 451.08 60.5334 449.823 83.2091 448.493L83.3021 448.488L83.8843 448.454C98.5279 447.611 113.664 446.74 129.301 448.439C131.443 448.841 140.323 452.603 151.897 459.285C161.621 464.899 167.138 469.052 168.32 470.376C178.083 483.105 185.542 496.884 192.753 510.205L192.959 510.586C204.394 531.765 214.274 550.028 231.012 559.692C239.118 564.372 248.193 566.525 258.016 566.044C282.343 564.891 304.292 550.906 319.817 526.662C334.434 503.85 341.673 474.323 340.206 443.518C340.062 440.573 339.587 437.671 339.088 434.796C338.661 432.359 338.267 430.044 338.367 428.512C341.557 383.518 320.509 321.332 251.867 281.701L249.177 280.168Z" fill="#FF9E60"/>
<path d="M95.7242 111C64.6996 93.088 21.8305 111.251 -1.88613 152.33C-25.594 193.393 -19.8822 239.605 11.1348 257.513C42.1518 275.421 85.0358 257.265 108.744 216.202C132.46 175.123 126.748 128.912 95.7242 111Z" fill="#FF9E60"/>
<path d="M469.794 326.965C438.777 309.058 395.893 327.213 372.177 368.292C348.469 409.354 354.188 455.571 385.204 473.479C416.221 491.387 459.106 473.231 482.814 432.168C506.531 391.09 500.811 344.873 469.794 326.965Z" fill="#FF9E60"/>
<path d="M291.905 37.5123C253.179 15.1542 197.283 39.243 167.286 91.2004C137.288 143.158 144.382 203.614 183.1 225.968C221.81 248.317 277.705 224.227 307.703 172.27C337.7 120.313 330.607 59.8573 291.905 37.5123Z" fill="#FF9E60"/>
<path d="M441.17 123.688C402.46 101.339 346.557 125.424 316.56 177.38C286.562 229.338 293.656 289.793 332.366 312.143C371.083 334.496 426.979 310.408 456.977 258.45C486.974 206.493 479.88 146.038 441.17 123.688Z" fill="#FF9E60"/>
</g>
<defs>
<clipPath id="clip0_4519_70">
<path d="M652 0H0V300C0 335.346 28.6537 364 64 364H652V0Z" fill="white"/>
</clipPath>
</defs>
</svg>
