<svg width="17" height="16" viewBox="0 0 17 16" fill="none" xmlns="http://www.w3.org/2000/svg">
<path d="M2.5785 0L2.367 0.3525C2.367 0.3525 0 4.239 0 10.5V11.25H4.5705C4.52189 11.497 4.49827 11.7483 4.5 12C4.5 14.0625 6.1875 15.75 8.25 15.75C10.3125 15.75 12 14.0625 12 12C12 11.742 11.9797 11.4937 11.9295 11.25H16.5V10.5C16.5 7.0425 15.918 4.5075 15.3278 2.835C14.7382 1.164 14.109 0.3045 14.109 0.3045L13.875 0H2.5785ZM3.492 1.5H13.032C13.1407 1.656 13.4618 2.049 13.9215 3.3525C14.409 4.7325 14.8455 6.9 14.9295 9.75H11.25C10.5638 8.8425 9.468 8.25 8.25 8.25C7.032 8.25 5.93625 8.8425 5.25 9.75H1.5705C1.7415 4.7625 3.2445 1.9275 3.492 1.5ZM7.5 3V4.5H6V6H7.5V7.5H9V6H10.5V4.5H9V3H7.5ZM8.25 9.75C9.5025 9.75 10.5 10.7475 10.5 12C10.5 13.2525 9.5025 14.25 8.25 14.25C6.9975 14.25 6 13.2525 6 12C6 10.7475 6.9975 9.75 8.25 9.75ZM8.25 11.25C8.05109 11.25 7.86032 11.329 7.71967 11.4697C7.57902 11.6103 7.5 11.8011 7.5 12C7.5 12.1989 7.57902 12.3897 7.71967 12.5303C7.86032 12.671 8.05109 12.75 8.25 12.75C8.44891 12.75 8.63968 12.671 8.78033 12.5303C8.92098 12.3897 9 12.1989 9 12C9 11.8011 8.92098 11.6103 8.78033 11.4697C8.63968 11.329 8.44891 11.25 8.25 11.25Z" fill="#3358A4"/>
</svg>
