<svg width="24" height="20" viewBox="0 0 24 20" fill="none" xmlns="http://www.w3.org/2000/svg">
<path fill-rule="evenodd" clip-rule="evenodd" d="M3.03675 0.495282C3.262 0.110082 3.7152 -0.0792583 4.14754 0.0312117C5.97557 0.498292 7.55118 1.25182 9.03129 2.36542C9.96974 2.05954 10.9671 1.89482 12 1.89482C13.0328 1.89482 14.0302 2.05954 14.9687 2.36542C16.4488 1.25182 18.0244 0.498292 19.8524 0.0312117C20.2848 -0.0792583 20.738 0.110082 20.9632 0.495282C21.6136 1.60747 21.682 2.84519 21.5423 3.9563C21.4242 4.89536 21.1479 5.81649 20.8761 6.60656C21.5951 8.05752 22 9.70492 22 11.4474C22 12.0797 21.9465 12.678 21.8433 13.2421L22.7737 13.026C23.3117 12.901 23.8491 13.2358 23.974 13.7738C24.099 14.3118 23.7642 14.8492 23.2262 14.9741L21.0977 15.4686C20.7875 16.0721 20.4027 16.6167 19.9517 17.1015L20.6281 17.7013C21.0414 18.0678 21.0793 18.6998 20.7129 19.113C20.3465 19.5262 19.7144 19.5642 19.3012 19.1977L18.3886 18.3885C16.6081 19.51 14.358 20.0001 12 20.0001C9.64192 20.0001 7.39187 19.51 5.61135 18.3885L4.69872 19.1978C4.2855 19.5642 3.65348 19.5262 3.28705 19.113C2.92063 18.6998 2.95856 18.0678 3.37179 17.7013L4.04822 17.1015C3.59721 16.6167 3.21244 16.0721 2.90229 15.4686L0.773707 14.9741C0.235747 14.8492 -0.0990517 14.3118 0.0259144 13.7738C0.150881 13.2358 0.688289 12.901 1.22625 13.026L2.15669 13.2421C2.05349 12.678 1.99998 12.0797 1.99998 11.4474C1.99998 9.70492 2.40488 8.05752 3.12385 6.60656C2.85211 5.81649 2.57578 4.89536 2.45771 3.9563C2.318 2.84519 2.38635 1.60747 3.03675 0.495282ZM19.6556 13.7503L16.3923 14.5083C16.028 14.593 15.7414 14.8738 15.6494 15.2364C15.5573 15.5989 15.6753 15.9825 15.9551 16.2306L16.8095 16.9882C15.5088 17.6569 13.8601 18.0001 12 18.0001C10.1399 18.0001 8.49112 17.6569 7.19043 16.9882L8.04479 16.2306C8.32463 15.9825 8.44261 15.5989 8.35058 15.2364C8.25855 14.8739 7.97191 14.593 7.60759 14.5084L4.34436 13.7503C4.12161 13.0799 3.99998 12.3156 3.99998 11.4474C3.99998 9.88232 4.39737 8.42082 5.08744 7.16624C5.22557 6.91512 5.24931 6.61681 5.15264 6.347C4.84532 5.48924 4.55212 4.58196 4.44208 3.70679C4.37247 3.1532 4.3816 2.65339 4.48556 2.21136C5.85937 2.66271 7.05992 3.32736 8.21953 4.26918C8.49981 4.49681 8.88102 4.55568 9.21691 4.42319C10.0831 4.08154 11.0202 3.89482 12 3.89482C12.9798 3.89482 13.9169 4.08154 14.7831 4.42319C15.1189 4.55568 15.5002 4.49681 15.7804 4.26918C16.94 3.32736 18.1406 2.66271 19.5144 2.21136C19.6184 2.65339 19.6275 3.1532 19.5579 3.70679C19.4478 4.58196 19.1546 5.48924 18.8473 6.347C18.7506 6.61681 18.7744 6.91512 18.9125 7.16624C19.6026 8.42082 20 9.88232 20 11.4474C20 12.3156 19.8784 13.0799 19.6556 13.7503ZM16 11.5001C16.8284 11.5001 17.5 10.8285 17.5 10.0001C17.5 9.17162 16.8284 8.50012 16 8.50012C15.1716 8.50012 14.5 9.17162 14.5 10.0001C14.5 10.8285 15.1716 11.5001 16 11.5001ZM8.12132 11.6214C8.94974 11.6214 9.62132 10.9498 9.62132 10.1214C9.62132 9.29292 8.94974 8.62142 8.12132 8.62142C7.29289 8.62142 6.62132 9.29292 6.62132 10.1214C6.62132 10.9498 7.29289 11.6214 8.12132 11.6214ZM11 13.0001C10.5955 13.0001 10.2309 13.2437 10.0761 13.6174C9.92132 13.9911 10.0069 14.4212 10.2929 14.7072L11.2929 15.7072C11.6834 16.0977 12.3166 16.0977 12.7071 15.7072L13.7071 14.7072C13.9931 14.4212 14.0786 13.9911 13.9239 13.6174C13.7691 13.2437 13.4044 13.0001 13 13.0001H11Z" fill="#3358A4"/>
</svg>
