<svg width="18" height="20" viewBox="0 0 18 20" fill="none" xmlns="http://www.w3.org/2000/svg">
<path d="M5.36667 9.2C4.35 9.2 3.37498 8.79613 2.65609 8.07724C1.9372 7.35835 1.53333 6.38333 1.53333 5.36667V2.3C1.53333 2.09667 1.61411 1.90166 1.75788 1.75788C1.90166 1.61411 2.09667 1.53333 2.3 1.53333H3.06667C3.27 1.53333 3.465 1.45256 3.60878 1.30878C3.75256 1.165 3.83333 0.969999 3.83333 0.766667C3.83333 0.563334 3.75256 0.368329 3.60878 0.224551C3.465 0.0807735 3.27 0 3.06667 0H2.3C1.69 0 1.10499 0.242321 0.673654 0.673654C0.242321 1.10499 0 1.69 0 2.3V5.36667C0.000985489 6.2328 0.212192 7.08575 0.61548 7.85226C1.01877 8.61878 1.60208 9.27595 2.31533 9.76733C3.00129 10.3709 3.5575 11.1075 3.95023 11.9325C4.34295 12.7575 4.56401 13.6537 4.6 14.5667C4.6 15.99 5.16541 17.355 6.17186 18.3615C7.17831 19.3679 8.54334 19.9333 9.96667 19.9333C11.39 19.9333 12.755 19.3679 13.7615 18.3615C14.7679 17.355 15.3333 15.99 15.3333 14.5667V13.6927C16.056 13.5061 16.6859 13.0623 17.1048 12.4445C17.5237 11.8268 17.7029 11.0774 17.6089 10.337C17.5148 9.59651 17.154 8.91577 16.5939 8.42235C16.0339 7.92893 15.3131 7.65671 14.5667 7.65671C13.8203 7.65671 13.0995 7.92893 12.5394 8.42235C11.9794 8.91577 11.6185 9.59651 11.5244 10.337C11.4304 11.0774 11.6096 11.8268 12.0285 12.4445C12.4475 13.0623 13.0773 13.5061 13.8 13.6927V14.5667C13.8 15.5833 13.3961 16.5584 12.6772 17.2772C11.9584 17.9961 10.9833 18.4 9.96667 18.4C8.95 18.4 7.97498 17.9961 7.25609 17.2772C6.5372 16.5584 6.13333 15.5833 6.13333 14.5667C6.17126 13.6525 6.39471 12.7557 6.79011 11.9306C7.1855 11.1056 7.74458 10.3696 8.43333 9.76733C9.14375 9.27424 9.72408 8.61632 10.1246 7.84991C10.5252 7.08351 10.7341 6.23144 10.7333 5.36667V2.3C10.7333 1.69 10.491 1.10499 10.0597 0.673654C9.62835 0.242321 9.04333 0 8.43333 0H7.66667C7.46333 0 7.26833 0.0807735 7.12455 0.224551C6.98077 0.368329 6.9 0.563334 6.9 0.766667C6.9 0.969999 6.98077 1.165 7.12455 1.30878C7.26833 1.45256 7.46333 1.53333 7.66667 1.53333H8.43333C8.63667 1.53333 8.83167 1.61411 8.97545 1.75788C9.11923 1.90166 9.2 2.09667 9.2 2.3V5.36667C9.2 5.87007 9.10085 6.36854 8.90821 6.83362C8.71556 7.2987 8.4332 7.72128 8.07724 8.07724C7.72128 8.4332 7.2987 8.71556 6.83362 8.90821C6.36854 9.10085 5.87007 9.2 5.36667 9.2ZM14.5667 12.2667C14.16 12.2667 13.77 12.1051 13.4824 11.8176C13.1949 11.53 13.0333 11.14 13.0333 10.7333C13.0333 10.3267 13.1949 9.93666 13.4824 9.6491C13.77 9.36155 14.16 9.2 14.5667 9.2C14.9733 9.2 15.3633 9.36155 15.6509 9.6491C15.9385 9.93666 16.1 10.3267 16.1 10.7333C16.1 11.14 15.9385 11.53 15.6509 11.8176C15.3633 12.1051 14.9733 12.2667 14.5667 12.2667Z" fill="#3358A4"/>
</svg>
