<svg width="63" height="57" viewBox="0 0 63 57" fill="none" xmlns="http://www.w3.org/2000/svg">
<g clip-path="url(#clip0_6070_171)">
<path d="M40.5452 56.9651C36.8941 56.9651 34.1381 56.3384 31.5484 55.0454C31.3233 54.9179 31.0688 54.8509 30.8099 54.8509C30.5509 54.8509 30.2964 54.9179 30.0713 55.0454C24.7832 57.5297 19.444 57.7301 14.1143 55.2044C7.96457 52.2843 4.22389 45.5867 4.91288 38.7508C5.065 37.4908 5.3005 36.2422 5.61785 35.0131C5.74414 34.4787 5.64503 34.1638 5.26617 33.7694C0.871672 29.1935 -0.941116 23.8225 0.470429 17.5734C1.72851 12.0162 5.86563 8.36925 11.6253 7.56128C11.831 7.54683 12.0289 7.47705 12.1978 7.35939C12.3668 7.24174 12.5004 7.08062 12.5845 6.89327C16.4067 -0.0778471 24.6058 -2.08186 31.2511 2.33334C31.6475 2.59736 31.9113 2.56555 32.3141 2.33334C37.0283 -0.370495 41.7218 -0.422978 46.3305 2.5751C48.1273 3.74411 49.4381 5.36959 50.4548 7.24637C50.6147 7.53902 51.0015 7.86825 51.3084 7.8937C57.0713 8.39947 61.891 12.8831 62.7894 19.0844C63.7086 25.4289 61.5873 30.7109 56.8044 34.9479C56.3456 35.3551 56.2145 35.6748 56.336 36.2824C57.399 41.5771 56.5182 46.4774 53.0573 50.7383C49.6619 54.9293 45.1491 56.8585 40.5452 56.9651Z" fill="white"/>
</g>
<g clip-path="url(#clip1_6070_171)">
<path d="M31.5101 29.2409C29.3064 29.2377 27.1939 28.3813 25.6357 26.8595C24.0774 25.3377 23.2006 23.2747 23.1973 21.1225C23.2006 18.9704 24.0774 16.9073 25.6357 15.3855C27.1939 13.8637 29.3064 13.0074 31.5101 13.0042C33.7138 13.0074 35.8262 13.8637 37.3845 15.3855C38.9427 16.9073 39.8196 18.9704 39.8229 21.1225C39.8196 23.2747 38.9427 25.3377 37.3845 26.8595C35.8262 28.3813 33.7138 29.2377 31.5101 29.2409ZM31.5101 13.9134C29.5535 13.9156 27.6778 14.6756 26.2943 16.0267C24.9108 17.3778 24.1326 19.2097 24.1304 21.1205C24.1348 23.0299 24.914 24.8597 26.2972 26.2091C27.6805 27.5584 29.555 28.3173 31.5101 28.3195C33.4666 28.3173 35.3424 27.5573 36.7259 26.2062C38.1094 24.8551 38.8876 23.0232 38.8898 21.1124C38.8865 19.2023 38.1078 17.3714 36.7244 16.0212C35.341 14.6709 33.4659 13.9115 31.5101 13.9094V13.9134Z" fill="#F8671C"/>
<path d="M44.4804 44C44.4188 44 44.3579 43.9881 44.301 43.965C44.2441 43.942 44.1925 43.9081 44.149 43.8655C44.1056 43.8229 44.0712 43.7723 44.0478 43.7167C44.0244 43.661 44.0125 43.6014 44.0128 43.5413V41.5279C44.0117 41.5104 44.0117 41.4927 44.0128 41.4752C44.0128 41.4244 44.5802 36.3362 41.334 32.7763C39.1935 30.4281 35.8787 29.2388 31.4833 29.2388C31.3593 29.2388 31.2404 29.1906 31.1527 29.105C31.065 29.0194 31.0157 28.9032 31.0157 28.7821C31.0157 28.661 31.065 28.5448 31.1527 28.4592C31.2404 28.3736 31.3593 28.3254 31.4833 28.3254C36.1614 28.3254 39.713 29.6203 42.0385 32.1817C45.4717 35.9526 44.9958 41.0855 44.948 41.5604V43.5413C44.9483 43.6014 44.9364 43.661 44.913 43.7167C44.8896 43.7723 44.8552 43.8229 44.8118 43.8655C44.7683 43.9081 44.7167 43.942 44.6598 43.965C44.603 43.9881 44.542 44 44.4804 44Z" fill="#F8671C"/>
<path d="M18.5181 44C18.4565 44 18.3955 43.9881 18.3386 43.965C18.2818 43.9419 18.2301 43.9081 18.1867 43.8655C18.1432 43.8229 18.1088 43.7723 18.0855 43.7167C18.0621 43.661 18.0502 43.6014 18.0505 43.5413V41.5543C17.9985 41.0794 17.5247 35.9465 20.9599 32.1756C23.2855 29.6203 26.835 28.3193 31.5131 28.3193C31.6371 28.3193 31.756 28.3674 31.8437 28.4531C31.9314 28.5387 31.9807 28.6549 31.9807 28.776C31.9807 28.8971 31.9314 29.0133 31.8437 29.0989C31.756 29.1845 31.6371 29.2327 31.5131 29.2327C27.1177 29.2327 23.805 30.422 21.6645 32.7702C18.4142 36.3383 18.9877 41.4264 18.9877 41.4772C18.9888 41.4948 18.9888 41.5124 18.9877 41.53V43.5413C18.988 43.6016 18.9761 43.6614 18.9526 43.7171C18.929 43.7729 18.8945 43.8236 18.8508 43.8662C18.8071 43.9089 18.7552 43.9426 18.6981 43.9656C18.641 43.9886 18.5798 44.0002 18.5181 44Z" fill="#F8671C"/>
<path d="M25.0926 36.943C25.0311 36.9433 24.9702 36.9316 24.9133 36.9088C24.8565 36.8859 24.8048 36.8523 24.7613 36.8098C24.7179 36.7674 24.6834 36.7169 24.66 36.6614C24.6366 36.6059 24.6247 36.5464 24.625 36.4863V33.2045C24.625 29.7075 28.6546 28.4025 28.8251 28.3477C28.8836 28.3294 28.9453 28.3225 29.0065 28.3275C29.0678 28.3325 29.1274 28.3492 29.182 28.3768C29.2366 28.4043 29.2852 28.442 29.3248 28.4879C29.3645 28.5338 29.3945 28.5868 29.4132 28.644C29.4323 28.701 29.4396 28.7612 29.4347 28.821C29.4299 28.8808 29.413 28.9391 29.385 28.9925C29.357 29.0459 29.3184 29.0933 29.2715 29.1321C29.2247 29.1709 29.1704 29.2002 29.1118 29.2184C29.0765 29.2184 25.5602 30.3773 25.5602 33.2045V36.4863C25.5602 36.5463 25.5481 36.6057 25.5246 36.6611C25.5011 36.7165 25.4667 36.7668 25.4232 36.8093C25.3798 36.8517 25.3283 36.8853 25.2715 36.9082C25.2148 36.9312 25.154 36.943 25.0926 36.943Z" fill="#F8671C"/>
<path d="M37.558 34.3818C37.4339 34.3818 37.315 34.3337 37.2273 34.2481C37.1396 34.1624 37.0904 34.0463 37.0904 33.9252V33.2047C37.0904 30.3774 33.572 29.2287 33.5366 29.2185C33.4186 29.1809 33.3206 29.0991 33.2641 28.9911C33.2077 28.8831 33.1973 28.7576 33.2353 28.6421C33.2739 28.5273 33.3573 28.432 33.4674 28.3769C33.5775 28.3218 33.7055 28.3113 33.8234 28.3478C33.9959 28.4026 38.0256 29.7077 38.0256 33.2047V33.9252C38.0256 33.9851 38.0135 34.0445 37.99 34.0999C37.9665 34.1553 37.932 34.2057 37.8886 34.2481C37.8452 34.2905 37.7936 34.3241 37.7369 34.3471C37.6802 34.37 37.6194 34.3818 37.558 34.3818Z" fill="#F8671C"/>
<path d="M25.0935 40.915C24.4329 40.9123 23.8002 40.6548 23.3331 40.1987C22.866 39.7425 22.6023 39.1246 22.5996 38.4795C22.6023 37.8343 22.866 37.2164 23.3331 36.7602C23.8002 36.3041 24.4329 36.0466 25.0935 36.0439C25.754 36.0466 26.3868 36.3041 26.8538 36.7602C27.3209 37.2164 27.5846 37.8343 27.5873 38.4795C27.5873 39.1254 27.3246 39.7449 26.8569 40.2016C26.3892 40.6584 25.7549 40.915 25.0935 40.915ZM25.0935 36.9431C24.6791 36.9436 24.2818 37.1042 23.9882 37.3897C23.6947 37.6753 23.5287 38.0626 23.5265 38.4673C23.527 38.8728 23.6924 39.2615 23.9862 39.5481C24.28 39.8346 24.6782 39.9956 25.0935 39.9956C25.5083 39.995 25.906 39.8338 26.1994 39.5473C26.4927 39.2609 26.6578 38.8724 26.6583 38.4673C26.6567 38.0628 26.4912 37.6755 26.1979 37.3898C25.9047 37.1042 25.5076 36.9436 25.0935 36.9431Z" fill="#F8671C"/>
<path d="M39.8778 41.8222C39.7153 41.819 39.5552 41.7831 39.4075 41.7168C39.2598 41.6504 39.1278 41.5551 39.0195 41.4366C38.934 41.3485 38.8877 41.2309 38.8908 41.1095C38.894 40.9882 38.9462 40.873 39.0361 40.7892C39.1263 40.7063 39.2462 40.6615 39.37 40.6645C39.4938 40.6676 39.6113 40.7182 39.697 40.8054C39.8279 40.9414 39.9048 40.913 39.9568 40.8907C40.2664 40.7709 40.5678 40.2371 40.5678 39.9956V38.2806C40.5678 34.8303 37.7352 34.3818 37.6147 34.3655C37.5538 34.3571 37.4952 34.337 37.4423 34.3064C37.3893 34.2757 37.3431 34.2352 37.3062 34.1872C37.2694 34.1391 37.2426 34.0844 37.2274 34.0262C37.2122 33.968 37.2089 33.9074 37.2177 33.848C37.2261 33.7885 37.2465 33.7312 37.2778 33.6794C37.3091 33.6277 37.3506 33.5826 37.3999 33.5467C37.4493 33.5108 37.5054 33.4849 37.5651 33.4704C37.6248 33.4559 37.6869 33.4532 37.7477 33.4623C37.7872 33.4623 41.503 34.0428 41.503 38.2806V39.9956C41.503 40.6045 40.9917 41.4711 40.3059 41.739C40.1698 41.7927 40.0246 41.8209 39.8778 41.8222Z" fill="#F8671C"/>
<path d="M39.8444 41.7918C39.2646 41.7918 38.8281 41.4529 38.8281 41.0044C38.8281 40.5558 39.2646 40.2148 39.8444 40.2148C40.4242 40.2148 40.8606 40.5538 40.8606 41.0044C40.8606 41.4549 40.4242 41.7918 39.8444 41.7918Z" fill="#F8671C"/>
<path d="M35.3244 41.8222C35.1776 41.8209 35.0324 41.7927 34.8963 41.739C34.2105 41.4711 33.6992 40.5964 33.6992 39.9956V38.2806C33.6992 34.0428 37.415 33.4664 37.4525 33.4623C37.5132 33.4532 37.5753 33.4559 37.635 33.4704C37.6947 33.4849 37.7509 33.5108 37.8002 33.5467C37.8495 33.5826 37.891 33.6277 37.9223 33.6794C37.9536 33.7312 37.974 33.7885 37.9824 33.848C38.0003 33.9674 37.969 34.0889 37.8954 34.1859C37.8218 34.2829 37.7118 34.3475 37.5896 34.3655C37.4628 34.3838 34.6344 34.8526 34.6344 38.2806V39.9956C34.6344 40.2371 34.9357 40.7709 35.2433 40.8907C35.3015 40.913 35.3722 40.9414 35.5052 40.8054C35.5906 40.7177 35.7083 40.6667 35.8322 40.6637C35.9561 40.6606 36.0762 40.7058 36.166 40.7892C36.2557 40.8733 36.3076 40.9886 36.3103 41.11C36.313 41.2313 36.2664 41.3488 36.1806 41.4366C36.0727 41.555 35.941 41.6504 35.7937 41.7167C35.6464 41.7831 35.4866 41.819 35.3244 41.8222Z" fill="#F8671C"/>
<path d="M35.358 41.7918C34.7782 41.7918 34.3418 41.4529 34.3418 41.0044C34.3418 40.5558 34.7782 40.2148 35.358 40.2148C35.9379 40.2148 36.3743 40.5538 36.3743 41.0044C36.3743 41.4549 35.9358 41.7918 35.358 41.7918Z" fill="#F8671C"/>
</g>
<defs>
<clipPath id="clip0_6070_171">
<rect width="63" height="57" fill="white"/>
</clipPath>
<clipPath id="clip1_6070_171">
<rect width="27" height="31" fill="white" transform="translate(18 13)"/>
</clipPath>
</defs>
</svg>
