<svg width="63" height="57" viewBox="0 0 63 57" fill="none" xmlns="http://www.w3.org/2000/svg">
<g clip-path="url(#clip0_6068_170)">
<path d="M40.5452 56.9651C36.8941 56.9651 34.1381 56.3384 31.5484 55.0454C31.3233 54.9179 31.0688 54.8509 30.8099 54.8509C30.5509 54.8509 30.2964 54.9179 30.0713 55.0454C24.7832 57.5297 19.444 57.7301 14.1143 55.2044C7.96457 52.2843 4.22389 45.5867 4.91288 38.7508C5.065 37.4908 5.3005 36.2422 5.61785 35.0131C5.74414 34.4787 5.64503 34.1638 5.26617 33.7694C0.871672 29.1935 -0.941116 23.8225 0.470429 17.5734C1.72851 12.0162 5.86563 8.36925 11.6253 7.56128C11.831 7.54683 12.0289 7.47705 12.1978 7.35939C12.3668 7.24174 12.5004 7.08062 12.5845 6.89327C16.4067 -0.0778471 24.6058 -2.08186 31.2511 2.33334C31.6475 2.59736 31.9113 2.56555 32.3141 2.33334C37.0283 -0.370495 41.7218 -0.422978 46.3305 2.5751C48.1273 3.74411 49.4381 5.36959 50.4548 7.24637C50.6147 7.53902 51.0015 7.86825 51.3084 7.8937C57.0713 8.39947 61.891 12.8831 62.7894 19.0844C63.7086 25.4289 61.5873 30.7109 56.8044 34.9479C56.3456 35.3551 56.2145 35.6748 56.336 36.2824C57.399 41.5771 56.5182 46.4774 53.0573 50.7383C49.6619 54.9293 45.1491 56.8585 40.5452 56.9651Z" fill="white"/>
</g>
<g clip-path="url(#clip1_6068_170)">
<path d="M36.0214 34.2585C36.1111 35.1096 36.1964 35.8918 36.2926 36.791C37.0143 36.8057 37.7295 36.8099 38.4446 36.837C38.7836 36.8496 39.2669 36.7387 39.2713 37.2553C39.2713 37.7384 38.8339 37.7342 38.4621 37.7363C36.824 37.7363 35.1816 37.7363 33.5457 37.753C32.9399 37.753 32.8087 37.4456 32.9027 36.858H35.2581C35.1794 35.9503 35.1072 35.1431 35.0263 34.2166C34.5342 34.2166 34.0706 34.2166 33.6091 34.2166C33.3569 34.2387 33.1026 34.2123 32.8612 34.1393C32.7789 34.0811 32.7105 34.0068 32.6607 33.9213C32.6109 33.8358 32.5809 33.7412 32.5725 33.6436C32.5725 33.5495 32.7912 33.3634 32.9202 33.3362C33.2104 33.3024 33.5032 33.294 33.795 33.3111C36.017 33.3111 38.239 33.3111 40.4611 33.3111C41.6508 33.3111 41.8629 33.102 41.8651 31.9706C41.8651 26.78 41.8651 21.5901 41.8651 16.4009C41.8651 16.2608 41.8651 16.1207 41.8651 15.9826C41.8236 15.1963 41.6202 14.9914 40.8328 14.937C40.6513 14.9244 40.4676 14.937 40.2861 14.937H22.1339C21.9153 14.9254 21.6963 14.9254 21.4778 14.937C20.9069 15.0018 20.7429 15.1608 20.6882 15.738C20.6598 16.014 20.6882 16.2942 20.6882 16.5745C20.6882 19.8146 20.6882 23.054 20.6882 26.2927C20.7144 26.6053 20.702 26.9198 20.6511 27.2296C20.6189 27.3343 20.5631 27.4309 20.4875 27.5126C20.4119 27.5943 20.3184 27.659 20.2137 27.7023C19.8922 27.7943 19.7763 27.535 19.7763 27.2652C19.7763 26.9954 19.7588 26.7779 19.7588 26.5332C19.7588 23.0512 19.8047 19.5671 19.7369 16.0767C19.7128 14.8471 20.4695 13.9604 21.9501 13.9959C25.0798 14.067 28.2138 14.0126 31.3543 14.0126C34.4438 14.0126 37.5348 14.0126 40.6273 14.0126C42.1997 14.0126 42.8143 14.5961 42.8143 16.0851C42.8143 21.3831 42.8143 26.681 42.8143 31.979C42.8143 33.5223 42.0948 34.2083 40.4939 34.2166C39.4004 34.2166 38.3068 34.2166 37.2133 34.2166C36.8525 34.2104 36.496 34.2376 36.0214 34.2585Z" fill="#F8671C"/>
<path d="M22.0001 42.9979C19.1241 42.9979 16.246 42.9979 13.3701 42.9979C11.5942 42.9979 10.8419 42.2304 11.0169 40.5239C11.2224 38.556 11.4914 36.5923 11.7473 34.6286C11.9332 33.1835 12.1541 31.7405 12.3356 30.2933C12.4931 29.026 13.1426 28.3547 14.4702 28.1811C14.833 28.1401 15.1984 28.1234 15.5637 28.1309C19.9683 28.1309 24.3737 28.1309 28.7798 28.1309C28.9985 28.1309 29.2172 28.1309 29.4359 28.1309C30.8531 28.2501 31.4939 28.888 31.6623 30.2431C31.9029 32.1734 32.1959 34.0974 32.4474 36.0276C32.6486 37.5773 32.8542 39.129 32.9942 40.685C33.1232 42.1321 32.2681 42.9854 30.7438 42.9854C27.8328 43.0042 24.9197 42.9979 22.0001 42.9979ZM21.9869 42.0987C24.8301 42.0987 27.6732 42.0987 30.5163 42.0987C31.846 42.0987 32.1216 41.8059 32.021 40.5281C31.9576 39.7313 31.8569 38.9366 31.752 38.144C31.413 35.5947 31.0587 33.0475 30.7197 30.4962C30.5819 29.4735 30.256 29.1494 29.1888 29.1389C27.3714 29.1222 25.5562 29.1389 23.7387 29.1389C20.7513 29.1389 17.7638 29.1389 14.772 29.1389C13.6653 29.1389 13.392 29.4526 13.2651 30.4857C12.9589 32.9702 12.609 35.4484 12.2788 37.9286C12.1476 38.9304 12.001 39.93 11.9376 40.9338C11.8873 41.6951 12.2328 42.0171 13.018 42.0903C13.3067 42.1175 13.5997 42.1049 13.8928 42.1049L21.9869 42.0987Z" fill="#F8671C"/>
<path d="M51.5437 35.7412C51.5437 37.2051 51.5437 38.669 51.5437 40.1329C51.5437 41.5968 50.7782 42.3099 49.2758 42.3497C48.8037 42.3748 48.3306 42.3748 47.8586 42.3497C46.6426 42.2514 45.9624 41.5132 45.9646 40.3462C45.9646 38.0848 45.9704 35.8241 45.9821 33.5641C45.9821 32.5966 45.9741 31.6276 45.9581 30.6572C45.9581 30.5297 45.9274 30.3435 45.8378 30.2829C45.3282 29.942 45.4004 29.4464 45.4004 28.957C45.4004 28.2627 45.3872 27.5663 45.4004 26.8657C45.4288 26.0292 45.6475 25.795 46.4939 25.7803C48.0219 25.7594 49.5528 25.7594 51.0866 25.7803C51.7427 25.7803 51.9614 25.9706 51.9811 26.5771C52.0139 27.5496 51.9811 28.5241 51.9811 29.5049C51.9811 29.6095 52.0008 29.7454 51.9417 29.8124C51.3031 30.5359 51.5568 31.3976 51.5371 32.209C51.5065 33.3906 51.5371 34.5721 51.5371 35.7642L51.5437 35.7412ZM50.5552 30.3038H46.9881C46.9685 30.6907 46.9357 31.0295 46.9357 31.3662C46.9357 34.0486 46.932 36.7304 46.9247 39.4114C46.9247 40.9171 46.612 41.5613 49.0636 41.4609C50.2774 41.4107 50.5945 41.1325 50.5945 39.9489C50.5945 37.021 50.5945 34.0932 50.5945 31.1654C50.6011 30.8936 50.5727 30.6217 50.5552 30.2954V30.3038ZM46.3998 26.7151V29.3523C47.2353 29.3523 47.9942 29.3523 48.7552 29.3523C49.5163 29.3523 50.2468 29.3293 50.9773 29.3167V26.7068L46.3998 26.7151Z" fill="#F8671C"/>
<path d="M35.0908 19.8827C35.6704 19.5669 36.239 19.1821 36.9979 19.3829C38.4719 19.7782 39.198 21.4198 38.2467 22.6244C37.4244 23.6701 36.3396 24.5191 35.3598 25.4435C35.1017 25.684 34.8065 25.592 34.5812 25.3807C33.6496 24.5024 32.6457 23.6805 31.8278 22.7143C31.5949 22.444 31.4386 22.1211 31.3737 21.7764C31.3088 21.4317 31.3375 21.0769 31.4572 20.7459C31.5768 20.4149 31.7833 20.1189 32.0569 19.8861C32.3305 19.6533 32.662 19.4915 33.0197 19.4164C33.3698 19.3516 33.731 19.3667 34.0739 19.4603C34.426 19.5701 34.7665 19.7116 35.0908 19.8827ZM35.0755 24.54C35.8803 23.7872 36.7048 23.1096 37.4091 22.3295C37.6451 22.0814 37.7693 21.7542 37.7546 21.419C37.7398 21.0838 37.5874 20.7677 37.3303 20.5394C36.7967 20.096 36.2915 20.1337 35.5807 20.6753C35.0143 21.1082 35.0077 21.1166 34.4391 20.6649C34.0323 20.3428 33.6277 20.0814 33.0656 20.3177C32.263 20.6544 32.0246 21.4658 32.5757 22.2292C33.245 23.1451 34.1438 23.8436 35.0755 24.54Z" fill="#F8671C"/>
<path d="M22.4769 40.7101C19.5069 40.6515 17.0312 40.0618 14.783 38.715C13.9431 38.2131 13.9256 38.1671 14.4462 37.3222C15.649 35.3703 16.865 33.4296 18.0941 31.5C18.5774 30.7409 18.6059 30.7367 19.45 31.1403C21.1559 31.9559 22.8487 32.0375 24.572 31.1717C25.4184 30.7534 25.4665 30.766 25.9411 31.5168C27.2008 33.5119 28.446 35.5188 29.6765 37.5376C30.0265 38.1085 29.9871 38.234 29.3616 38.6334C27.9012 39.5595 26.2552 40.1849 24.5283 40.4696C23.7497 40.5972 22.9449 40.6557 22.4769 40.7101ZM26.2079 33.7503C23.4173 35.1598 20.6179 35.0552 17.8338 33.7022C16.9029 35.0537 16.0444 36.4497 15.2619 37.8848C19.0848 40.4508 25.3637 40.3608 28.7208 37.8304C28.0057 36.6362 27.2861 35.4317 26.5622 34.2333C26.4529 34.0666 26.3347 33.9053 26.2079 33.7503ZM18.3347 32.8615C20.6704 34.3065 24.3337 34.0221 25.6481 32.7945C25.5693 32.6419 25.5015 32.4808 25.4075 32.3345C25.3134 32.1881 25.2019 32.0668 25.0576 31.8827C23.0389 32.9681 21.0203 32.8719 18.9864 31.8827C18.7415 32.2424 18.5512 32.5185 18.3259 32.8615H18.3347Z" fill="#F8671C"/>
<path d="M33.2726 32.2131C33.6821 32.2131 34.014 31.8957 34.014 31.5041C34.014 31.1126 33.6821 30.7952 33.2726 30.7952C32.8631 30.7952 32.5312 31.1126 32.5312 31.5041C32.5312 31.8957 32.8631 32.2131 33.2726 32.2131Z" fill="#F8671C"/>
<path d="M49.5083 37.4119C49.7124 37.4119 49.8779 37.2537 49.8779 37.0585C49.8779 36.8633 49.7124 36.7051 49.5083 36.7051C49.3042 36.7051 49.1387 36.8633 49.1387 37.0585C49.1387 37.2537 49.3042 37.4119 49.5083 37.4119Z" fill="#F8671C"/>
<path d="M49.8798 38.351C49.8798 38.1558 49.7144 37.9976 49.5102 37.9976C49.3061 37.9976 49.1406 38.1558 49.1406 38.351V40.1181C49.1406 40.3133 49.3061 40.4716 49.5102 40.4716C49.7144 40.4716 49.8798 40.3133 49.8798 40.1181V38.351Z" fill="#F8671C"/>
<path d="M29.2547 25.8639H29.2175C29.1195 25.8555 29.0264 25.8192 28.9503 25.7595C28.8742 25.6998 28.8187 25.6196 28.791 25.5293L27.4482 21.1836L26.6849 23.0825C26.6491 23.1712 26.5861 23.2474 26.5041 23.3012C26.4221 23.3549 26.325 23.3837 26.2256 23.3836H23.9686C23.8381 23.3836 23.713 23.3341 23.6207 23.2458C23.5284 23.1576 23.4766 23.0379 23.4766 22.9131C23.4766 22.7883 23.5284 22.6686 23.6207 22.5804C23.713 22.4921 23.8381 22.4426 23.9686 22.4426H25.8735L27.0414 19.5524C27.0784 19.4605 27.1446 19.382 27.2307 19.328C27.3168 19.274 27.4185 19.2472 27.5214 19.2514C27.6242 19.2556 27.7232 19.2905 27.8042 19.3512C27.8852 19.412 27.9443 19.4955 27.9731 19.59L29.3771 24.1323L30.3307 22.3443C30.3582 22.2862 30.3977 22.2341 30.4468 22.1911C30.496 22.1481 30.5538 22.1151 30.6167 22.0941C30.6796 22.0731 30.7463 22.0645 30.8128 22.0689C30.8792 22.0733 30.9441 22.0905 31.0034 22.1196C31.0627 22.1487 31.1152 22.1889 31.1577 22.238C31.2002 22.287 31.2319 22.3438 31.2508 22.4049C31.2697 22.466 31.2754 22.5301 31.2676 22.5934C31.2599 22.6567 31.2387 22.7178 31.2055 22.773L29.6921 25.6171C29.6493 25.6923 29.5861 25.7549 29.509 25.7984C29.432 25.8418 29.3441 25.8645 29.2547 25.8639Z" fill="#F8671C"/>
<path d="M39.5681 28.7688H32.3072C32.1767 28.7688 32.0515 28.7193 31.9592 28.631C31.8669 28.5428 31.8151 28.4231 31.8151 28.2983C31.8151 28.1735 31.8669 28.0538 31.9592 27.9656C32.0515 27.8773 32.1767 27.8278 32.3072 27.8278H39.5681C39.5893 27.8278 39.6104 27.8238 39.63 27.816C39.6496 27.8082 39.6675 27.7968 39.6825 27.7824C39.6975 27.7681 39.7094 27.751 39.7176 27.7322C39.7257 27.7135 39.7299 27.6933 39.7299 27.673V17.2228C39.7299 17.1818 39.7129 17.1424 39.6825 17.1134C39.6521 17.0843 39.611 17.068 39.5681 17.068H23.0933C23.0503 17.068 23.0092 17.0843 22.9788 17.1134C22.9485 17.1424 22.9314 17.1818 22.9314 17.2228V28.2042C22.9314 28.329 22.8796 28.4487 22.7873 28.5369C22.695 28.6252 22.5699 28.6747 22.4393 28.6747C22.3088 28.6747 22.1837 28.6252 22.0914 28.5369C21.9991 28.4487 21.9473 28.329 21.9473 28.2042V17.2228C21.9478 16.9323 22.0688 16.6539 22.2836 16.4485C22.4984 16.2431 22.7895 16.1275 23.0933 16.127H39.5615C39.7125 16.1264 39.8621 16.1543 40.0017 16.2091C40.1414 16.2639 40.2684 16.3445 40.3754 16.4463C40.4825 16.5481 40.5675 16.6691 40.6256 16.8023C40.6837 16.9356 40.7138 17.0784 40.7141 17.2228V27.6793C40.7118 27.9687 40.5901 28.2455 40.3755 28.4495C40.1609 28.6535 39.8707 28.7683 39.5681 28.7688Z" fill="#F8671C"/>
</g>
<defs>
<clipPath id="clip0_6068_170">
<rect width="63" height="57" fill="white"/>
</clipPath>
<clipPath id="clip1_6068_170">
<rect width="41" height="29" fill="white" transform="translate(11 14)"/>
</clipPath>
</defs>
</svg>
