<?xml version="1.0" encoding="utf-8"?>
<!-- Generator: Adobe Illustrator 26.0.1, SVG Export Plug-In . SVG Version: 6.00 Build 0)  -->
<svg version="1.1" id="Layer_1" xmlns="http://www.w3.org/2000/svg" xmlns:xlink="http://www.w3.org/1999/xlink" x="0px" y="0px"
	 viewBox="0 0 160 70" style="enable-background:new 0 0 160 70;" xml:space="preserve">
<style type="text/css">
	.st0{fill-rule:evenodd;clip-rule:evenodd;fill:#FFFFFF;}
	.st1{fill:#FFFFFF;}
</style>
<path class="st0" d="M22.4,55.1c0.1,2.9,0,4.8,0.9,7.4c3.2,8.6,12.8,8.8,16.1,5.8c2.2-2,1.3-4.7-1.3-4.7c-2.5,0.1-3.3,2.1-7,1.3
	c-2-0.5-3.9-1.9-4.9-3.5c-1.9-3-1.4-4-1.9-6.6c-1.2-0.8-1.6-0.9-2.5-2.3c-0.7-1.1-1-2.4-0.8-4c0.3-2.4,2.3-4.9,3.6-5.9
	c2.3-1.9,5.3-1.9,4.9-4.7c-0.3-1.8-1.9-1-3.2-1.5c-1.1-0.5-2-1.7-1.6-3.2c0.4-0.5,0.5-0.3,0.9-0.7c0.4-0.3,0.5-0.7,0.7-1.1
	c0.5-0.8,1.2-0.9,2.2-1.4c0.2-0.7,0.1-1.6,0.1-2.3c5.1,1.4,5.9,10,5.4,13.8c-0.4,3-1.2,5.1-2.2,7.5c-1,2.5-1.3,6.1,2.3,6.1
	c1.6,0,3.3,0,4.9,0c4.7,0,4.2,0.9,1.8-9.1c-1.8-7.5-3.6-16-5.6-23.5c-1.3-4.9-0.1-4-5.8-4c-4.1,0-3.2-0.7-4.9,4.8
	c-0.8,2.5-1.6,4.9-2.3,7.4c-1.4,5-3,9.9-4.6,14.8C13.9,58.2,13.6,54.4,22.4,55.1z"/>
<path class="st0" d="M119.3,28.6l0,18.3c0,4.7-0.4,4.5,2.6,4.5c3.3,0,2.5,0.4,2.5-6.8c0-1-0.2-2.1,0.3-2.8c1-1.4,6.7-8.7,7.3-9.1
	l0,16c0,3-0.3,2.7,3,2.7c2.8,0,2.1,0,2.1-4.3l0-20.1c0-1,0.1-5.4-0.3-5.9c-0.1-0.5-2.3-0.4-2.5-0.2c-0.6,0.5-1.9,2.7-2.5,3.5l-5,7
	c-0.4,0.6-0.7,1-1.2,1.7c-0.2,0.3-0.4,0.6-0.6,0.9c-0.3,0.5-0.3,0.6-0.8,0.8l0-11.2c0-1.5,0.1-2.1-0.5-2.4c-0.6-0.3-3-0.4-3.9-0.2
	c-0.6,0.1-0.4,2.4-0.5,3.6C119.3,25.8,119.3,27.2,119.3,28.6z"/>
<path class="st0" d="M98.5,32.3l-0.1,14.6c0,5-0.9,4.5,4,4.5c1.6,0,1.2-0.9,1.2-4.2v-9.3c0.9-0.2,4.9-0.2,5.7,0l0,10.5
	c0,0.9-0.3,2.3,0.3,2.8l0.2,0.1c0,0,0.1,0,0.1,0l3.1,0.1c0.1,0,0.4,0,0.6,0c1.4-0.2,1-1.6,1-4.5l0-23.7c0-1,0-2.1-0.4-2.2
	c-0.6-0.1-4-0.3-4.4,0.1c-0.4,0.1-0.2,8.5-0.2,9.3l-0.1,1.9c-0.8,0.4-5,0.1-5.8,0.1l0-9.4c0-1.1,0.2-1.9-0.4-2
	c-5.8-0.3-4.8-0.6-4.7,4.2C98.5,27.5,98.5,29.9,98.5,32.3z"/>
<path class="st0" d="M77.3,33.5c-3.4,0.3-3.8-0.8-3.4,4.6c0.1,1.3,1.9,0.9,3.3,1c0.1,2,0,4.1,0.1,6.1c0.1,1.5-0.3,5.1,0.4,6
	c0.6,0.5,15.5,0.3,16.4-0.1c0.7-0.3,0.5-1.4,0.5-2.3c0-1,0.2-2.1-0.4-2.5c-0.3-0.2-10-0.3-11.6-0.4c-0.2-1.2-0.2-6,0-6.9
	c0.9-0.3,3.2-0.4,4.4-0.5c5.2-0.5,4.4,0.2,4.4-3.8c0-1.5-0.6-1.3-2-1.3c-1.2,0-6,0-6.7-0.2c-0.3-0.7-0.2-5.9-0.1-7
	c1.7-0.2,3.5-0.2,5.3-0.2c5.6,0,5.7,1.1,5.6-2.1c0-0.8,0-1.6-0.1-2.4c-0.1-0.8-11.4-0.6-14.1-0.4c-2.5,0.1-2,0.1-2,5.4
	C77.4,28.2,77.6,31.7,77.3,33.5z"/>
<path class="st0" d="M149.4,20.5c-10.3,2-12.4,16.9-8.8,24.4c1.6,3.5,5.6,7.6,11.4,6.5c2.3-0.4,4.5-2,5.7-3.4
	c0.7-0.9,1.2-1.5,1.8-2.8c1.1-2.3,0.4-2-2.1-3.8c-1.8-1.3-1.2-0.3-3.4,2.3c-0.6,0.7-1.5,1.7-2.5,2.1c-1.4,0.4-2.7,0.2-3.8-0.5
	c-3.7-2.3-4-9.4-2.5-14c1.6-4.6,4.9-7.3,9.1-4c1.6,1.3,1.4,0.2,3.4-2.5c0.8-1.1,0.3-1.4-1.2-2.5C154.9,21.1,152.2,20,149.4,20.5z"/>
<path class="st1" d="M56,21.6c1.1-0.1,11.3-0.3,12.5,0c0.8,0.2,0.7,0.9,0.7,1.8c0,8.2,0.3,15.9,0.4,24.1c0.8,0.1,2.4-0.1,2.9,0.4
	c0.5,0.5,0.4,7,0.1,7.7c-0.7,0.2-3.3,0.2-4.2,0.1c-0.5-0.8-0.3-1.9-0.3-3.1l-16.6-0.1c-0.2,3.3,0.7,3.3-2.3,3.3
	c-0.7,0-1.5,0-2.2-0.1l0-7.9c0.2-0.8,1.6,0.1,2.9-1.5c4.1-4.9,5.2-14.5,5.5-20.7C55.6,24,55.4,22.6,56,21.6z M60.3,26.4
	c-0.6,5.1-0.3,6.2-1.6,11.7c-1.3,5.4-3.9,8.7-4.1,9.3l9.8,0l-0.5-21L60.3,26.4z"/>
<path class="st0" d="M18.2,27.8c-0.6-4.2-2.6-6.7-5.6-8.2C11,18.8,9,18.4,6.9,18.4c-1.1,0-5.6,0.2-6.4,0.6C-0.2,19.3,0,20.9,0,21.8
	l0,30.8c0,3.1-0.5,2.5,4.4,2.6c1.7,0,1.5-0.3,1.5-1.9c0-2.1-0.1-9.2,0.1-10.3c1.5-0.4,2.8,0,5.5-1.3c1.5-0.8,3-2,3.8-3.1
	C17.3,36,18.8,32.1,18.2,27.8z M5.9,37.5l0-13.5C15.1,23.5,13.8,37.5,5.9,37.5z"/>
<path class="st1" d="M20.7,2.3h2.5c0.6,0,1.1,0.1,1.4,0.2c0.3,0.1,0.6,0.3,0.8,0.6c0.2,0.3,0.3,0.6,0.3,1c0,0.3-0.1,0.6-0.2,0.8
	c-0.1,0.2-0.3,0.4-0.6,0.6c0.3,0.1,0.5,0.3,0.7,0.6c0.2,0.3,0.3,0.6,0.3,1c0,0.6-0.3,1-0.6,1.3c-0.4,0.3-1,0.4-1.7,0.4h-2.9V2.3z
	 M21.7,5h1.1c0.5,0,0.8,0,0.9-0.1c0.2,0,0.3-0.1,0.5-0.3c0.1-0.1,0.2-0.3,0.2-0.5c0-0.3-0.1-0.6-0.4-0.7c-0.2-0.1-0.6-0.2-1.2-0.2
	h-1.2V5z M21.7,7.8h1.4c0.6,0,1-0.1,1.3-0.2c0.2-0.1,0.3-0.4,0.4-0.7c0-0.2-0.1-0.4-0.2-0.6c-0.1-0.2-0.3-0.3-0.5-0.3
	c-0.2,0-0.6-0.1-1-0.1h-1.3V7.8z M31.4,6.6l1.1,0.1c-0.2,0.6-0.5,1.1-1,1.5c-0.5,0.4-1.1,0.5-1.8,0.5c-0.9,0-1.7-0.3-2.2-0.8
	c-0.5-0.6-0.8-1.4-0.8-2.4c0-1.1,0.3-1.9,0.8-2.5c0.6-0.6,1.3-0.9,2.1-0.9c0.9,0,1.5,0.3,2.1,0.9c0.5,0.6,0.8,1.4,0.8,2.4
	c0,0.1,0,0.2,0,0.3h-4.8c0,0.7,0.2,1.2,0.6,1.6c0.4,0.4,0.8,0.6,1.3,0.6c0.4,0,0.7-0.1,1-0.3C31,7.4,31.2,7,31.4,6.6z M27.9,4.9h3.6
	c0-0.5-0.2-0.9-0.4-1.2c-0.3-0.4-0.8-0.6-1.3-0.6c-0.5,0-0.9,0.2-1.3,0.5C28.1,3.9,27.9,4.3,27.9,4.9z M32.9,2.3h5.2v0.9h-2v5.4H35
	V3.2h-2V2.3z M43.3,6.6l1.1,0.1c-0.2,0.6-0.5,1.1-1,1.5c-0.5,0.4-1.1,0.5-1.8,0.5c-0.9,0-1.7-0.3-2.2-0.8c-0.5-0.6-0.8-1.4-0.8-2.4
	c0-1.1,0.3-1.9,0.8-2.5c0.6-0.6,1.3-0.9,2.1-0.9c0.9,0,1.5,0.3,2.1,0.9c0.5,0.6,0.8,1.4,0.8,2.4c0,0.1,0,0.2,0,0.3h-4.8
	c0,0.7,0.2,1.2,0.6,1.6c0.4,0.4,0.8,0.6,1.3,0.6c0.4,0,0.7-0.1,1-0.3C42.9,7.4,43.2,7,43.3,6.6z M39.8,4.9h3.6
	c0-0.5-0.2-0.9-0.4-1.2c-0.3-0.4-0.8-0.6-1.3-0.6c-0.5,0-0.9,0.2-1.3,0.5C40,3.9,39.8,4.3,39.8,4.9z M45.8,11V2.3h1v0.8
	c0.2-0.3,0.5-0.6,0.8-0.7c0.3-0.2,0.6-0.2,1.1-0.2c0.5,0,1,0.1,1.4,0.4c0.4,0.3,0.7,0.7,0.9,1.2c0.2,0.5,0.3,1.1,0.3,1.7
	c0,0.6-0.1,1.2-0.4,1.7c-0.2,0.5-0.6,0.9-1,1.2c-0.4,0.3-0.9,0.4-1.4,0.4c-0.4,0-0.7-0.1-1-0.2c-0.3-0.1-0.5-0.3-0.7-0.6V11H45.8z
	 M46.8,5.5c0,0.8,0.2,1.4,0.5,1.8c0.3,0.4,0.7,0.6,1.2,0.6c0.5,0,0.9-0.2,1.2-0.6c0.3-0.4,0.5-1,0.5-1.9c0-0.8-0.2-1.4-0.5-1.8
	C49.4,3.2,49,3,48.6,3c-0.5,0-0.9,0.2-1.2,0.6C47,4.1,46.8,4.7,46.8,5.5z M52.7,2.3h1.1v4.8l3-4.8h1.2v6.3h-1.1V3.9l-3,4.8h-1.2V2.3
	z M59.5,2.3h1.1V5h3V2.3h1.1v6.3h-1.1V5.8h-3v2.8h-1.1V2.3z M70.5,7.8c-0.4,0.3-0.8,0.6-1.2,0.7c-0.4,0.1-0.8,0.2-1.2,0.2
	c-0.7,0-1.2-0.2-1.6-0.5C66.1,7.9,66,7.5,66,7c0-0.3,0.1-0.6,0.2-0.8c0.1-0.3,0.3-0.5,0.6-0.6c0.2-0.2,0.5-0.3,0.8-0.3
	c0.2-0.1,0.5-0.1,1-0.2c0.9-0.1,1.5-0.2,1.9-0.4c0-0.1,0-0.2,0-0.3c0-0.4-0.1-0.7-0.3-0.9c-0.3-0.2-0.7-0.4-1.2-0.4
	c-0.5,0-0.9,0.1-1.1,0.3c-0.2,0.2-0.4,0.5-0.5,0.9l-1.1-0.1c0.1-0.4,0.3-0.8,0.5-1.1c0.2-0.3,0.5-0.5,1-0.6C68,2.3,68.5,2.2,69,2.2
	c0.5,0,1,0.1,1.3,0.2c0.3,0.1,0.6,0.3,0.8,0.5c0.2,0.2,0.3,0.4,0.3,0.7c0,0.2,0.1,0.5,0.1,1V6c0,1,0,1.6,0.1,1.9
	c0,0.3,0.1,0.5,0.3,0.8h-1.1C70.6,8.4,70.5,8.1,70.5,7.8z M70.4,5.5c-0.4,0.2-1,0.3-1.8,0.4c-0.4,0.1-0.8,0.1-0.9,0.2
	c-0.2,0.1-0.3,0.2-0.4,0.3c-0.1,0.2-0.2,0.3-0.2,0.5c0,0.3,0.1,0.5,0.3,0.7c0.2,0.2,0.5,0.3,1,0.3c0.4,0,0.8-0.1,1.1-0.3
	c0.3-0.2,0.6-0.4,0.7-0.7c0.1-0.2,0.2-0.6,0.2-1.1L70.4,5.5z M73.2,11V2.3h1v0.8c0.2-0.3,0.5-0.6,0.8-0.7c0.3-0.2,0.6-0.2,1.1-0.2
	c0.5,0,1,0.1,1.4,0.4c0.4,0.3,0.7,0.7,0.9,1.2c0.2,0.5,0.3,1.1,0.3,1.7c0,0.6-0.1,1.2-0.4,1.7c-0.2,0.5-0.6,0.9-1,1.2
	c-0.4,0.3-0.9,0.4-1.4,0.4c-0.4,0-0.7-0.1-1-0.2c-0.3-0.1-0.5-0.3-0.7-0.6V11H73.2z M74.1,5.5c0,0.8,0.2,1.4,0.5,1.8
	c0.3,0.4,0.7,0.6,1.2,0.6c0.5,0,0.9-0.2,1.2-0.6c0.3-0.4,0.5-1,0.5-1.9c0-0.8-0.2-1.4-0.5-1.8C76.8,3.2,76.4,3,75.9,3
	c-0.5,0-0.9,0.2-1.2,0.6C74.3,4.1,74.1,4.7,74.1,5.5z M80,2.3h1.1V5h3V2.3h1.1v6.3h-1.1V5.8h-3v2.8H80V2.3z M92.9,2.3h1.1v6.3h-1.1
	V2.3z M86.8,2.3h1.1v2.5h1.4c0.9,0,1.6,0.2,2.1,0.5c0.5,0.3,0.7,0.8,0.7,1.4c0,0.5-0.2,1-0.6,1.3c-0.4,0.4-1,0.6-1.9,0.6h-2.7V2.3z
	 M87.9,7.8H89c0.7,0,1.2-0.1,1.5-0.2c0.3-0.2,0.4-0.4,0.4-0.8c0-0.3-0.1-0.5-0.3-0.7c-0.2-0.2-0.7-0.3-1.4-0.3h-1.3V7.8z M95.6,2.3
	h1.1v4.8l3-4.8h1.2v6.3h-1.1V3.9l-3,4.8h-1.2V2.3z M99.4,0h0.7c-0.1,0.5-0.2,0.9-0.6,1.2c-0.3,0.3-0.7,0.4-1.2,0.4
	c-0.5,0-0.9-0.1-1.2-0.4c-0.3-0.3-0.5-0.7-0.5-1.2h0.7c0.1,0.3,0.2,0.5,0.3,0.6c0.2,0.1,0.4,0.2,0.7,0.2c0.3,0,0.6-0.1,0.7-0.2
	C99.2,0.5,99.3,0.3,99.4,0z M105.9,2.3h1.1v5.4h3V2.3h1.1v5.4h0.7v2.7h-0.9V8.6h-5V2.3z M117.2,6.6l1.1,0.1c-0.2,0.6-0.5,1.1-1,1.5
	c-0.5,0.4-1.1,0.5-1.8,0.5c-0.9,0-1.7-0.3-2.2-0.8c-0.5-0.6-0.8-1.4-0.8-2.4c0-1.1,0.3-1.9,0.8-2.5c0.6-0.6,1.3-0.9,2.1-0.9
	c0.8,0,1.5,0.3,2.1,0.9c0.5,0.6,0.8,1.4,0.8,2.4c0,0.1,0,0.2,0,0.3h-4.8c0,0.7,0.2,1.2,0.6,1.6c0.4,0.4,0.8,0.6,1.3,0.6
	c0.4,0,0.7-0.1,1-0.3C116.8,7.4,117,7,117.2,6.6z M113.6,4.9h3.6c0-0.5-0.2-0.9-0.4-1.2c-0.3-0.4-0.8-0.6-1.3-0.6
	c-0.5,0-0.9,0.2-1.3,0.5C113.9,3.9,113.7,4.3,113.6,4.9z M119.7,2.3h1.1V5h3V2.3h1.1v6.3h-1.1V5.8h-3v2.8h-1.1V2.3z M125.9,2.3h5.2
	v0.9h-2v5.4h-1.1V3.2h-2V2.3z M132.1,11V2.3h1v0.8c0.2-0.3,0.5-0.6,0.8-0.7c0.3-0.2,0.6-0.2,1.1-0.2c0.5,0,1,0.1,1.4,0.4
	c0.4,0.3,0.7,0.7,0.9,1.2c0.2,0.5,0.3,1.1,0.3,1.7c0,0.6-0.1,1.2-0.4,1.7c-0.2,0.5-0.6,0.9-1,1.2c-0.4,0.3-0.9,0.4-1.4,0.4
	c-0.4,0-0.7-0.1-1-0.2c-0.3-0.1-0.5-0.3-0.7-0.6V11H132.1z M133.1,5.5c0,0.8,0.2,1.4,0.5,1.8c0.3,0.4,0.7,0.6,1.2,0.6
	c0.5,0,0.9-0.2,1.2-0.6c0.3-0.4,0.5-1,0.5-1.9c0-0.8-0.2-1.4-0.5-1.8c-0.3-0.4-0.7-0.6-1.2-0.6c-0.5,0-0.9,0.2-1.2,0.6
	C133.2,4.1,133.1,4.7,133.1,5.5z"/>
</svg>
