<svg width="20" height="20" viewBox="0 0 20 20" fill="none" xmlns="http://www.w3.org/2000/svg">
<path fill-rule="evenodd" clip-rule="evenodd" d="M9.72844 18.9933C7.85915 18.9933 6.99047 18.7192 5.4805 17.6229C4.52539 18.8562 1.50089 19.8201 1.36899 18.171C1.36899 16.9332 1.0961 15.8871 0.78682 14.7451C0.418431 13.3382 0 11.7714 0 9.50121C0 4.07912 4.42989 0 9.67842 0C14.9315 0 19.0476 4.28011 19.0476 9.55144C19.0652 14.7413 14.8958 18.9656 9.72844 18.9933ZM9.80577 4.68664C7.24972 4.55418 5.25763 6.33109 4.81647 9.1175C4.45262 11.4243 5.09845 14.2335 5.64877 14.3797C5.91256 14.4437 6.5766 13.9046 6.99047 13.489C7.67484 13.9638 8.47179 14.249 9.30093 14.3158C11.9494 14.4437 14.2125 12.4186 14.3903 9.76159C14.4938 7.09888 12.4546 4.8436 9.80577 4.69122V4.68664Z" fill="white"/>
</svg>
