<svg width="24" height="20" viewBox="0 0 24 20" fill="none" xmlns="http://www.w3.org/2000/svg">
<path d="M22.0383 0.0807555L0.615916 8.37058C0.603171 8.37549 0.590815 8.38136 0.578956 8.38813C0.40524 8.48654 -0.80707 9.22807 0.902362 9.8929L0.919918 9.89937L6.02096 11.5473C6.05987 11.56 6.10108 11.564 6.1417 11.559C6.18232 11.5541 6.22137 11.5403 6.25612 11.5187L18.9082 3.62482C18.9392 3.60546 18.9738 3.59243 19.0099 3.58648C19.1859 3.55737 19.6927 3.50285 19.3721 3.90988C19.0094 4.37189 10.3675 12.1161 9.4084 12.975C9.3531 13.0246 9.31888 13.0935 9.31277 13.1676L8.89419 18.1573C8.89413 18.2081 8.90592 18.2583 8.92862 18.3037C8.95131 18.3492 8.98429 18.3888 9.02494 18.4193C9.08261 18.4556 9.15043 18.4724 9.2184 18.4673C9.28636 18.4621 9.35087 18.4352 9.4024 18.3906L12.4332 15.6819C12.4811 15.6391 12.5421 15.614 12.6063 15.6107C12.6704 15.6074 12.7337 15.6262 12.7857 15.6638L18.0734 19.5031L18.0905 19.5147C18.2184 19.5937 19.6008 20.3981 20 18.6018L23.6498 1.2464C23.6549 1.19142 23.7043 0.587117 23.2724 0.229984C22.8187 -0.143319 22.1765 0.0451808 22.0799 0.0655092C22.0657 0.0694742 22.0518 0.0745726 22.0383 0.0807555Z" fill="white"/>
</svg>
