<svg width="592" height="410" viewBox="0 0 592 410" fill="none" xmlns="http://www.w3.org/2000/svg">
<g clip-path="url(#clip0_4816_47)">
<path d="M235.175 341.169C164.902 301.911 98.9787 316.675 63.8882 341.214C62.2946 342.344 59.9641 343.36 57.4966 344.435L57.2099 344.561C54.2345 345.868 51.2256 347.198 48.3997 348.846C-7.95567 381.919 -33.8499 442.825 -9.32285 484.641C-4.89352 492.23 1.04051 498.182 8.27508 502.359C25.1127 512.081 46.5313 510.824 69.207 509.494L69.3005 509.488L69.8822 509.455C84.5258 508.612 99.6624 507.741 115.299 509.44C117.441 509.841 126.321 513.602 137.895 520.285C147.62 525.9 153.137 530.053 154.319 531.377C164.081 544.107 171.54 557.885 178.751 571.206L178.958 571.587C190.393 592.765 200.272 611.029 217.01 620.693C225.116 625.373 234.191 627.526 244.013 627.045C268.341 625.892 290.29 611.907 305.815 587.663C320.432 564.851 327.67 535.324 326.204 504.519C326.06 501.574 325.586 498.673 325.087 495.797C324.66 493.361 324.266 491.045 324.365 489.514C327.556 444.52 306.508 382.333 237.866 342.702L235.175 341.169Z" fill="#294F9C"/>
<path d="M81.7227 171.998C50.698 154.086 7.82858 172.25 -15.8881 213.328C-39.5959 254.392 -33.8842 300.604 -2.86716 318.512C28.1498 336.419 71.0338 318.264 94.7416 277.201C118.458 236.122 112.747 189.91 81.7227 171.998Z" fill="#294F9C"/>
<path d="M455.793 387.966C424.776 370.059 381.891 388.214 358.174 429.292C334.467 470.356 340.186 516.573 371.203 534.48C402.22 552.388 445.105 534.233 468.813 493.169C492.529 452.091 486.81 405.874 455.793 387.966Z" fill="#294F9C"/>
<path d="M277.903 98.5111C239.177 76.1532 183.282 100.242 153.285 152.2C123.287 204.157 130.38 264.613 169.098 286.966C207.808 309.316 263.704 285.227 293.702 233.27C323.699 181.312 316.605 120.856 277.903 98.5111Z" fill="#294F9C"/>
<path d="M427.169 184.688C388.458 162.338 332.556 186.423 302.558 238.381C272.561 290.338 279.654 350.794 318.364 373.143C357.082 395.497 412.977 371.407 442.974 319.45C472.972 267.493 465.879 207.037 427.169 184.688Z" fill="#294F9C"/>
</g>
<defs>
<clipPath id="clip0_4816_47">
<path d="M0 0H592V410H96C42.9807 410 0 367.019 0 314V0Z" fill="white"/>
</clipPath>
</defs>
</svg>
