<svg width="804" height="454" viewBox="0 0 804 454" fill="none" xmlns="http://www.w3.org/2000/svg">
<g clip-path="url(#clip0_4816_54)">
<path d="M426.839 142.928C524.066 197.244 615.276 176.817 663.825 142.865C666.03 141.302 669.255 139.896 672.669 138.408L673.065 138.236C677.182 136.427 681.345 134.587 685.255 132.306C763.226 86.5486 799.053 2.28087 765.119 -55.5745C758.99 -66.0747 750.779 -74.3101 740.769 -80.0892C717.473 -93.5391 687.84 -91.8007 656.467 -89.9603L655.533 -89.9066C635.272 -88.7399 614.329 -87.534 592.695 -89.885C589.731 -90.4405 577.445 -95.6459 561.432 -104.891C547.977 -112.659 540.343 -118.405 538.709 -120.236C525.202 -137.848 514.883 -156.911 504.905 -175.341L504.619 -175.87C488.798 -205.172 475.13 -230.44 451.972 -243.811C440.757 -250.286 428.2 -253.265 414.61 -252.599C380.951 -251.005 350.584 -231.655 329.105 -198.113C308.881 -166.55 298.866 -125.698 300.896 -83.0776C301.094 -79.0029 301.75 -74.9881 302.441 -71.0096C303.031 -67.6386 303.577 -64.434 303.439 -62.3152C299.025 -0.0632324 328.145 85.9752 423.116 140.807L426.839 142.928Z" fill="#294F9C"/>
<path d="M639.151 376.987C682.076 401.769 741.388 376.638 774.201 319.803C807.002 262.99 799.1 199.052 756.186 174.276C713.272 149.5 653.94 174.619 621.138 231.432C588.325 288.266 596.226 352.204 639.151 376.987Z" fill="#294F9C"/>
<path d="M121.6 78.1808C164.514 102.957 223.847 77.8386 256.661 21.0042C289.462 -35.8093 281.549 -99.7536 238.635 -124.53C195.721 -149.306 136.388 -124.187 103.587 -67.3733C70.7735 -10.5388 78.6862 53.4043 121.6 78.1808Z" fill="#294F9C"/>
<path d="M367.724 478.661C421.303 509.595 498.638 476.267 540.141 404.381C581.645 332.494 571.83 248.85 518.262 217.922C464.704 187 387.369 220.329 345.865 292.215C304.362 364.101 314.176 447.746 367.724 478.661Z" fill="#294F9C"/>
<path d="M161.205 359.431C214.763 390.353 292.108 357.03 333.611 285.144C375.115 213.258 365.301 129.613 311.743 98.6915C258.174 67.7639 180.839 101.093 139.336 172.979C97.8325 244.865 107.647 328.509 161.205 359.431Z" fill="#294F9C"/>
</g>
<defs>
<clipPath id="clip0_4816_54">
<path d="M804 454H0V0H708C761.019 0 804 42.9807 804 96V454Z" fill="white"/>
</clipPath>
</defs>
</svg>
