<svg width="13" height="16" viewBox="0 0 13 16" fill="none" xmlns="http://www.w3.org/2000/svg">
<path d="M6.5 0C4.77669 0.00189054 3.12453 0.664747 1.90596 1.84315C0.687402 3.02155 0.00195497 4.61927 0 6.28578C0 11.6644 5.90909 15.7266 6.16097 15.8966C6.26032 15.9639 6.37869 16 6.5 16C6.62131 16 6.73968 15.9639 6.83903 15.8966C7.09091 15.7266 13 11.6644 13 6.28578C12.998 4.61927 12.3126 3.02155 11.094 1.84315C9.87547 0.664747 8.22331 0.00189054 6.5 0ZM6.5 4.00004C6.96748 4.00004 7.42447 4.1341 7.81317 4.38526C8.20186 4.63642 8.50482 4.9934 8.68371 5.41106C8.86261 5.82873 8.90942 6.28831 8.81822 6.7317C8.72702 7.17509 8.5019 7.58237 8.17134 7.90204C7.84078 8.2217 7.41962 8.4394 6.96112 8.5276C6.50262 8.61579 6.02737 8.57053 5.59548 8.39752C5.16358 8.22452 4.79443 7.93155 4.53471 7.55567C4.27499 7.17978 4.13636 6.73785 4.13636 6.28578C4.13636 5.67956 4.38539 5.09818 4.82866 4.66952C5.27192 4.24086 5.87312 4.00004 6.5 4.00004Z" fill="#3358A4"/>
</svg>
