<svg width="24" height="24" viewBox="0 0 24 24" fill="none" xmlns="http://www.w3.org/2000/svg">
<path d="M20.9492 19.1998H3.05279C2.98689 19.2109 2.91919 19.2019 2.85846 19.174C2.79772 19.1462 2.74677 19.1007 2.71219 19.0435C2.67761 18.9863 2.661 18.9201 2.66453 18.8534C2.66805 18.7866 2.69154 18.7225 2.73195 18.6693L5.713 12.9952C5.80486 12.8415 5.93307 12.7127 6.08638 12.6202C6.23968 12.5277 6.41337 12.4743 6.59216 12.4646H7.63679C7.99752 12.9609 8.39574 13.4288 8.82795 13.8642H6.83721L4.76942 17.8002H19.2326L17.1648 13.8642H15.4722C15.9045 13.4285 16.3028 12.9602 16.6633 12.4634H17.4098C17.5887 12.4733 17.7624 12.5269 17.9157 12.6196C18.069 12.7124 18.1972 12.8413 18.289 12.9952L21.2701 18.6693C21.3105 18.7225 21.334 18.7866 21.3375 18.8534C21.341 18.9201 21.3244 18.9863 21.2898 19.0435C21.2552 19.1007 21.2043 19.1462 21.1435 19.174C21.0828 19.2019 21.0151 19.2109 20.9492 19.1998ZM16.2957 9.08065C16.2957 12.4154 13.5471 12.7286 12.3762 15.9775C12.3652 16.029 12.3369 16.0751 12.2959 16.1083C12.255 16.1414 12.204 16.1595 12.1513 16.1595C12.0987 16.1595 12.0476 16.1414 12.0067 16.1083C11.9658 16.0751 11.9375 16.029 11.9265 15.9775C10.7543 12.7286 8.00563 12.4154 8.00563 9.08065C8.0246 7.99384 8.46966 6.95796 9.24494 6.19609C10.0202 5.43423 11.0637 5.00732 12.1507 5.00732C13.2377 5.00732 14.2811 5.43423 15.0564 6.19609C15.8317 6.95796 16.2768 7.99384 16.2957 9.08065ZM13.9463 9.07433C13.9463 8.71832 13.8407 8.37031 13.6429 8.0743C13.4451 7.7783 13.164 7.54759 12.8351 7.41135C12.5062 7.27511 12.1443 7.23946 11.7951 7.30892C11.4459 7.37837 11.1252 7.5498 10.8735 7.80154C10.6217 8.05327 10.4503 8.374 10.3808 8.72317C10.3114 9.07233 10.347 9.43425 10.4833 9.76316C10.6195 10.0921 10.8502 10.3732 11.1462 10.571C11.4422 10.7688 11.7903 10.8743 12.1463 10.8743C12.6237 10.8743 13.0815 10.6847 13.4191 10.3471C13.7566 10.0096 13.9463 9.55172 13.9463 9.07433Z" fill="#3358A4"/>
</svg>
