<svg width="652" height="364" viewBox="0 0 652 364" fill="none" xmlns="http://www.w3.org/2000/svg">
<g clip-path="url(#clip0_4416_4101)">
<path d="M249.176 280.168C178.902 240.91 112.978 255.675 77.888 280.214C76.2945 281.344 73.9641 282.359 71.4968 283.434L71.2093 283.559C68.2339 284.867 65.2259 286.197 62.3999 287.845C6.04441 320.918 -19.8509 381.824 4.67607 423.64C9.10545 431.229 15.0406 437.181 22.2753 441.358C39.113 451.08 60.5316 449.823 83.2072 448.493L83.3003 448.488L83.8825 448.454C98.526 447.611 113.663 446.74 129.299 448.439C131.441 448.841 140.321 452.603 151.895 459.285C161.62 464.899 167.136 469.052 168.318 470.376C178.081 483.105 185.54 496.884 192.751 510.205L192.957 510.586C204.392 531.765 214.272 550.028 231.01 559.692C239.116 564.372 248.191 566.525 258.014 566.044C282.342 564.891 304.29 550.906 319.815 526.662C334.432 503.85 341.671 474.323 340.204 443.518C340.06 440.573 339.586 437.671 339.086 434.796C338.659 432.359 338.265 430.044 338.365 428.512C341.556 383.518 320.508 321.332 251.865 281.701L249.176 280.168Z" fill="#FF9E60"/>
<path d="M95.7223 111C64.6977 93.088 21.8287 111.251 -1.88796 152.33C-25.5958 193.393 -19.8841 239.605 11.133 257.513C42.15 275.421 85.0339 257.265 108.742 216.202C132.458 175.123 126.747 128.912 95.7223 111Z" fill="#FF9E60"/>
<path d="M469.792 326.965C438.775 309.058 395.891 327.213 372.175 368.292C348.467 409.354 354.186 455.571 385.202 473.479C416.219 491.387 459.104 473.231 482.812 432.168C506.529 391.09 500.809 344.873 469.792 326.965Z" fill="#FF9E60"/>
<path d="M291.903 37.5123C253.177 15.1542 197.281 39.243 167.284 91.2004C137.286 143.158 144.38 203.614 183.098 225.968C221.808 248.317 277.703 224.227 307.701 172.27C337.698 120.313 330.605 59.8573 291.903 37.5123Z" fill="#FF9E60"/>
<path d="M441.168 123.688C402.458 101.339 346.555 125.424 316.558 177.38C286.56 229.338 293.654 289.793 332.364 312.143C371.081 334.496 426.977 310.408 456.975 258.45C486.972 206.493 479.878 146.038 441.168 123.688Z" fill="#FF9E60"/>
</g>
<defs>
<clipPath id="clip0_4416_4101">
<path d="M652 0H0V268C0 321.019 42.9807 364 96 364H652V0Z" fill="white"/>
</clipPath>
</defs>
</svg>
