<svg width="42" height="42" viewBox="0 0 42 42" fill="none" xmlns="http://www.w3.org/2000/svg">
<path fill-rule="evenodd" clip-rule="evenodd" d="M15.8075 29.8702C15.8793 32.2229 15.7936 33.7502 16.5608 35.8567C19.1213 42.8871 26.837 43.0085 29.469 40.5484C31.2219 38.9101 30.4794 36.6863 28.4136 36.7499C26.3893 36.8123 25.7984 38.4773 22.8131 37.7722C21.1691 37.3839 19.692 36.2148 18.8751 34.8897C17.3503 32.4164 17.7562 31.6495 17.3742 29.5371C16.3779 28.8736 16.0551 28.7992 15.396 27.704C14.8722 26.8335 14.5912 25.7211 14.7499 24.4641C14.9935 22.5354 16.5746 20.5142 17.6468 19.6314C19.5256 18.0844 21.9197 18.1052 21.5574 15.8201C21.331 14.3922 20.0128 14.9966 18.9831 14.5722C18.0629 14.1931 17.4114 13.1925 17.6693 11.9889C17.9799 11.5991 18.0681 11.7064 18.4226 11.4296C18.7398 11.1819 18.8046 10.8586 19.0077 10.547C19.4343 9.89247 19.9505 9.80767 20.7596 9.40698C20.9229 8.83979 20.8613 8.13303 20.8763 7.50178C24.962 8.64487 25.6085 15.674 25.213 18.7648C24.9019 21.1956 24.237 22.8953 23.4368 24.858C22.6221 26.8563 22.3957 29.8598 25.2677 29.8383C26.5787 29.8285 27.889 29.8342 29.2 29.8317C33.0045 29.8244 32.5665 30.5431 30.6568 22.4225C29.2137 16.2862 27.7539 9.37351 26.1978 3.32311C25.1746 -0.655351 26.1317 0.0485651 21.5666 0.047384C18.2587 0.0465249 19.0023 -0.562255 17.6007 3.97938C16.9784 5.99588 16.3531 8.00127 15.7782 10.0219C14.6235 14.0803 13.3528 18.0503 12.1195 22.0733C8.95238 32.4046 8.69975 29.2682 15.8075 29.8702Z" fill="#2D4190"/>
</svg>
