<svg width="160" height="70" viewBox="0 0 160 70" fill="none" xmlns="http://www.w3.org/2000/svg">
<path fill-rule="evenodd" clip-rule="evenodd" d="M22.4057 55.0959C22.4951 57.9866 22.3883 59.8632 23.3436 62.4515C26.5317 71.0899 36.1386 71.239 39.4159 68.2163C41.5984 66.2032 40.6738 63.4708 38.1017 63.5491C35.5812 63.6257 34.8454 65.6715 31.1284 64.8051C29.0815 64.3281 27.2424 62.8916 26.2252 61.2633C24.3266 58.2243 24.832 57.2821 24.3564 54.6866C23.1159 53.8712 22.7139 53.7798 21.8933 52.4341C21.2411 51.3645 20.8912 49.9977 21.0889 48.4533C21.3922 46.0835 23.3608 43.5999 24.6958 42.5152C27.0352 40.6143 30.0161 40.64 29.565 37.8322C29.2831 36.0777 27.6418 36.8204 26.3596 36.299C25.2139 35.8331 24.4027 34.6036 24.7238 33.1247C25.1105 32.6458 25.2203 32.7777 25.6617 32.4376C26.0567 32.1332 26.1375 31.736 26.3903 31.3531C26.9215 30.5488 27.5642 30.4446 28.5716 29.9523C28.775 29.2554 28.6982 28.387 28.7169 27.6113C33.8041 29.0159 34.6091 37.6528 34.1166 41.4504C33.7292 44.4372 32.9013 46.5257 31.905 48.9372C30.8906 51.3925 30.6088 55.083 34.1847 55.0566C35.817 55.0446 37.4485 55.0516 39.0809 55.0485C43.8179 55.0396 43.2726 55.9227 40.8947 45.9447C39.0979 38.4049 37.2804 29.9112 35.3428 22.477C34.0688 17.5886 35.2605 18.4535 29.5765 18.452C25.4577 18.451 26.3836 17.7029 24.6384 23.2833C23.8635 25.7611 23.085 28.2251 22.3692 30.7078C20.9315 35.6945 19.3493 40.5725 17.8137 45.5157C13.8703 58.2099 13.5557 54.3561 22.4057 55.0959Z" fill="#2D4190"/>
<path fill-rule="evenodd" clip-rule="evenodd" d="M5.95937 42.918C7.47039 42.5305 8.71574 42.9649 11.4368 41.5739C12.9208 40.8153 14.3872 39.5799 15.2806 38.4659C17.2942 35.9555 18.8045 32.0634 18.2194 27.7876C17.6448 23.5892 15.6182 21.0846 12.6687 19.6002C10.9942 18.7575 9.01249 18.4181 6.93834 18.3817C5.7898 18.3615 1.33019 18.5412 0.530302 18.9426C-0.212852 19.3156 0.0425819 20.8831 0.0416718 21.8146L0.0449577 52.5731C0.029827 55.7163 -0.428028 55.0863 4.42436 55.143C6.09946 55.1626 5.91313 54.8187 5.90057 53.2636C5.88361 51.1586 5.76412 44.0833 5.95937 42.918Z" fill="#2D4190"/>
<path fill-rule="evenodd" clip-rule="evenodd" d="M119.252 28.5732L119.257 46.9179C119.265 51.6128 118.81 51.3898 121.825 51.4166C125.157 51.4463 124.372 51.7925 124.364 44.5731C124.363 43.5705 124.156 42.4793 124.698 41.757C125.715 40.3999 131.397 33.0898 131.98 32.7039L131.994 48.711C131.994 51.6826 131.661 51.3884 134.964 51.3864C137.752 51.3848 137.085 51.3804 137.072 47.0558L137.032 26.918C137.03 25.9395 137.133 21.5336 136.753 21.0346C136.612 20.5667 134.44 20.6686 134.265 20.8355C133.706 21.2912 132.321 23.5514 131.778 24.3278L126.808 31.2879C126.383 31.8864 126.091 32.2766 125.591 32.9791C125.382 33.2726 125.161 33.5808 124.951 33.8682C124.608 34.3383 124.651 34.4194 124.175 34.6826L124.147 23.4698C124.146 21.9752 124.253 21.3688 123.662 21.0496C123.071 20.7305 120.67 20.6031 119.749 20.8792C119.125 20.9851 119.311 23.2913 119.286 24.4353C119.256 25.8187 119.253 27.1893 119.252 28.5732Z" fill="#ED731D"/>
<path fill-rule="evenodd" clip-rule="evenodd" d="M98.4912 32.2973L98.434 46.9179C98.4402 51.9671 97.5517 51.4408 102.397 51.3813C104.027 51.3613 103.569 50.47 103.571 47.1937L103.571 37.8696C104.476 37.7146 108.454 37.7153 109.314 37.8934L109.362 48.4351C109.366 49.2992 109.091 50.6896 109.66 51.1857L109.861 51.2872C109.888 51.2954 109.936 51.3183 109.971 51.3268L113.024 51.3919C113.159 51.3924 113.462 51.3954 113.584 51.3811C115.009 51.2146 114.557 49.7988 114.554 46.9179L114.604 23.1939C114.599 22.2181 114.644 21.0571 114.167 20.9673C113.615 20.8291 110.179 20.6427 109.761 21.0669C109.407 21.2062 109.553 29.5897 109.54 30.3663L109.461 32.2422C108.694 32.6141 104.437 32.3912 103.653 32.3003L103.66 22.9177C103.663 21.7807 103.827 20.9748 103.228 20.9048C97.4302 20.635 98.4744 20.326 98.4957 25.1249C98.5063 27.5164 98.4937 29.9061 98.4912 32.2973Z" fill="#ED731D"/>
<path fill-rule="evenodd" clip-rule="evenodd" d="M77.326 33.4853C73.9298 33.7374 73.5383 32.711 73.9281 38.0931C74.024 39.4183 75.8251 38.9459 77.1981 39.0786C77.3232 41.0633 77.1759 43.2 77.2739 45.1991C77.3462 46.6727 76.9482 50.2742 77.6706 51.1936C78.25 51.6538 93.1552 51.5195 94.0871 51.1331C94.7936 50.8402 94.5806 49.6847 94.5778 48.8488C94.5747 47.8905 94.7753 46.75 94.1808 46.3327C93.857 46.1653 84.1675 46.074 82.5989 45.9083C82.4484 44.7384 82.3927 39.9153 82.6207 38.9968C83.5005 38.7292 85.8297 38.5848 87.0007 38.4672C92.1873 37.9464 91.4115 38.6776 91.3772 34.6332C91.3644 33.1252 90.7756 33.35 89.3994 33.3273C88.1835 33.3072 83.4411 33.3625 82.6895 33.1529C82.3631 32.4821 82.5199 27.2737 82.589 26.1194C84.2933 25.9366 86.0934 25.8811 87.861 25.8836C93.4798 25.8914 93.556 26.937 93.5094 23.7455C93.4976 22.9356 93.5407 22.1011 93.3962 21.3039C93.3301 20.4766 82.008 20.7327 79.3369 20.8707C76.8325 21 77.3723 20.9799 77.3812 26.2283C77.3847 28.2042 77.583 31.6841 77.326 33.4853Z" fill="#ED731D"/>
<path fill-rule="evenodd" clip-rule="evenodd" d="M149.387 20.544C139.101 22.5014 137.015 37.4669 140.577 44.9678C142.225 48.438 146.168 52.5207 151.982 51.429C154.33 50.988 156.483 49.4213 157.709 47.984C158.456 47.1082 158.945 46.4566 159.519 45.2189C160.581 42.9281 159.881 43.1807 157.46 41.4063C155.652 40.0813 156.228 41.1133 154.089 43.7238C153.481 44.4664 152.59 45.4628 151.577 45.786C150.168 46.2359 148.839 45.9764 147.776 45.3047C144.103 42.9834 143.735 35.9316 145.325 31.35C146.911 26.7822 150.212 24.0641 154.382 27.3489C155.971 28.6011 155.821 27.5609 157.758 24.8643C158.513 23.8126 158.019 23.4281 156.517 22.3359C154.867 21.1372 152.204 20.0078 149.387 20.544Z" fill="#ED731D"/>
<path d="M56.0134 21.5674C57.1206 21.4519 67.2957 21.2547 68.5613 21.5411C69.3823 21.7269 69.2315 22.4095 69.2361 23.3301C69.2768 31.5453 69.5257 39.2648 69.6462 47.3838C70.422 47.4364 72.0594 47.3248 72.575 47.7901C73.0989 48.2488 72.9945 54.8001 72.655 55.4874C71.9437 55.7122 69.3984 55.6862 68.4841 55.5499C67.9722 54.794 68.1882 53.6012 68.1472 52.4395L51.5662 52.3204C51.4014 55.6527 52.306 55.5926 49.2839 55.6075C48.5723 55.611 47.7527 55.6354 47.0984 55.4874L47.0964 47.6329C47.3422 46.7853 48.6664 47.7578 50.03 46.1319C54.1225 41.2522 55.2512 31.646 55.5681 25.4004C55.6398 23.988 55.4384 22.5553 56.0134 21.5674ZM60.28 26.417C59.6909 31.5262 59.9384 32.6669 58.6648 38.1016C57.4082 43.4635 54.7449 46.7674 54.6062 47.4307L64.366 47.4727L63.822 26.4512L60.28 26.417Z" fill="#ED731D"/>
<path fill-rule="evenodd" clip-rule="evenodd" d="M5.89929 37.4583C13.8497 37.5405 15.1047 23.5433 5.90262 23.9437L5.89929 37.4583Z" fill="#FEFEFE"/>
<path d="M20.6575 2.33011H23.1478C23.7586 2.33011 24.2136 2.38067 24.5129 2.48181C24.8101 2.58294 25.0663 2.767 25.2794 3.03602C25.4946 3.30705 25.6012 3.62865 25.6012 4.00486C25.6012 4.30625 25.5377 4.56918 25.4127 4.79168C25.2856 5.01619 25.097 5.2043 24.8429 5.35398C25.1421 5.45309 25.3901 5.63715 25.5889 5.90819C25.7857 6.1772 25.8841 6.49881 25.8841 6.86895C25.8451 7.46563 25.6279 7.9086 25.2364 8.19581C24.8449 8.48506 24.2751 8.62866 23.529 8.62866H20.6575V2.33011ZM21.7397 4.98788H22.8875C23.3446 4.98788 23.6602 4.96361 23.8303 4.91708C24.0025 4.86854 24.1562 4.77348 24.2915 4.62785C24.4268 4.48423 24.4944 4.31029 24.4944 4.10802C24.4944 3.77428 24.3755 3.5437 24.1398 3.41222C23.9021 3.28075 23.4962 3.21603 22.9223 3.21603H21.7397V4.98788ZM21.7397 7.75488H23.1601C23.7709 7.75488 24.1911 7.68408 24.4186 7.54452C24.6461 7.40293 24.765 7.16224 24.7773 6.81636C24.7773 6.61612 24.7117 6.42801 24.5805 6.25609C24.4473 6.08416 24.2751 5.97493 24.064 5.93043C23.8529 5.88392 23.5126 5.86166 23.0453 5.86166H21.7397V7.75488ZM31.4079 6.58982L32.527 6.73546C32.3528 7.37664 32.0269 7.87624 31.5514 8.2302C31.0759 8.58417 30.4692 8.76216 29.7292 8.76216C28.7987 8.76216 28.0608 8.47899 27.5156 7.91265C26.9704 7.34832 26.6978 6.55341 26.6978 5.53197C26.6978 4.47614 26.9725 3.65494 27.5238 3.07242C28.0752 2.48787 28.7905 2.19661 29.6698 2.19661C30.5204 2.19661 31.2152 2.4818 31.7543 3.05421C32.2933 3.62663 32.5639 4.43165 32.5639 5.46927C32.5639 5.53197 32.5618 5.62704 32.5578 5.75244H27.8046C27.8456 6.44217 28.0424 6.97211 28.399 7.33821C28.7536 7.70431 29.1984 7.88837 29.7292 7.88837C30.1248 7.88837 30.463 7.78521 30.7418 7.5789C31.0226 7.37259 31.2439 7.0429 31.4079 6.58982ZM27.8661 4.87866H31.4202C31.373 4.34871 31.2357 3.95228 31.0123 3.68731C30.67 3.27671 30.2232 3.07039 29.6759 3.07039C29.1799 3.07039 28.7638 3.23423 28.4257 3.5619C28.0895 3.88957 27.903 4.32849 27.8661 4.87866ZM32.9205 2.33011H38.0857V3.21603H36.0442V8.62866H34.962V3.21603H32.9205V2.33011ZM43.3348 6.58982L44.4539 6.73546C44.2797 7.37664 43.9538 7.87624 43.4783 8.2302C43.0028 8.58417 42.3961 8.76216 41.6562 8.76216C40.7256 8.76216 39.9877 8.47899 39.4425 7.91265C38.8973 7.34832 38.6247 6.55341 38.6247 5.53197C38.6247 4.47614 38.8994 3.65494 39.4507 3.07242C40.0021 2.48787 40.7174 2.19661 41.5967 2.19661C42.4473 2.19661 43.1422 2.4818 43.6812 3.05421C44.2203 3.62663 44.4908 4.43165 44.4908 5.46927C44.4908 5.53197 44.4888 5.62704 44.4847 5.75244H39.7315C39.7725 6.44217 39.9693 6.97211 40.3259 7.33821C40.6805 7.70431 41.1253 7.88837 41.6562 7.88837C42.0517 7.88837 42.3899 7.78521 42.6687 7.5789C42.9495 7.37259 43.1708 7.0429 43.3348 6.58982ZM39.793 4.87866H43.3471C43.3 4.34871 43.1627 3.95228 42.9392 3.68731C42.5969 3.27671 42.1501 3.07039 41.6029 3.07039C41.1069 3.07039 40.6908 3.23423 40.3526 3.5619C40.0164 3.88957 39.8299 4.32849 39.793 4.87866ZM45.821 11.0437V2.33011H46.8049V3.15737C47.0365 2.83779 47.2988 2.59709 47.5919 2.43731C47.883 2.27751 48.2376 2.19661 48.6537 2.19661C49.1989 2.19661 49.6785 2.33415 50.0946 2.61125C50.5106 2.88634 50.8242 3.27671 51.0374 3.77833C51.2485 4.28197 51.3551 4.83213 51.3551 5.43286C51.3551 6.07404 51.2383 6.65252 51.0046 7.1683C50.771 7.68206 50.4307 8.07648 49.9839 8.35156C49.5391 8.62461 49.0697 8.76216 48.5778 8.76216C48.2171 8.76216 47.8932 8.68732 47.6083 8.53764C47.3214 8.38796 47.0877 8.19986 46.9033 7.9713V11.0437H45.821ZM46.8049 5.51781C46.8049 6.32485 46.9709 6.92154 47.3009 7.30787C47.6329 7.6942 48.0347 7.88837 48.5061 7.88837C48.9857 7.88837 49.3956 7.68813 49.7359 7.28764C50.0782 6.88715 50.2483 6.26822 50.2483 5.42882C50.2483 4.62785 50.0823 4.02914 49.7482 3.63067C49.4141 3.23221 49.0165 3.03399 48.5532 3.03399C48.0941 3.03399 47.6883 3.24637 47.3357 3.6691C46.9812 4.09386 46.8049 4.70875 46.8049 5.51781ZM52.6607 2.33011H53.7429V7.13392L56.7498 2.33011H57.9119V8.62866H56.8297V3.85519L53.827 8.62866H52.6607V2.33011ZM59.5312 2.33011H60.6134V4.95147H63.6141V2.33011H64.6963V8.62866H63.6141V5.83739H60.6134V8.62866H59.5312V2.33011ZM70.4907 7.83983C70.0889 8.17761 69.7015 8.41426 69.3306 8.55383C68.9596 8.69339 68.5619 8.76216 68.1356 8.76216C67.4346 8.76216 66.8956 8.59428 66.5184 8.2565C66.1413 7.92074 65.9527 7.4899 65.9527 6.96604C65.9527 6.65859 66.0245 6.37745 66.1659 6.12259C66.3094 5.86773 66.4959 5.66547 66.7254 5.51174C66.9571 5.35802 67.2153 5.24071 67.5043 5.16183C67.7175 5.10722 68.0393 5.05462 68.4676 5.00204C69.3408 4.90091 69.9864 4.77752 70.3984 4.63594C70.4025 4.4903 70.4046 4.39726 70.4046 4.35883C70.4046 3.92598 70.3021 3.62056 70.0971 3.44257C69.8204 3.20187 69.4084 3.08253 68.8632 3.08253C68.3529 3.08253 67.9757 3.17153 67.7339 3.3475C67.49 3.52348 67.3116 3.83497 67.1948 4.28399L66.1372 4.13836C66.2335 3.69135 66.3913 3.3293 66.6127 3.05421C66.8341 2.77914 67.1538 2.56878 67.572 2.4191C67.988 2.27145 68.4738 2.19661 69.0231 2.19661C69.5683 2.19661 70.0131 2.25931 70.3554 2.38674C70.6956 2.51417 70.9477 2.67194 71.1076 2.86409C71.2675 3.05624 71.3802 3.29896 71.4458 3.59225C71.4806 3.77428 71.4991 4.10195 71.4991 4.57323V5.98909C71.4991 6.97817 71.5216 7.60317 71.5667 7.86814C71.6098 8.13312 71.7 8.38594 71.8311 8.62866H70.6997C70.5911 8.40415 70.5214 8.1412 70.4907 7.83983ZM70.4046 5.47332C70.011 5.63108 69.4207 5.76458 68.6337 5.8738C68.1868 5.9365 67.8712 6.0073 67.6867 6.08618C67.5023 6.16507 67.3608 6.28036 67.2604 6.43003C67.16 6.58173 67.1087 6.74962 67.1087 6.9357C67.1087 7.21685 67.2174 7.4535 67.4367 7.64161C67.656 7.82971 67.9757 7.92478 68.3959 7.92478C68.812 7.92478 69.183 7.83578 69.5089 7.65576C69.8327 7.47777 70.0725 7.23303 70.2242 6.92356C70.341 6.68286 70.3984 6.3289 70.3984 5.86166L70.4046 5.47332ZM73.1613 11.0437V2.33011H74.1452V3.15737C74.3768 2.83779 74.6391 2.59709 74.9322 2.43731C75.2233 2.27751 75.5779 2.19661 75.994 2.19661C76.5392 2.19661 77.0188 2.33415 77.4349 2.61125C77.8509 2.88634 78.1646 3.27671 78.3777 3.77833C78.5888 4.28197 78.6954 4.83213 78.6954 5.43286C78.6954 6.07404 78.5786 6.65252 78.3449 7.1683C78.1113 7.68206 77.771 8.07648 77.3242 8.35156C76.8794 8.62461 76.41 8.76216 75.9181 8.76216C75.5574 8.76216 75.2336 8.68732 74.9486 8.53764C74.6617 8.38796 74.428 8.19986 74.2436 7.9713V11.0437H73.1613ZM74.1452 5.51781C74.1452 6.32485 74.3112 6.92154 74.6412 7.30787C74.9732 7.6942 75.375 7.88837 75.8464 7.88837C76.326 7.88837 76.7359 7.68813 77.0762 7.28764C77.4185 6.88715 77.5886 6.26822 77.5886 5.42882C77.5886 4.62785 77.4226 4.02914 77.0885 3.63067C76.7544 3.23221 76.3568 3.03399 75.8935 3.03399C75.4344 3.03399 75.0286 3.24637 74.676 3.6691C74.3215 4.09386 74.1452 4.70875 74.1452 5.51781ZM80.001 2.33011H81.0833V4.95147H84.0839V2.33011H85.1662V8.62866H84.0839V5.83739H81.0833V8.62866H80.001V2.33011ZM92.8667 2.33011H93.9489V8.62866H92.8667V2.33011ZM86.8284 2.33011H87.9106V4.79371H89.2757C90.1673 4.79371 90.8519 4.96361 91.3336 5.30543C91.8152 5.64726 92.055 6.11854 92.055 6.71928C92.055 7.24516 91.8542 7.69419 91.4524 8.06839C91.0507 8.44258 90.4092 8.62866 89.5258 8.62866H86.8284V2.33011ZM87.9106 7.75488H89.0462C89.7287 7.75488 90.2186 7.67195 90.5096 7.50609C90.8027 7.34023 90.9482 7.08133 90.9482 6.72939C90.9482 6.45633 90.8396 6.21361 90.6244 5.99921C90.4071 5.78683 89.9296 5.67963 89.1896 5.67963H87.9106V7.75488ZM95.6317 2.33011H96.7139V7.13392L99.7207 2.33011H100.883V8.62866H99.8007V3.85519L96.7979 8.62866H95.6317V2.33011ZM99.3702 0H100.108C100.049 0.499597 99.8642 0.883904 99.5568 1.1509C99.2493 1.41991 98.8414 1.55341 98.3311 1.55341C97.8187 1.55341 97.4087 1.41991 97.1033 1.15494C96.7979 0.88795 96.6135 0.503645 96.554 0H97.2919C97.3472 0.273064 97.46 0.477349 97.626 0.610846C97.792 0.746364 98.0175 0.813111 98.2983 0.813111C98.6242 0.813111 98.8701 0.748386 99.0362 0.616916C99.2022 0.487467 99.3149 0.281154 99.3702 0ZM105.931 2.33011H107.013V7.75488H110.014V2.33011H111.096V7.75488H111.797V10.4126H110.912V8.62866H105.931V2.33011ZM117.18 6.58982L118.299 6.73546C118.125 7.37664 117.799 7.87624 117.323 8.2302C116.848 8.58417 116.241 8.76216 115.501 8.76216C114.57 8.76216 113.833 8.47899 113.287 7.91265C112.742 7.34832 112.47 6.55341 112.47 5.53197C112.47 4.47614 112.744 3.65494 113.296 3.07242C113.847 2.48787 114.562 2.19661 115.442 2.19661C116.292 2.19661 116.987 2.4818 117.526 3.05421C118.065 3.62663 118.336 4.43165 118.336 5.46927C118.336 5.53197 118.334 5.62704 118.33 5.75244H113.576C113.617 6.44217 113.814 6.97211 114.171 7.33821C114.525 7.70431 114.97 7.88837 115.501 7.88837C115.897 7.88837 116.235 7.78521 116.514 7.5789C116.794 7.37259 117.016 7.0429 117.18 6.58982ZM113.638 4.87866H117.192C117.145 4.34871 117.008 3.95228 116.784 3.68731C116.442 3.27671 115.995 3.07039 115.448 3.07039C114.952 3.07039 114.536 3.23423 114.197 3.5619C113.861 3.88957 113.675 4.32849 113.638 4.87866ZM119.666 2.33011H120.748V4.95147H123.749V2.33011H124.831V8.62866H123.749V5.83739H120.748V8.62866H119.666V2.33011ZM125.891 2.33011H131.056V3.21603H129.014V8.62866H127.932V3.21603H125.891V2.33011ZM132.089 11.0437V2.33011H133.073V3.15737C133.304 2.83779 133.567 2.59709 133.86 2.43731C134.151 2.27751 134.505 2.19661 134.921 2.19661C135.467 2.19661 135.946 2.33415 136.362 2.61125C136.778 2.88634 137.092 3.27671 137.305 3.77833C137.516 4.28197 137.623 4.83213 137.623 5.43286C137.623 6.07404 137.506 6.65252 137.272 7.1683C137.039 7.68206 136.699 8.07648 136.252 8.35156C135.807 8.62461 135.338 8.76216 134.846 8.76216C134.485 8.76216 134.161 8.68732 133.876 8.53764C133.589 8.38796 133.356 8.19986 133.171 7.9713V11.0437H132.089ZM133.073 5.51781C133.073 6.32485 133.239 6.92154 133.569 7.30787C133.901 7.6942 134.302 7.88837 134.774 7.88837C135.254 7.88837 135.663 7.68813 136.004 7.28764C136.346 6.88715 136.516 6.26822 136.516 5.42882C136.516 4.62785 136.35 4.02914 136.016 3.63067C135.682 3.23221 135.284 3.03399 134.821 3.03399C134.362 3.03399 133.956 3.24637 133.604 3.6691C133.249 4.09386 133.073 4.70875 133.073 5.51781Z" fill="#2D4190"/>
</svg>
