<svg width="46" height="46" viewBox="0 0 46 46" fill="none" xmlns="http://www.w3.org/2000/svg">
<circle cx="23" cy="23" r="23" fill="url(#paint0_linear_4416_6094)"/>
<path fill-rule="evenodd" clip-rule="evenodd" d="M23.1884 31.7116C21.4687 31.7116 20.6695 31.4594 19.2803 30.4508C18.4016 31.5855 15.6191 32.4723 15.4977 30.9551C15.4977 29.8163 15.2467 28.8539 14.9622 27.8033C14.6232 26.509 14.2383 25.0675 14.2383 22.9789C14.2383 17.9906 18.3138 14.2378 23.1424 14.2378C27.9752 14.2378 31.762 18.1755 31.762 23.0251C31.7782 27.7998 27.9424 31.6861 23.1884 31.7116ZM23.2596 18.5495C20.908 18.4276 19.0753 20.0624 18.6694 22.6259C18.3347 24.7481 18.9289 27.3326 19.4352 27.4671C19.6778 27.526 20.2887 27.0301 20.6695 26.6476C21.2991 27.0845 22.0323 27.3469 22.7951 27.4083C25.2317 27.526 27.3137 25.663 27.4773 23.2185C27.5726 20.7688 25.6965 18.6939 23.2596 18.5537V18.5495Z" fill="white"/>
<defs>
<linearGradient id="paint0_linear_4416_6094" x1="5.42096" y1="34.9847" x2="46" y2="23" gradientUnits="userSpaceOnUse">
<stop stop-color="#44CCFF"/>
<stop offset="0.662" stop-color="#5533EE"/>
<stop offset="1" stop-color="#9933DD"/>
</linearGradient>
</defs>
</svg>
