<svg width="88" height="30" viewBox="0 0 88 30" fill="none" xmlns="http://www.w3.org/2000/svg">
<g clip-path="url(#clip0_4416_4415)">
<path fill-rule="evenodd" clip-rule="evenodd" d="M9.03386 -0.90625C8.73928 -0.903977 8.36972 -0.900022 7.86751 -0.893704C7.06592 -0.87184 6.45779 -0.82175 5.86181 -0.712386C5.13563 -0.579341 4.47819 -0.36034 3.8496 -0.0332496C3.21081 0.298387 2.62583 0.732342 2.11829 1.25121C1.61132 1.76839 1.18589 2.36639 0.859584 3.02075C0.538868 3.66416 0.324104 4.33721 0.192632 5.08243C0.0852718 5.69243 0.0365633 6.31239 0.0152673 7.12284L0.00796349 7.46048C0.00602749 7.57639 0.00453127 7.69634 0.00347527 7.82261L0 8.55602L4.36401e-05 20.5511L0.00219963 21.0742C0.00387163 21.4073 0.00787533 21.6938 0.0152673 21.9692C0.0366073 22.779 0.0853153 23.3992 0.192587 24.0082C0.324147 24.754 0.538955 25.4275 0.859539 26.0706C1.18598 26.7246 1.61124 27.3224 2.11864 27.8406C2.62667 28.3594 3.21169 28.7935 3.85035 29.1251C4.47819 29.4518 5.13564 29.6708 5.86208 29.8038C6.40363 29.9033 6.95543 29.9537 7.64408 29.9783L8.16015 29.9913C8.42851 29.9952 8.82512 29.9973 9.61695 29.9998L20.8456 29.998C21.1433 29.9959 21.503 29.9921 22.0524 29.9852C22.854 29.9632 23.4622 29.9132 24.0581 29.8038C24.7843 29.6708 25.4418 29.4518 26.0704 29.1247C26.7085 28.7931 27.2938 28.3589 27.8013 27.8406C28.309 27.3221 28.7343 26.724 29.06 26.0704C29.381 25.4276 29.5959 24.7537 29.7269 24.0078C29.8245 23.4538 29.874 22.8888 29.8982 22.1843L29.9047 21.9686C29.9091 21.8038 29.9123 21.6346 29.9145 21.454L29.9197 20.0322L29.9189 8.2738L29.9145 7.63748C29.9123 7.4568 29.9091 7.28748 29.9046 7.12225C29.8834 6.3157 29.8343 5.69325 29.7269 5.08284C29.596 4.33752 29.381 3.66402 29.0596 3.0203C28.7344 2.36698 28.3089 1.7687 27.8009 1.25048C27.2946 0.732841 26.7094 0.298796 26.0699 -0.0334767C25.4418 -0.36034 24.7843 -0.57934 24.0579 -0.712431C23.5163 -0.811795 22.9645 -0.862249 22.2759 -0.88684L21.6832 -0.900841C21.636 -0.901432 21.5849 -0.901977 21.5288 -0.902477L9.03386 -0.90625Z" fill="#1A1A1A" fill-opacity="0.01"/>
<path fill-rule="evenodd" clip-rule="evenodd" d="M7.87937 0.0147254L9.08387 0.00195312L21.6165 0.00695211C21.8065 0.00895211 21.9247 0.0114072 22.0428 0.0147254C22.6642 0.0317709 23.2909 0.0693624 23.9054 0.182135C24.5291 0.296408 25.1092 0.483362 25.6756 0.77809C26.2321 1.06727 26.742 1.44518 27.1838 1.89682C27.6255 2.34736 27.9955 2.86763 28.2787 3.4365C28.5677 4.01541 28.7503 4.60786 28.8622 5.24491C28.9727 5.87241 29.0094 6.51245 29.0261 7.147C29.034 7.43818 29.0374 7.72941 29.0389 8.02109L29.0406 8.53968L29.0409 20.0317C29.0409 20.3775 29.0409 20.7234 29.0389 21.0697C29.0374 21.3609 29.034 21.6521 29.0261 21.9433C29.0094 22.5774 28.9727 23.2179 28.8622 23.8449C28.7503 24.482 28.5677 25.0749 28.2787 25.6538C27.9955 26.2222 27.6255 26.7425 27.1838 27.1935C26.742 27.6446 26.2321 28.023 25.6756 28.3122C25.1092 28.607 24.5291 28.7939 23.9054 28.9082C23.2909 29.021 22.6642 29.0585 22.0428 29.0756L20.171 29.0906L8.30538 29.0834C8.11534 29.0814 7.99738 29.0789 7.87937 29.0756C7.25804 29.0585 6.63131 29.021 6.01685 28.9082C5.3931 28.7939 4.81301 28.607 4.24664 28.3122C3.6896 28.023 3.18017 27.6446 2.73845 27.1935C2.29678 26.7425 1.9267 26.2222 1.64303 25.6538C1.35448 25.0749 1.17187 24.482 1.0595 23.8449C0.949059 23.2179 0.912759 22.5774 0.896083 21.9433C0.888207 21.6521 0.884775 21.3609 0.883323 21.0697L0.881168 20.5505L0.880859 9.05863C0.880859 8.71277 0.880859 8.36645 0.883323 8.02109C0.884775 7.72941 0.888207 7.43818 0.896083 7.147C0.912759 6.51245 0.949059 5.87241 1.0595 5.24491C1.17187 4.60786 1.35448 4.01541 1.64303 3.4365C1.9267 2.86763 2.29678 2.34736 2.73845 1.89682C3.18017 1.44518 3.6896 1.06727 4.24664 0.77809C4.81301 0.483362 5.3931 0.296408 6.01685 0.182135C6.63131 0.0693624 7.25804 0.0317709 7.87937 0.0147254Z" fill="#1A1A1A" fill-opacity="0.01"/>
<mask id="mask0_4416_4415" style="mask-type:alpha" maskUnits="userSpaceOnUse" x="0" y="0" width="30" height="30">
<path fill-rule="evenodd" clip-rule="evenodd" d="M7.87937 0.0147254L9.08387 0.00195312L21.6165 0.00695211C21.8065 0.00895211 21.9247 0.0114072 22.0428 0.0147254C22.6642 0.0317709 23.2909 0.0693624 23.9054 0.182135C24.5291 0.296408 25.1092 0.483362 25.6756 0.77809C26.2321 1.06727 26.742 1.44518 27.1838 1.89682C27.6255 2.34736 27.9955 2.86763 28.2787 3.4365C28.5677 4.01541 28.7503 4.60786 28.8622 5.24491C28.9727 5.87241 29.0094 6.51245 29.0261 7.147C29.034 7.43818 29.0374 7.72941 29.0389 8.02109L29.0406 8.53968L29.0409 20.0317C29.0409 20.3775 29.0409 20.7234 29.0389 21.0697C29.0374 21.3609 29.034 21.6521 29.0261 21.9433C29.0094 22.5774 28.9727 23.2179 28.8622 23.8449C28.7503 24.482 28.5677 25.0749 28.2787 25.6538C27.9955 26.2222 27.6255 26.7425 27.1838 27.1935C26.742 27.6446 26.2321 28.023 25.6756 28.3122C25.1092 28.607 24.5291 28.7939 23.9054 28.9082C23.2909 29.021 22.6642 29.0585 22.0428 29.0756L20.171 29.0906L8.30538 29.0834C8.11534 29.0814 7.99738 29.0789 7.87937 29.0756C7.25804 29.0585 6.63131 29.021 6.01685 28.9082C5.3931 28.7939 4.81301 28.607 4.24664 28.3122C3.6896 28.023 3.18017 27.6446 2.73845 27.1935C2.29678 26.7425 1.9267 26.2222 1.64303 25.6538C1.35448 25.0749 1.17187 24.482 1.0595 23.8449C0.949059 23.2179 0.912759 22.5774 0.896083 21.9433C0.888207 21.6521 0.884775 21.3609 0.883323 21.0697L0.881168 20.5505L0.880859 9.05863C0.880859 8.71277 0.880859 8.36645 0.883323 8.02109C0.884775 7.72941 0.888207 7.43818 0.896083 7.147C0.912759 6.51245 0.949059 5.87241 1.0595 5.24491C1.17187 4.60786 1.35448 4.01541 1.64303 3.4365C1.9267 2.86763 2.29678 2.34736 2.73845 1.89682C3.18017 1.44518 3.6896 1.06727 4.24664 0.77809C4.81301 0.483362 5.3931 0.296408 6.01685 0.182135C6.63131 0.0693624 7.25804 0.0317709 7.87937 0.0147254Z" fill="white"/>
</mask>
<g mask="url(#mask0_4416_4415)">
<path d="M29.0409 0H0.880859V29.0909H29.0409V0Z" fill="#19AA1E"/>
<path fill-rule="evenodd" clip-rule="evenodd" d="M0.880859 0H29.0409V9.54545L0.880859 5V0Z" fill="#FFB919"/>
<path fill-rule="evenodd" clip-rule="evenodd" d="M0.880859 25.9087L29.0409 21.3633V29.0906H0.880859V25.9087Z" fill="#82D714"/>
<path fill-rule="evenodd" clip-rule="evenodd" d="M0.880859 4.4248L10.7103 6.01139C11.9339 5.21126 13.3896 4.77258 14.9609 4.77258C17.1371 4.77258 19.0917 5.61417 20.5149 7.09199C20.6945 7.27849 20.8639 7.47349 21.0228 7.67599L29.0409 8.97021V10.1203L21.837 8.95758C22.3721 10.0186 22.6609 11.2007 22.6609 12.4071C22.6609 13.9657 22.3234 15.5197 21.6258 17.0798L21.6046 17.1271L21.3083 17.7829H20.6078C19.1612 17.7829 18.2016 18.2299 17.5742 19.0222C17.0816 19.6442 16.7968 20.4828 16.7009 21.3977L16.698 21.4263L16.684 21.5725L16.678 21.6361L16.6667 21.7605C16.63 22.169 16.6054 22.5154 16.593 22.7977L29.0409 20.7884V21.9385L0.880859 26.484V25.3339L13.3428 23.3223L13.3373 23.0641L13.3356 22.9913L13.3346 22.9539L13.3327 22.8963C13.3214 22.5832 13.2937 22.1819 13.2492 21.6954L13.2406 21.6032L13.2254 21.4435C13.136 20.5237 12.8554 19.6745 12.3641 19.0433C11.7433 18.2456 10.7925 17.792 9.35755 17.783L9.31394 17.7829H8.61337L8.31712 17.1271C7.60516 15.551 7.26086 13.9814 7.26086 12.4071C7.26086 10.4274 8.03834 8.51294 9.40678 7.09199C9.4463 7.05099 9.4862 7.01044 9.52651 6.97044L0.880859 5.57489V4.4248Z" fill="white"/>
<path fill-rule="evenodd" clip-rule="evenodd" d="M14.9613 5.90918C18.8927 5.90918 21.5613 9.03523 21.5613 12.4074C21.5613 13.7612 21.2754 15.1699 20.6082 16.6468C16.7398 16.6468 15.7849 19.5088 15.6043 21.3095L15.5928 21.4295C15.5316 22.0722 15.4962 22.5879 15.4866 22.9766L14.4387 23.1457L14.4385 23.1107C14.4345 22.7032 14.3972 22.1316 14.3267 21.3958L14.3235 21.3637C14.1568 19.5669 13.222 16.6468 9.31441 16.6468C8.64724 15.1699 8.36133 13.7612 8.36133 12.4074C8.36133 9.03523 11.0299 5.90918 14.9613 5.90918Z" fill="#0073FA"/>
</g>
<path fill-rule="evenodd" clip-rule="evenodd" d="M42.0642 7.0459C38.6322 7.0459 36.0582 9.20499 36.0802 12.955H39.2702C39.2262 11.455 40.1502 10.0004 42.0642 10.0004C43.5162 10.0004 44.4402 11.0004 44.4402 12.2732C44.4402 13.5914 43.4282 14.3186 41.8002 15.1368C39.6662 16.205 38.3902 16.705 36.0802 17.5004V21.8186H47.9602V18.8641H40.3922C41.4949 18.3892 42.5685 17.8678 43.5382 17.3868C46.1122 16.1141 47.6302 14.6823 47.6302 12.1141C47.6302 9.02317 45.3862 7.0459 42.0642 7.0459ZM52.8002 10.2277H58.9602V7.27317H49.7202V21.8186H52.8002V10.2277ZM63.8002 7.27317H60.7202V21.8186H63.7782L69.5202 12.5232V21.8186H72.6002V7.27317H69.5202L63.8002 16.5686V7.27317ZM88.0662 16.3641H84.8762C84.3922 17.9777 82.9182 19.0914 81.1802 19.0914C78.6502 19.0914 77.0002 16.8414 77.0002 14.5459C77.0002 12.2504 78.6062 10.0004 81.2682 10.0004C83.0282 10.0004 84.3922 11.1141 84.8762 12.7277H88.0662C87.6042 9.47772 85.1182 7.0459 81.1802 7.0459C76.8242 7.0459 73.9202 10.205 73.9202 14.5459C73.9202 18.8868 76.8242 22.0459 81.1802 22.0459C85.1182 22.0459 87.6042 19.6595 88.0662 16.3641Z" fill="#1A1A1A"/>
</g>
<defs>
<clipPath id="clip0_4416_4415">
<rect width="88" height="30" fill="white"/>
</clipPath>
</defs>
</svg>
