<svg width="172" height="26" viewBox="0 0 172 26" fill="none" xmlns="http://www.w3.org/2000/svg">
<path d="M9.63216 8.4244H3.06723V19.453H0V5.60059H12.6994V19.453H9.63216V8.4244Z" fill="#FF4A37"/>
<path d="M15.6836 5.60092H18.7508V7.11936C19.3786 6.5333 20.0512 6.08043 20.7687 5.76075C21.4862 5.44108 22.2934 5.28125 23.1902 5.28125C24.1947 5.28125 25.1185 5.46773 25.9616 5.84067C26.8226 6.19586 27.5579 6.70201 28.1678 7.35912C28.7776 7.99846 29.253 8.76216 29.5938 9.65006C29.9346 10.5203 30.105 11.4705 30.105 12.5005C30.105 13.5661 29.9167 14.5429 29.54 15.4308C29.1813 16.301 28.6879 17.0558 28.0601 17.6952C27.4324 18.3168 26.6791 18.8052 25.8001 19.1604C24.9392 19.5155 24.0154 19.6931 23.0288 19.6931C22.1499 19.6931 21.3607 19.56 20.6611 19.2935C19.9616 19.0271 19.3248 18.6542 18.7508 18.1747V24.7812H15.6836V5.60092ZM22.5715 16.8694C23.1813 16.8694 23.7463 16.7717 24.2665 16.5763C24.8046 16.381 25.271 16.0968 25.6656 15.7239C26.0602 15.3332 26.3651 14.8714 26.5804 14.3386C26.8135 13.788 26.9302 13.1665 26.9302 12.4739C26.9302 11.8345 26.8315 11.2485 26.6342 10.7157C26.4369 10.1651 26.1499 9.70336 25.7732 9.33042C25.4145 8.93969 24.984 8.63777 24.4817 8.42473C23.9795 8.21161 23.4234 8.10502 22.8136 8.10502C21.8808 8.10502 21.0557 8.32699 20.3382 8.77102C19.6387 9.21497 19.1096 9.74781 18.7508 10.3694V14.5784C19.1096 15.3243 19.6208 15.8926 20.2844 16.2833C20.9481 16.674 21.7105 16.8694 22.5715 16.8694Z" fill="#FF4A37"/>
<path d="M31.6992 12.5005C31.6992 11.4527 31.8786 10.4937 32.2373 9.62349C32.5961 8.73551 33.1073 7.97182 33.771 7.33248C34.4347 6.69313 35.2239 6.19587 36.1387 5.84067C37.0535 5.46773 38.0669 5.28125 39.179 5.28125C40.2732 5.28125 41.2777 5.46773 42.1924 5.84067C43.1252 6.19587 43.9233 6.69313 44.587 7.33248C45.2507 7.97182 45.7619 8.73551 46.1207 9.62349C46.4974 10.4937 46.6857 11.4527 46.6857 12.5005C46.6857 13.5484 46.4974 14.5162 46.1207 15.4042C45.7619 16.2745 45.2507 17.0292 44.587 17.6685C43.9233 18.3079 43.1252 18.8052 42.1924 19.1604C41.2777 19.5155 40.2732 19.6931 39.179 19.6931C38.0848 19.6931 37.0804 19.5155 36.1656 19.1604C35.2508 18.8052 34.4615 18.3079 33.7979 17.6685C33.1342 17.0292 32.614 16.2745 32.2373 15.4042C31.8786 14.5162 31.6992 13.5484 31.6992 12.5005ZM34.8741 12.5005C34.8741 13.1221 34.9728 13.6993 35.1701 14.2321C35.3853 14.7648 35.6813 15.2266 36.0579 15.6173C36.4346 16.008 36.8831 16.3188 37.4032 16.5497C37.9413 16.7628 38.5333 16.8694 39.179 16.8694C39.8247 16.8694 40.4077 16.7717 40.9278 16.5763C41.466 16.3632 41.9234 16.0702 42.3001 15.6973C42.6768 15.3065 42.9727 14.8448 43.1879 14.312C43.4032 13.7792 43.5108 13.1753 43.5108 12.5005C43.5108 11.8256 43.3942 11.2218 43.1611 10.689C42.9458 10.1385 42.6409 9.67671 42.2463 9.30378C41.8516 8.91304 41.3942 8.62006 40.874 8.42473C40.3539 8.21161 39.7889 8.10502 39.179 8.10502C38.5691 8.10502 37.9952 8.21161 37.457 8.42473C36.9369 8.62006 36.4795 8.91304 36.0849 9.30378C35.7082 9.67671 35.4122 10.1385 35.197 10.689C34.9817 11.2218 34.8741 11.8256 34.8741 12.5005Z" fill="#FF4A37"/>
<path d="M47.5059 16.6293H49.1256C49.7555 15.8301 50.1785 14.9155 50.3945 13.8855C50.6105 12.8554 50.7184 11.6921 50.7184 10.3957V5.60059H62.0028V16.6293H63.9736V22.6232H61.112V19.453H50.3674V22.6232H47.5059V16.6293ZM58.9253 16.6293V8.4244H53.634V11.9674C53.634 12.8199 53.517 13.6723 53.283 14.5247C53.0491 15.3595 52.7252 16.061 52.3112 16.6293H58.9253Z" fill="#3981F1"/>
<path d="M64.5977 12.5005C64.5977 11.4527 64.7776 10.4937 65.1376 9.62349C65.4975 8.73551 66.0104 7.97182 66.6763 7.33248C67.3422 6.69313 68.1341 6.19587 69.052 5.84067C69.9699 5.46773 70.9867 5.28125 72.1026 5.28125C73.2004 5.28125 74.2083 5.46773 75.1261 5.84067C76.062 6.19587 76.8629 6.69313 77.5288 7.33248C78.1947 7.97182 78.7076 8.73551 79.0675 9.62349C79.4455 10.4937 79.6345 11.4527 79.6345 12.5005C79.6345 13.5484 79.4455 14.5162 79.0675 15.4042C78.7076 16.2745 78.1947 17.0292 77.5288 17.6685C76.8629 18.3079 76.062 18.8052 75.1261 19.1604C74.2083 19.5155 73.2004 19.6931 72.1026 19.6931C71.0047 19.6931 69.9968 19.5155 69.079 19.1604C68.1611 18.8052 67.3692 18.3079 66.7033 17.6685C66.0374 17.0292 65.5155 16.2745 65.1376 15.4042C64.7776 14.5162 64.5977 13.5484 64.5977 12.5005ZM67.7832 12.5005C67.7832 13.1221 67.8821 13.6993 68.0801 14.2321C68.2961 14.7648 68.5931 15.2266 68.971 15.6173C69.349 16.008 69.7989 16.3188 70.3208 16.5497C70.8608 16.7628 71.4546 16.8694 72.1026 16.8694C72.7505 16.8694 73.3353 16.7717 73.8573 16.5763C74.3972 16.3632 74.8561 16.0702 75.2341 15.6973C75.612 15.3065 75.909 14.8448 76.125 14.312C76.3409 13.7792 76.4489 13.1753 76.4489 12.5005C76.4489 11.8256 76.332 11.2218 76.098 10.689C75.882 10.1385 75.5761 9.67671 75.1801 9.30378C74.7842 8.91304 74.3252 8.62006 73.8033 8.42473C73.2814 8.21161 72.7145 8.10502 72.1026 8.10502C71.4907 8.10502 70.9147 8.21161 70.3748 8.42473C69.8529 8.62006 69.3939 8.91304 68.998 9.30378C68.6201 9.67671 68.3231 10.1385 68.1071 10.689C67.8911 11.2218 67.7832 11.8256 67.7832 12.5005Z" fill="#3981F1"/>
<path d="M81.5371 5.60059H84.6146V11.2215L90.6887 5.60059H94.711L87.881 11.8609L94.9543 19.453H91.013L85.6409 13.7522L84.6146 14.7378V19.453H81.5371V5.60059Z" fill="#3981F1"/>
<path d="M95.9277 5.60059H109.156V8.4244H104.081V19.453H101.003V8.4244H95.9277V5.60059Z" fill="#3981F1"/>
<path d="M109.828 12.5005C109.828 11.4527 110.008 10.4937 110.369 9.62349C110.728 8.73551 111.241 7.97182 111.907 7.33248C112.573 6.69313 113.365 6.19587 114.283 5.84067C115.2 5.46773 116.218 5.28125 117.333 5.28125C118.431 5.28125 119.439 5.46773 120.357 5.84067C121.293 6.19587 122.093 6.69313 122.759 7.33248C123.425 7.97182 123.939 8.73551 124.298 9.62349C124.677 10.4937 124.865 11.4527 124.865 12.5005C124.865 13.5484 124.677 14.5162 124.298 15.4042C123.939 16.2745 123.425 17.0292 122.759 17.6685C122.093 18.3079 121.293 18.8052 120.357 19.1604C119.439 19.5155 118.431 19.6931 117.333 19.6931C116.236 19.6931 115.227 19.5155 114.31 19.1604C113.392 18.8052 112.6 18.3079 111.934 17.6685C111.268 17.0292 110.746 16.2745 110.369 15.4042C110.008 14.5162 109.828 13.5484 109.828 12.5005ZM113.014 12.5005C113.014 13.1221 113.113 13.6993 113.311 14.2321C113.527 14.7648 113.823 15.2266 114.202 15.6173C114.579 16.008 115.03 16.3188 115.552 16.5497C116.091 16.7628 116.685 16.8694 117.333 16.8694C117.981 16.8694 118.567 16.7717 119.088 16.5763C119.628 16.3632 120.087 16.0702 120.465 15.6973C120.843 15.3065 121.14 14.8448 121.355 14.312C121.572 13.7792 121.68 13.1753 121.68 12.5005C121.68 11.8256 121.563 11.2218 121.328 10.689C121.113 10.1385 120.807 9.67671 120.411 9.30378C120.015 8.91304 119.556 8.62006 119.034 8.42473C118.512 8.21161 117.945 8.10502 117.333 8.10502C116.721 8.10502 116.145 8.21161 115.606 8.42473C115.084 8.62006 114.624 8.91304 114.229 9.30378C113.85 9.67671 113.554 10.1385 113.338 10.689C113.122 11.2218 113.014 11.8256 113.014 12.5005Z" fill="#3981F1"/>
<path d="M126.746 5.60092H129.823V7.11936C130.453 6.5333 131.128 6.08043 131.848 5.76075C132.568 5.44108 133.378 5.28125 134.278 5.28125C135.285 5.28125 136.213 5.46773 137.059 5.84067C137.922 6.19586 138.66 6.70201 139.272 7.35912C139.884 7.99846 140.361 8.76216 140.703 9.65006C141.045 10.5203 141.215 11.4705 141.215 12.5005C141.215 13.5661 141.027 14.5429 140.649 15.4308C140.289 16.301 139.794 17.0558 139.164 17.6952C138.534 18.3168 137.778 18.8052 136.897 19.1604C136.032 19.5155 135.105 19.6931 134.116 19.6931C133.234 19.6931 132.442 19.56 131.74 19.2935C131.038 19.0271 130.399 18.6542 129.823 18.1747V24.7812H126.746V5.60092ZM133.657 16.8694C134.269 16.8694 134.836 16.7717 135.358 16.5763C135.897 16.381 136.366 16.0968 136.761 15.7239C137.157 15.3332 137.463 14.8714 137.68 14.3386C137.913 13.788 138.03 13.1665 138.03 12.4739C138.03 11.8345 137.931 11.2485 137.734 10.7157C137.535 10.1651 137.247 9.70336 136.87 9.33042C136.509 8.93969 136.078 8.63777 135.574 8.42473C135.069 8.21161 134.511 8.10502 133.9 8.10502C132.964 8.10502 132.136 8.32699 131.416 8.77102C130.714 9.21497 130.184 9.74781 129.823 10.3694V14.5784C130.184 15.3243 130.696 15.8926 131.362 16.2833C132.028 16.674 132.793 16.8694 133.657 16.8694Z" fill="#3981F1"/>
<path d="M142.742 12.5005C142.742 11.4527 142.922 10.4937 143.282 9.62349C143.642 8.73551 144.155 7.97182 144.821 7.33248C145.487 6.69313 146.279 6.19587 147.196 5.84067C148.114 5.46773 149.132 5.28125 150.247 5.28125C151.345 5.28125 152.353 5.46773 153.271 5.84067C154.206 6.19587 155.007 6.69313 155.673 7.33248C156.339 7.97182 156.852 8.73551 157.212 9.62349C157.59 10.4937 157.779 11.4527 157.779 12.5005C157.779 13.5484 157.59 14.5162 157.212 15.4042C156.852 16.2745 156.339 17.0292 155.673 17.6685C155.007 18.3079 154.206 18.8052 153.271 19.1604C152.353 19.5155 151.345 19.6931 150.247 19.6931C149.15 19.6931 148.141 19.5155 147.223 19.1604C146.306 18.8052 145.514 18.3079 144.848 17.6685C144.182 17.0292 143.66 16.2745 143.282 15.4042C142.922 14.5162 142.742 13.5484 142.742 12.5005ZM145.927 12.5005C145.927 13.1221 146.027 13.6993 146.225 14.2321C146.441 14.7648 146.738 15.2266 147.116 15.6173C147.493 16.008 147.943 16.3188 148.466 16.5497C149.005 16.7628 149.599 16.8694 150.247 16.8694C150.895 16.8694 151.48 16.7717 152.002 16.5763C152.542 16.3632 153.001 16.0702 153.378 15.6973C153.757 15.3065 154.053 14.8448 154.269 14.312C154.486 13.7792 154.594 13.1753 154.594 12.5005C154.594 11.8256 154.477 11.2218 154.242 10.689C154.026 10.1385 153.721 9.67671 153.324 9.30378C152.929 8.91304 152.47 8.62006 151.947 8.42473C151.426 8.21161 150.859 8.10502 150.247 8.10502C149.635 8.10502 149.06 8.21161 148.52 8.42473C147.997 8.62006 147.539 8.91304 147.143 9.30378C146.765 9.67671 146.468 10.1385 146.252 10.689C146.036 11.2218 145.927 11.8256 145.927 12.5005Z" fill="#3981F1"/>
<path d="M159.689 5.60059H165.682C167.644 5.60059 169.12 5.87586 170.11 6.42641C171.1 6.97695 171.595 7.92709 171.595 9.27679C171.595 9.91615 171.451 10.4578 171.163 10.9018C170.875 11.3458 170.497 11.7454 170.029 12.1006C170.695 12.3493 171.19 12.7666 171.514 13.3526C171.838 13.921 172 14.578 172 15.324C172 16.7092 171.505 17.7482 170.515 18.4407C169.525 19.1156 168.131 19.453 166.33 19.453H159.689V5.60059ZM162.767 13.7256V16.7092H166.034C166.951 16.7092 167.644 16.5938 168.113 16.3628C168.58 16.132 168.814 15.7591 168.814 15.244C168.814 14.6935 168.589 14.3028 168.14 14.0719C167.707 13.841 167.032 13.7256 166.115 13.7256H162.767ZM162.767 8.34445V11.0883H166.384C167.014 11.0883 167.51 10.9729 167.869 10.742C168.23 10.5111 168.409 10.1559 168.409 9.67638C168.409 9.10812 168.167 8.74404 167.68 8.58422C167.212 8.4244 166.519 8.34445 165.601 8.34445H162.767Z" fill="#3981F1"/>
</svg>
