<svg width="114" height="30" viewBox="0 0 114 30" fill="none" xmlns="http://www.w3.org/2000/svg">
<g clip-path="url(#clip0_4416_4374)">
<path d="M108.687 26.1231C110.924 26.1231 112.508 25.7552 113.688 24.9628V21.3684C112.477 22.1326 111.017 22.6137 108.967 22.6137C105.519 22.6137 104.09 20.1797 104.09 16.3307C104.09 12.2835 105.83 10.2175 108.998 10.2175C110.862 10.2175 112.694 10.8118 113.657 11.3779V7.64201C112.632 7.13257 110.862 6.76465 108.439 6.76465C102.257 6.76465 99.0579 10.8118 99.0579 16.4722C99.0889 22.6703 102.226 26.1231 108.687 26.1231ZM78.4633 24.4816V20.8873C76.9723 21.8213 74.4252 22.642 72.0955 22.642C68.5543 22.642 67.2186 21.1137 67.0012 18.0005H78.6808V15.6797C78.6808 9.19861 75.5434 6.76465 70.7287 6.76465C64.8268 6.76465 62.0312 10.8684 62.0312 16.5005C62.0312 22.9816 65.5413 26.1231 71.6917 26.1231C74.7669 26.1231 77.0344 25.359 78.4633 24.4816ZM34.1369 7.10427V14.4628H27.6759V7.10427H22.8301V25.7552H27.6759V17.9722H34.1369V25.7552H38.9827V7.10427H34.1369ZM60.8197 22.2458H58.6764V7.10427H44.5739V8.68918C44.5739 13.2458 44.2633 19.1326 42.5549 22.2458H41.0017V30.0005H45.4748V25.7552H56.3156V30.0005H60.7887V22.2458H60.8197ZM93.9015 25.7552H99.3996L91.6339 15.708L98.4677 7.10427H93.5908L86.7571 15.708V7.10427H81.9113V25.7552H86.7571V16.5854L93.9015 25.7552ZM70.6045 10.2175C72.9963 10.2175 73.7418 12.0288 73.7418 14.3779V14.7458H67.0012C67.1255 11.7741 68.3058 10.2175 70.6045 10.2175ZM53.8306 22.2458H46.9968C48.3325 19.4439 48.7053 14.3496 48.7053 11.1231V10.5571H53.8306V22.2458Z" fill="#404040"/>
<path d="M18.7929 25.7547H13.8539V3.48113H11.6485C7.61035 3.48113 5.49809 5.32076 5.49809 8.06604C5.49809 11.1792 6.95804 12.6226 9.97112 14.4623L12.4561 15.9906L5.31172 25.7547H0L6.42997 17.0377C2.73352 14.6321 0.652316 12.283 0.652316 8.32076C0.652316 3.36792 4.44196 0 11.6174 0H18.7619L18.7929 25.7547Z" fill="#FC3F1D"/>
</g>
<defs>
<clipPath id="clip0_4416_4374">
<rect width="114" height="30" fill="white"/>
</clipPath>
</defs>
</svg>
