<svg width="42" height="42" viewBox="0 0 42 42" fill="none" xmlns="http://www.w3.org/2000/svg">
<circle cx="21" cy="21" r="21" fill="#EFEFF8"/>
<g clip-path="url(#clip0_4583_1277)">
<path fill-rule="evenodd" clip-rule="evenodd" d="M12.037 11.4953C12.2622 11.1101 12.7154 10.9207 13.1478 11.0312C14.9758 11.4983 16.5514 12.2518 18.0315 13.3654C18.97 13.0595 19.9673 12.8948 21.0002 12.8948C22.033 12.8948 23.0304 13.0595 23.9689 13.3654C25.449 12.2518 27.0246 11.4983 28.8526 11.0312C29.285 10.9207 29.7382 11.1101 29.9634 11.4953C30.6138 12.6075 30.6822 13.8452 30.5425 14.9563C30.4244 15.8954 30.1481 16.8165 29.8763 17.6066C30.5953 19.0575 31.0002 20.7049 31.0002 22.4474C31.0002 23.0797 30.9467 23.678 30.8435 24.2421L31.7739 24.026C32.3119 23.901 32.8493 24.2358 32.9742 24.7738C33.0992 25.3118 32.7644 25.8492 32.2264 25.9741L30.0979 26.4686C29.7877 27.0721 29.4029 27.6167 28.9519 28.1015L29.6283 28.7013C30.0416 29.0678 30.0795 29.6998 29.7131 30.113C29.3467 30.5262 28.7146 30.5642 28.3014 30.1977L27.3888 29.3885C25.6083 30.51 23.3582 31.0001 21.0002 31.0001C18.6422 31.0001 16.3921 30.51 14.6116 29.3885L13.699 30.1978C13.2857 30.5642 12.6537 30.5262 12.2873 30.113C11.9209 29.6998 11.9588 29.0678 12.372 28.7013L13.0485 28.1015C12.5975 27.6167 12.2127 27.0721 11.9025 26.4686L9.77395 25.9741C9.23599 25.8492 8.90119 25.3118 9.02616 24.7738C9.15113 24.2358 9.68853 23.901 10.2265 24.026L11.1569 24.2421C11.0537 23.678 11.0002 23.0797 11.0002 22.4474C11.0002 20.7049 11.4051 19.0575 12.1241 17.6066C11.8524 16.8165 11.576 15.8954 11.458 14.9563C11.3182 13.8452 11.3866 12.6075 12.037 11.4953ZM28.6558 24.7503L25.3925 25.5083C25.0282 25.593 24.7416 25.8738 24.6496 26.2364C24.5575 26.5989 24.6755 26.9825 24.9553 27.2306L25.8097 27.9882C24.509 28.6569 22.8603 29.0001 21.0002 29.0001C19.1401 29.0001 17.4914 28.6569 16.1907 27.9882L17.045 27.2306C17.3249 26.9825 17.4429 26.5989 17.3508 26.2364C17.2588 25.8739 16.9722 25.593 16.6078 25.5084L13.3446 24.7503C13.1219 24.0799 13.0002 23.3156 13.0002 22.4474C13.0002 20.8823 13.3976 19.4208 14.0877 18.1662C14.2258 17.9151 14.2496 17.6168 14.1529 17.347C13.8456 16.4892 13.5524 15.582 13.4423 14.7068C13.3727 14.1532 13.3818 13.6534 13.4858 13.2114C14.8596 13.6627 16.0602 14.3274 17.2198 15.2692C17.5001 15.4968 17.8813 15.5557 18.2172 15.4232C19.0833 15.0815 20.0204 14.8948 21.0002 14.8948C21.98 14.8948 22.9171 15.0815 23.7833 15.4232C24.1191 15.5557 24.5004 15.4968 24.7806 15.2692C25.9402 14.3274 27.1408 13.6627 28.5146 13.2114C28.6186 13.6534 28.6277 14.1532 28.5581 14.7068C28.448 15.582 28.1548 16.4892 27.8475 17.347C27.7508 17.6168 27.7746 17.9151 27.9127 18.1662C28.6028 19.4208 29.0002 20.8823 29.0002 22.4474C29.0002 23.3156 28.8786 24.0799 28.6558 24.7503ZM25.0002 22.5001C25.8286 22.5001 26.5002 21.8285 26.5002 21.0001C26.5002 20.1716 25.8286 19.5001 25.0002 19.5001C24.1718 19.5001 23.5002 20.1716 23.5002 21.0001C23.5002 21.8285 24.1718 22.5001 25.0002 22.5001ZM17.1216 22.6214C17.95 22.6214 18.6216 21.9498 18.6216 21.1214C18.6216 20.2929 17.95 19.6214 17.1216 19.6214C16.2931 19.6214 15.6216 20.2929 15.6216 21.1214C15.6216 21.9498 16.2931 22.6214 17.1216 22.6214ZM20.0002 24.0001C19.5957 24.0001 19.2311 24.2437 19.0763 24.6174C18.9216 24.9911 19.0071 25.4212 19.2931 25.7072L20.2931 26.7072C20.6836 27.0977 21.3168 27.0977 21.7073 26.7072L22.7073 25.7072C22.9933 25.4212 23.0788 24.9911 22.9241 24.6174C22.7693 24.2437 22.4046 24.0001 22.0002 24.0001H20.0002Z" fill="#3358A4"/>
</g>
<defs>
<clipPath id="clip0_4583_1277">
<rect width="24" height="24" fill="white" transform="translate(9 9)"/>
</clipPath>
</defs>
</svg>
