<svg width="42" height="42" viewBox="0 0 42 42" fill="none" xmlns="http://www.w3.org/2000/svg">
<circle cx="21" cy="21" r="21" fill="#EFEFF8"/>
<path d="M15.3285 13.5L15.117 13.8525C15.117 13.8525 12.75 17.739 12.75 24V24.75H17.3205C17.2719 24.997 17.2483 25.2483 17.25 25.5C17.25 27.5625 18.9375 29.25 21 29.25C23.0625 29.25 24.75 27.5625 24.75 25.5C24.75 25.242 24.7297 24.9937 24.6795 24.75H29.25V24C29.25 20.5425 28.668 18.0075 28.0778 16.335C27.4882 14.664 26.859 13.8045 26.859 13.8045L26.625 13.5H15.3285ZM16.242 15H25.782C25.8907 15.156 26.2118 15.549 26.6715 16.8525C27.159 18.2325 27.5955 20.4 27.6795 23.25H24C23.3138 22.3425 22.218 21.75 21 21.75C19.782 21.75 18.6863 22.3425 18 23.25H14.3205C14.4915 18.2625 15.9945 15.4275 16.242 15ZM20.25 16.5V18H18.75V19.5H20.25V21H21.75V19.5H23.25V18H21.75V16.5H20.25ZM21 23.25C22.2525 23.25 23.25 24.2475 23.25 25.5C23.25 26.7525 22.2525 27.75 21 27.75C19.7475 27.75 18.75 26.7525 18.75 25.5C18.75 24.2475 19.7475 23.25 21 23.25ZM21 24.75C20.8011 24.75 20.6103 24.829 20.4697 24.9697C20.329 25.1103 20.25 25.3011 20.25 25.5C20.25 25.6989 20.329 25.8897 20.4697 26.0303C20.6103 26.171 20.8011 26.25 21 26.25C21.1989 26.25 21.3897 26.171 21.5303 26.0303C21.671 25.8897 21.75 25.6989 21.75 25.5C21.75 25.3011 21.671 25.1103 21.5303 24.9697C21.3897 24.829 21.1989 24.75 21 24.75Z" fill="#3358A4"/>
</svg>
