<svg width="42" height="42" viewBox="0 0 42 42" fill="none" xmlns="http://www.w3.org/2000/svg">
<circle cx="21" cy="21" r="21" fill="#F3F6FD"/>
<path d="M17.3667 20.2C16.35 20.2 15.375 19.7961 14.6561 19.0772C13.9372 18.3584 13.5333 17.3833 13.5333 16.3667V13.3C13.5333 13.0967 13.6141 12.9017 13.7579 12.7579C13.9017 12.6141 14.0967 12.5333 14.3 12.5333H15.0667C15.27 12.5333 15.465 12.4526 15.6088 12.3088C15.7526 12.165 15.8333 11.97 15.8333 11.7667C15.8333 11.5633 15.7526 11.3683 15.6088 11.2246C15.465 11.0808 15.27 11 15.0667 11H14.3C13.69 11 13.105 11.2423 12.6737 11.6737C12.2423 12.105 12 12.69 12 13.3V16.3667C12.001 17.2328 12.2122 18.0857 12.6155 18.8523C13.0188 19.6188 13.6021 20.2759 14.3153 20.7673C15.0013 21.3709 15.5575 22.1075 15.9502 22.9325C16.343 23.7575 16.564 24.6537 16.6 25.5667C16.6 26.99 17.1654 28.355 18.1719 29.3615C19.1783 30.3679 20.5433 30.9333 21.9667 30.9333C23.39 30.9333 24.755 30.3679 25.7615 29.3615C26.7679 28.355 27.3333 26.99 27.3333 25.5667V24.6927C28.056 24.5061 28.6859 24.0623 29.1048 23.4445C29.5237 22.8268 29.7029 22.0774 29.6089 21.337C29.5148 20.5965 29.154 19.9158 28.5939 19.4224C28.0339 18.9289 27.3131 18.6567 26.5667 18.6567C25.8203 18.6567 25.0995 18.9289 24.5394 19.4224C23.9794 19.9158 23.6185 20.5965 23.5244 21.337C23.4304 22.0774 23.6096 22.8268 24.0285 23.4445C24.4475 24.0623 25.0773 24.5061 25.8 24.6927V25.5667C25.8 26.5833 25.3961 27.5584 24.6772 28.2772C23.9584 28.9961 22.9833 29.4 21.9667 29.4C20.95 29.4 19.975 28.9961 19.2561 28.2772C18.5372 27.5584 18.1333 26.5833 18.1333 25.5667C18.1713 24.6525 18.3947 23.7557 18.7901 22.9306C19.1855 22.1056 19.7446 21.3696 20.4333 20.7673C21.1437 20.2742 21.7241 19.6163 22.1246 18.8499C22.5252 18.0835 22.7341 17.2314 22.7333 16.3667V13.3C22.7333 12.69 22.491 12.105 22.0597 11.6737C21.6283 11.2423 21.0433 11 20.4333 11H19.6667C19.4633 11 19.2683 11.0808 19.1246 11.2246C18.9808 11.3683 18.9 11.5633 18.9 11.7667C18.9 11.97 18.9808 12.165 19.1246 12.3088C19.2683 12.4526 19.4633 12.5333 19.6667 12.5333H20.4333C20.6367 12.5333 20.8317 12.6141 20.9754 12.7579C21.1192 12.9017 21.2 13.0967 21.2 13.3V16.3667C21.2 16.8701 21.1008 17.3685 20.9082 17.8336C20.7156 18.2987 20.4332 18.7213 20.0772 19.0772C19.7213 19.4332 19.2987 19.7156 18.8336 19.9082C18.3685 20.1008 17.8701 20.2 17.3667 20.2ZM26.5667 23.2667C26.16 23.2667 25.77 23.1051 25.4824 22.8176C25.1949 22.53 25.0333 22.14 25.0333 21.7333C25.0333 21.3267 25.1949 20.9367 25.4824 20.6491C25.77 20.3615 26.16 20.2 26.5667 20.2C26.9733 20.2 27.3633 20.3615 27.6509 20.6491C27.9385 20.9367 28.1 21.3267 28.1 21.7333C28.1 22.14 27.9385 22.53 27.6509 22.8176C27.3633 23.1051 26.9733 23.2667 26.5667 23.2667Z" fill="#3358A4"/>
</svg>
