<svg width="42" height="42" viewBox="0 0 42 42" fill="none" xmlns="http://www.w3.org/2000/svg">
<circle cx="21" cy="21" r="21" fill="#EFEFF8"/>
<path d="M23.0003 20H22.0003V19C22.0003 18.7348 21.8949 18.4804 21.7074 18.2929C21.5198 18.1053 21.2655 18 21.0003 18C20.7351 18 20.4807 18.1053 20.2932 18.2929C20.1056 18.4804 20.0003 18.7348 20.0003 19V20H19.0003C18.7351 20 18.4807 20.1053 18.2932 20.2929C18.1056 20.4804 18.0003 20.7348 18.0003 21C18.0003 21.2652 18.1056 21.5195 18.2932 21.7071C18.4807 21.8946 18.7351 22 19.0003 22H20.0003V23C20.0003 23.2652 20.1056 23.5195 20.2932 23.7071C20.4807 23.8946 20.7351 24 21.0003 24C21.2655 24 21.5198 23.8946 21.7074 23.7071C21.8949 23.5195 22.0003 23.2652 22.0003 23V22H23.0003C23.2655 22 23.5198 21.8946 23.7074 21.7071C23.8949 21.5195 24.0003 21.2652 24.0003 21C24.0003 20.7348 23.8949 20.4804 23.7074 20.2929C23.5198 20.1053 23.2655 20 23.0003 20ZM29.1603 14C28.094 12.9447 26.6856 12.3052 25.1893 12.1971C23.693 12.0889 22.2073 12.519 21.0003 13.41C19.7279 12.4636 18.1443 12.0345 16.5682 12.209C14.9921 12.3835 13.5407 13.1487 12.5062 14.3506C11.4718 15.5524 10.9311 17.1015 10.9931 18.686C11.0551 20.2705 11.7151 21.7726 12.8403 22.89L18.8403 28.94C19.4028 29.5018 20.1653 29.8173 20.9603 29.8173C21.7553 29.8173 22.5178 29.5018 23.0803 28.94L29.0803 22.89C29.6712 22.3126 30.1422 21.6242 30.4662 20.8642C30.7902 20.1042 30.9609 19.2877 30.9683 18.4616C30.9757 17.6355 30.8198 16.816 30.5095 16.0503C30.1993 15.2847 29.7407 14.5879 29.1603 14ZM27.7503 21.46L21.7503 27.46C21.6573 27.5537 21.5467 27.6281 21.4249 27.6789C21.303 27.7296 21.1723 27.7558 21.0403 27.7558C20.9083 27.7558 20.7776 27.7296 20.6557 27.6789C20.5338 27.6281 20.4232 27.5537 20.3303 27.46L14.3303 21.46C13.546 20.6583 13.1069 19.5814 13.1069 18.46C13.1069 17.3385 13.546 16.2616 14.3303 15.46C15.1294 14.671 16.2072 14.2285 17.3303 14.2285C18.4533 14.2285 19.5311 14.671 20.3303 15.46C20.4232 15.5537 20.5338 15.6281 20.6557 15.6789C20.7776 15.7296 20.9083 15.7558 21.0403 15.7558C21.1723 15.7558 21.303 15.7296 21.4249 15.6789C21.5467 15.6281 21.6573 15.5537 21.7503 15.46C22.5494 14.671 23.6272 14.2285 24.7503 14.2285C25.8733 14.2285 26.9511 14.671 27.7503 15.46C28.5405 16.2625 28.9835 17.3437 28.9835 18.47C28.9835 19.5963 28.5405 20.6774 27.7503 21.48V21.46Z" fill="#3358A4"/>
</svg>
