<svg width="268" height="167" viewBox="0 0 268 167" fill="none" xmlns="http://www.w3.org/2000/svg">
<path d="M146.435 140.492C178.199 105.194 217.841 100.868 242.125 107.872C243.23 108.198 244.727 108.321 246.31 108.451L246.494 108.466C248.406 108.629 250.34 108.796 252.233 109.178C290.024 116.89 316.11 145.938 310.388 173.945C309.362 179.024 307.183 183.476 303.939 187.186C296.388 195.819 284.184 199.2 271.263 202.78L271.21 202.794L270.878 202.886C262.538 205.207 253.916 207.605 245.506 211.533C244.386 212.165 240.143 215.958 234.953 221.892C230.592 226.879 228.303 230.247 227.895 231.211C224.871 240.174 223.334 249.284 221.847 258.091L221.805 258.343C219.458 272.339 217.424 284.412 209.918 292.994C206.283 297.151 201.624 300.082 196.046 301.685C182.236 305.679 167.308 302.059 154.01 291.491C141.492 281.549 131.814 266.453 126.755 248.985C126.273 247.315 125.985 245.606 125.715 243.906C125.488 242.465 125.267 241.097 124.919 240.262C114.551 215.765 114.443 177.056 145.224 141.861L146.435 140.492ZM199.877 16.8595C213.79 0.952312 241.202 2.91709 262.289 21.317C283.367 39.7102 288.995 66.5834 275.086 82.4869C261.177 98.3903 233.757 96.4339 212.679 78.0409C191.592 59.6408 185.964 32.7669 199.877 16.8595ZM32.127 208.652C46.0362 192.749 73.456 194.705 94.5423 213.105C115.621 231.498 121.244 258.375 107.335 274.279C93.4259 290.182 66.0064 288.226 44.9279 269.833C23.8417 251.433 18.2181 224.556 32.127 208.652ZM76.2659 13.246C93.6318 -6.60982 129.451 -3.8222 156.122 19.4508C182.793 42.7238 190.366 77.8083 173.003 97.6602C155.644 117.508 119.825 114.72 93.1543 91.4474C66.4836 68.1744 58.9103 33.0901 76.2659 13.246ZM9.32739 89.7745C26.6864 69.9266 62.5096 72.7101 89.1803 95.983C115.851 119.256 123.425 154.34 106.066 174.188C88.7031 194.04 52.8834 191.253 26.2126 167.98C-0.457946 144.707 -8.0313 109.623 9.32739 89.7745Z" fill="#DAE3F8"/>
</svg>
