<svg width="214" height="229" viewBox="0 0 214 229" fill="none" xmlns="http://www.w3.org/2000/svg">
<path d="M146.434 140.493C178.198 105.195 217.84 100.868 242.124 107.873C243.23 108.199 244.726 108.321 246.309 108.451L246.493 108.466C248.405 108.628 250.34 108.797 252.233 109.178C290.023 116.891 316.11 145.938 310.388 173.945C309.362 179.024 307.182 183.477 303.937 187.186C296.387 195.819 284.183 199.2 271.263 202.78L271.21 202.795L270.878 202.887C262.537 205.207 253.916 207.606 245.505 211.534C244.386 212.166 240.143 215.957 234.953 221.892C230.591 226.878 228.302 230.248 227.895 231.212C224.87 240.175 223.332 249.284 221.846 258.091L221.803 258.343C219.457 272.34 217.424 284.413 209.918 292.995C206.283 297.151 201.624 300.083 196.045 301.686C182.236 305.68 167.307 302.059 154.008 291.491C141.491 281.549 131.813 266.453 126.755 248.986C126.273 247.316 125.984 245.606 125.714 243.907C125.488 242.466 125.266 241.098 124.918 240.263C114.551 215.766 114.442 177.056 145.224 141.861L146.434 140.493Z" fill="#DAE3F8"/>
<path d="M199.877 16.8603C213.789 0.953026 241.202 2.91781 262.288 21.3177C283.367 39.7109 288.994 66.5841 275.085 82.4876C261.176 98.391 233.757 96.4346 212.678 78.0416C191.592 59.6415 185.964 32.7677 199.877 16.8603Z" fill="#DAE3F8"/>
<path d="M32.1266 208.653C46.0358 192.749 73.4555 194.706 94.5419 213.106C115.62 231.499 121.244 258.376 107.335 274.279C93.4254 290.183 66.0059 288.227 44.9274 269.833C23.8413 251.433 18.2176 224.556 32.1266 208.653Z" fill="#DAE3F8"/>
<path d="M76.2654 13.2467C93.6313 -6.60913 129.451 -3.82227 156.122 19.4508C182.793 42.7237 190.366 77.8082 173.004 97.6602C155.645 117.508 119.824 114.72 93.1531 91.4474C66.4827 68.1745 58.9101 33.0908 76.2654 13.2467Z" fill="#DAE3F8"/>
<path d="M9.32692 89.7752C26.686 69.9273 62.5092 72.7108 89.1799 95.9837C115.851 119.257 123.424 154.341 106.065 174.189C88.7026 194.041 52.8829 191.253 26.2122 167.98C-0.458418 144.707 -8.03177 109.623 9.32692 89.7752Z" fill="#DAE3F8"/>
</svg>
