<svg width="24" height="24" viewBox="0 0 24 24" fill="none" xmlns="http://www.w3.org/2000/svg">
<path d="M12.7114 11.4881C14.9877 12.8313 15.6218 14.9826 15.4735 16.4158C15.4663 16.4812 15.4736 16.5661 15.4821 16.6556L15.4833 16.6656C15.4933 16.7737 15.5026 16.8836 15.5002 16.9934C15.4464 19.1857 14.0915 20.9828 12.4785 20.9999C12.1861 21.0036 11.9169 20.9353 11.6786 20.7993C11.1239 20.4829 10.8146 19.8452 10.4875 19.1699L10.4867 19.1672L10.4778 19.1505C10.2661 18.7147 10.0477 18.2637 9.74603 17.8433C9.69979 17.7886 9.4465 17.5984 9.06522 17.3809C8.74487 17.1982 8.53504 17.1111 8.47745 17.1C7.94936 17.0391 7.42792 17.0624 6.92377 17.0851L6.90918 17.086C6.10811 17.123 5.41703 17.1536 4.86564 16.8391C4.59883 16.6869 4.38979 16.4635 4.24539 16.1729C3.88646 15.4532 3.93938 14.5801 4.39473 13.7147C4.82307 12.9002 5.56612 12.1823 6.48661 11.6923C6.53076 11.6689 6.57576 11.6474 6.62139 11.628L6.86867 11.5295C6.90233 11.5149 6.93162 11.4999 6.95316 11.4852C8.21172 10.6162 10.3616 10.1478 12.6227 11.4375L12.7114 11.4881Z" fill="#3358A4"/>
<path d="M20.112 12.9798C21.1337 13.5629 21.2961 15.1102 20.4828 16.5019C19.6698 17.8928 18.2323 18.5271 17.2106 17.9447C16.1889 17.3619 16.0254 15.8143 16.8383 14.423C17.6517 13.0311 19.0899 12.3968 20.112 12.9798Z" fill="#3358A4"/>
<path d="M7.7897 5.95108C8.81139 6.53394 8.97527 8.08096 8.16195 9.47279C7.34889 10.8641 5.91059 11.4979 4.88882 10.9151C3.86704 10.3323 3.70349 8.78479 4.51657 7.39343C5.32995 6.0016 6.76793 5.36826 7.7897 5.95108Z" fill="#3358A4"/>
<path d="M14.1691 3.26166C15.4443 3.98903 15.6449 6.01326 14.6162 7.77371C13.5874 9.5342 11.7128 10.3746 10.4376 9.64724C9.16238 8.91955 8.9618 6.89553 9.99051 5.13519C11.0192 3.37494 12.894 2.53461 14.1691 3.26166Z" fill="#3358A4"/>
<path d="M19.0865 6.06653C20.3621 6.79416 20.5621 8.81817 19.5335 10.5786C18.5047 12.3391 16.6303 13.1796 15.3549 12.4521C14.0798 11.7246 13.8791 9.70047 14.9078 7.94006C15.9366 6.17987 17.8116 5.3395 19.0865 6.06653Z" fill="#3358A4"/>
</svg>
