<svg width="17" height="18" viewBox="0 0 17 18" fill="none" xmlns="http://www.w3.org/2000/svg">
<path d="M8.62284 8.48813C10.876 9.83127 11.5036 11.9826 11.3568 13.4158C11.3497 13.4812 11.3569 13.5661 11.3653 13.6556L11.3665 13.6656C11.3764 13.7737 11.3856 13.8836 11.3833 13.9934C11.33 16.1857 9.98887 17.9828 8.39224 17.9999C8.10281 18.0036 7.8364 17.9353 7.6005 17.7993C7.05147 17.4829 6.74527 16.8452 6.4215 16.1699L6.42077 16.1672L6.41188 16.1505C6.20235 15.7147 5.98621 15.2637 5.68759 14.8433C5.64183 14.7886 5.39111 14.5984 5.01371 14.3809C4.69662 14.1982 4.48892 14.1111 4.43191 14.1C3.9092 14.0391 3.39306 14.0624 2.89404 14.0851L2.87959 14.086C2.08667 14.123 1.40262 14.1536 0.856838 13.8391C0.592744 13.6869 0.385824 13.4635 0.24289 13.1729C-0.112381 12.4532 -0.0600048 11.5801 0.390714 10.7147C0.814701 9.9002 1.55019 9.18228 2.46132 8.69231C2.50502 8.66887 2.54956 8.64744 2.59473 8.62802L2.8395 8.52954C2.87281 8.51495 2.90181 8.49987 2.92313 8.48517C4.16889 7.61616 6.29689 7.14776 8.53502 8.43752L8.62284 8.48813Z" fill="#FD873B"/>
<path d="M15.9481 9.97979C16.9594 10.5629 17.1202 12.1102 16.3152 13.5019C15.5105 14.8928 14.0875 15.5271 13.0762 14.9447C12.0649 14.3619 11.9032 12.8143 12.7078 11.423C13.5129 10.0311 14.9365 9.39682 15.9481 9.97979Z" fill="#FD873B"/>
<path d="M3.75116 2.95108C4.76246 3.53394 4.92468 5.08096 4.11962 6.47279C3.31484 7.8641 1.89116 8.49789 0.879778 7.91514C-0.131608 7.33231 -0.293493 5.78479 0.511315 4.39343C1.31643 3.0016 2.73979 2.36826 3.75116 2.95108Z" fill="#FD873B"/>
<path d="M10.0657 0.261659C11.3279 0.989029 11.5265 3.01326 10.5082 4.77371C9.4899 6.5342 7.63432 7.37463 6.37208 6.64724C5.10988 5.91955 4.91134 3.89553 5.92958 2.13519C6.94784 0.37494 8.80352 -0.465389 10.0657 0.261659Z" fill="#FD873B"/>
<path d="M14.933 3.06653C16.1957 3.79416 16.3936 5.81817 15.3755 7.57858C14.3572 9.33907 12.5019 10.1796 11.2394 9.45211C9.97729 8.72464 9.77861 6.70047 10.7969 4.94006C11.8152 3.17987 13.6711 2.3395 14.933 3.06653Z" fill="#FD873B"/>
</svg>
