<svg width="36" height="36" viewBox="0 0 36 36" fill="none" xmlns="http://www.w3.org/2000/svg">
<path d="M19.0671 17.2322C22.4816 19.2469 23.4327 22.4739 23.2102 24.6237C23.1995 24.7218 23.2104 24.8491 23.2232 24.9834L23.225 24.9984C23.2399 25.1606 23.2539 25.3255 23.2503 25.4901C23.1697 28.7785 21.1372 31.4742 18.7177 31.4998C18.2791 31.5053 17.8754 31.4029 17.5179 31.199C16.6859 30.7244 16.2219 29.7677 15.7312 28.7549L15.7301 28.7508L15.7166 28.7257C15.3991 28.0721 15.0716 27.3955 14.619 26.7649C14.5497 26.6829 14.1697 26.3975 13.5978 26.0713C13.1173 25.7972 12.8026 25.6667 12.7162 25.65C11.924 25.5586 11.1419 25.5936 10.3857 25.6276L10.3638 25.629C9.16217 25.6844 8.12555 25.7304 7.29846 25.2587C6.89825 25.0303 6.58468 24.6952 6.36808 24.2593C5.8297 23.1798 5.90907 21.8702 6.59209 20.5721C7.23461 19.3503 8.34918 18.2734 9.72992 17.5385C9.79614 17.5033 9.86363 17.4712 9.93209 17.442L10.303 17.2943C10.3535 17.2724 10.3974 17.2498 10.4297 17.2278C12.3176 15.9242 15.5424 15.2216 18.9341 17.1563L19.0671 17.2322Z" fill="#FD873B"/>
<path d="M30.1679 19.4697C31.7005 20.3444 31.9442 22.6652 30.7242 24.7528C29.5047 26.8393 27.3484 27.7907 25.8159 26.9171C24.2833 26.0429 24.0382 23.7214 25.2575 21.6345C26.4776 19.5467 28.6349 18.5952 30.1679 19.4697Z" fill="#FD873B"/>
<path d="M11.6845 8.92662C13.2171 9.80091 13.4629 12.1214 12.2429 14.2092C11.0233 16.2962 8.86588 17.2468 7.33323 16.3727C5.80056 15.4985 5.55524 13.1772 6.77485 11.0901C7.99493 9.00239 10.1519 8.05239 11.6845 8.92662Z" fill="#FD873B"/>
<path d="M21.2537 4.89249C23.1665 5.98354 23.4673 9.01989 21.9243 11.6606C20.3811 14.3013 17.5691 15.5619 15.6563 14.4709C13.7436 13.3793 13.4427 10.3433 14.9858 7.70278C16.5288 5.06241 19.341 3.80192 21.2537 4.89249Z" fill="#FD873B"/>
<path d="M28.6297 9.0998C30.5431 10.1912 30.8431 13.2273 29.3002 15.8679C27.7571 18.5086 24.9455 19.7695 23.0323 18.6782C21.1197 17.587 20.8186 14.5507 22.3617 11.9101C23.9049 9.2698 26.7174 8.00924 28.6297 9.0998Z" fill="#FD873B"/>
</svg>
