<svg width="64" height="64" viewBox="0 0 64 64" fill="none" xmlns="http://www.w3.org/2000/svg">
<circle cx="32" cy="32" r="32" fill="#F8671C" fill-opacity="0.5"/>
<path d="M26.906 24.537C26.8149 24.483 26.7111 24.4541 26.6052 24.4531C26.4993 24.4522 26.3951 24.4793 26.3031 24.5318C26.211 24.5842 26.1345 24.66 26.0813 24.7516C26.0281 24.8431 26 24.9471 26 25.053V38.947C26 39.0529 26.0281 39.1569 26.0813 39.2485C26.1345 39.34 26.211 39.4159 26.3031 39.4683C26.3951 39.5207 26.4993 39.5478 26.6052 39.5469C26.7111 39.546 26.8149 39.517 26.906 39.463L38.629 32.516C38.7185 32.4629 38.7927 32.3874 38.8442 32.2969C38.8957 32.2064 38.9228 32.1041 38.9228 32C38.9228 31.8959 38.8957 31.7936 38.8442 31.7031C38.7927 31.6127 38.7185 31.5371 38.629 31.484L26.906 24.537Z" fill="white" stroke="white" stroke-width="1.5" stroke-linecap="round" stroke-linejoin="round"/>
</svg>
