<svg width="42" height="42" viewBox="0 0 42 42" fill="none" xmlns="http://www.w3.org/2000/svg">
<path d="M16.625 27.272V14.728C16.6253 14.5711 16.6677 14.4171 16.748 14.2822C16.8282 14.1473 16.9432 14.0365 17.081 13.9613C17.2188 13.8862 17.3742 13.8495 17.5311 13.855C17.6879 13.8606 17.8404 13.9083 17.9725 13.993L27.7305 20.2633C27.8541 20.3425 27.9557 20.4514 28.0261 20.5802C28.0965 20.7089 28.1335 20.8533 28.1335 21C28.1335 21.1468 28.0965 21.2912 28.0261 21.4199C27.9557 21.5487 27.8541 21.6576 27.7305 21.7368L17.9725 28.0088C17.8404 28.0935 17.6879 28.1412 17.5311 28.1468C17.3742 28.1524 17.2188 28.1156 17.081 28.0405C16.9432 27.9653 16.8282 27.8545 16.748 27.7196C16.6677 27.5847 16.6253 27.4307 16.625 27.2738V27.272Z" fill="#F8671C"/>
<path d="M1.75 21C1.75 10.3688 10.3688 1.75 21 1.75C31.6313 1.75 40.25 10.3688 40.25 21C40.25 31.6313 31.6313 40.25 21 40.25C10.3688 40.25 1.75 31.6313 1.75 21ZM21 4.375C16.5908 4.375 12.3621 6.12656 9.24435 9.24435C6.12656 12.3621 4.375 16.5908 4.375 21C4.375 25.4092 6.12656 29.6379 9.24435 32.7556C12.3621 35.8734 16.5908 37.625 21 37.625C25.4092 37.625 29.6379 35.8734 32.7556 32.7556C35.8734 29.6379 37.625 25.4092 37.625 21C37.625 16.5908 35.8734 12.3621 32.7556 9.24435C29.6379 6.12656 25.4092 4.375 21 4.375Z" fill="#F8671C"/>
</svg>
