<svg width="36" height="36" viewBox="0 0 36 36" fill="none" xmlns="http://www.w3.org/2000/svg">
<path d="M18.7808 1.4196C18.951 1.11816 19.2099 0.876388 19.5222 0.727062C19.8345 0.577736 20.1852 0.528088 20.5268 0.58485L21.0623 0.67485C22.0781 0.844108 23.0468 1.22604 23.9048 1.79562C24.7628 2.36521 25.4908 3.10961 26.0412 3.98008C26.5915 4.85055 26.9518 5.82746 27.0984 6.84683C27.2451 7.86621 27.1747 8.90505 26.892 9.89535L25.8615 13.4998H27.3577C28.4944 13.4998 29.6154 13.7648 30.6317 14.2736C31.6481 14.7825 32.5318 15.5213 33.2127 16.4314C33.8937 17.3414 34.3531 18.3977 34.5546 19.5163C34.756 20.635 34.694 21.7852 34.3733 22.8756L31.8195 31.5584C31.4423 32.8407 30.66 33.9664 29.5896 34.7671C28.5193 35.5677 27.2184 36.0002 25.8818 35.9999H14.8185C13.0557 35.9996 11.3373 35.4472 9.9045 34.4204C9.53775 34.9108 9.06165 35.309 8.51404 35.5832C7.96643 35.8573 7.36242 36 6.75 35.9999H3.9375C2.89321 35.9999 1.89169 35.585 1.15327 34.8466C0.414843 34.1082 0 33.1066 0 32.0624L0 17.4373C0 15.2638 1.764 13.4998 3.9375 13.4998H11.6257C11.7251 13.4996 11.8226 13.473 11.9084 13.4228C11.9942 13.3726 12.0651 13.3006 12.114 13.2141L18.7808 1.4196ZM10.6875 30.7101L11.5785 31.4526C12.4875 32.2109 13.635 32.6249 14.8185 32.6249H25.8818C26.4894 32.6253 27.0809 32.4289 27.5676 32.0651C28.0543 31.7012 28.4101 31.1895 28.5818 30.6066L31.1355 21.9239C31.3083 21.3366 31.3418 20.7172 31.2334 20.1148C31.1249 19.5124 30.8775 18.9435 30.5108 18.4534C30.1441 17.9633 29.6682 17.5655 29.1209 17.2915C28.5735 17.0174 27.9699 16.8748 27.3577 16.8748H23.625C23.3638 16.8748 23.1063 16.8141 22.8725 16.6976C22.6388 16.5811 22.4353 16.412 22.2781 16.2035C22.1208 15.9949 22.0141 15.7528 21.9663 15.496C21.9185 15.2393 21.931 14.975 22.0028 14.7239L23.6475 8.96835C23.9259 7.99367 23.8176 6.94918 23.3453 6.0523C22.873 5.15542 22.0729 4.47524 21.1118 4.15335L15.0525 14.8746C14.7095 15.4815 14.2116 15.9865 13.6095 16.3379C13.0074 16.6893 12.3229 16.8746 11.6257 16.8748H10.6875V30.7101ZM7.3125 16.8748H3.9375C3.78832 16.8748 3.64524 16.9341 3.53975 17.0396C3.43426 17.1451 3.375 17.2882 3.375 17.4373V32.0624C3.375 32.3729 3.627 32.6249 3.9375 32.6249H6.75C6.89918 32.6249 7.04226 32.5656 7.14775 32.4601C7.25324 32.3546 7.3125 32.2115 7.3125 32.0624V16.8748Z" fill="#8EC92E"/>
</svg>
