<svg width="75" height="55" viewBox="0 0 75 55" fill="none" xmlns="http://www.w3.org/2000/svg">
<path d="M58.2677 54.9902C52.8871 54.8598 48.8845 52.968 46.2598 49.3151C43.7664 45.5316 42.5197 41.0959 42.5197 36.0078C42.5197 30.2674 43.7664 24.9837 46.2598 20.1566C48.7533 15.199 51.9029 11.0241 55.7087 7.63209C59.6457 4.10958 63.8451 1.56555 68.3071 0L75 9.98043C73.1627 11.0241 71.1942 12.5245 69.0945 14.4814C66.9948 16.3079 65.0919 18.3301 63.3858 20.5479C61.6798 22.6354 60.4987 24.6575 59.8425 26.6145C62.4672 26.7449 64.7638 27.3973 66.7323 28.5714C68.7008 29.7456 70.2756 31.3764 71.4567 33.4638C72.6378 35.4207 73.2283 37.8343 73.2283 40.7045C73.2283 45.4012 71.7192 48.9889 68.7008 51.4677C65.8137 53.9465 62.336 55.1207 58.2677 54.9902ZM15.9449 54.9902C10.4331 54.9902 6.36483 53.0985 3.74016 49.3151C1.24672 45.5316 0 41.0959 0 36.0078C0 30.2674 1.24672 24.9837 3.74016 20.1566C6.2336 15.199 9.3832 11.0241 13.189 7.63209C17.126 4.10958 21.2598 1.56555 25.5906 0L32.2835 9.98043C30.5774 11.0241 28.6745 12.5245 26.5748 14.4814C24.4751 16.3079 22.5722 18.3301 20.8661 20.5479C19.1601 22.6354 17.979 24.6575 17.3228 26.6145C19.8163 26.7449 22.0472 27.3973 24.0157 28.5714C26.1155 29.7456 27.7559 31.3764 28.937 33.4638C30.1181 35.4207 30.7087 37.8343 30.7087 40.7045C30.7087 45.4012 29.1995 48.9889 26.1811 51.4677C23.1627 53.816 19.7507 54.9902 15.9449 54.9902Z" fill="#3358A4"/>
</svg>
