<svg width="373" height="323" viewBox="0 0 373 323" fill="none" xmlns="http://www.w3.org/2000/svg">
<g clip-path="url(#clip0_4416_4003)">
<path d="M239.69 253.627C268.785 204.84 314.283 190.603 344.386 193.218C345.759 193.346 347.541 193.145 349.429 192.932L349.648 192.907C351.928 192.656 354.235 192.407 356.543 192.417C402.653 192.744 439.968 220.829 439.733 255.039C439.704 261.239 438.178 266.971 435.23 272.076C428.37 283.958 414.838 290.748 400.51 297.936L400.452 297.965L400.085 298.15C390.838 302.802 381.28 307.61 372.323 314.165C371.156 315.166 367.057 320.598 362.341 328.766C358.379 335.628 356.473 340.112 356.218 341.339C354.743 352.563 355.045 363.615 355.339 374.301L355.347 374.607C355.831 391.584 356.238 406.231 349.419 418.043C346.116 423.763 341.329 428.281 335.156 431.452C319.883 439.332 301.535 438.529 283.494 429.191C266.512 420.407 251.67 404.916 241.697 385.573C240.746 383.723 240.011 381.782 239.302 379.849C238.703 378.209 238.127 376.654 237.525 375.754C219.7 349.382 210.622 303.952 238.588 255.513L239.69 253.627Z" fill="#F8DAC3"/>
<path d="M273.782 96.0979C286.422 74.2047 319.03 70.1801 348.018 86.9163C376.995 103.646 389.81 133.903 377.173 155.791C364.536 177.679 331.922 181.714 302.945 164.985C273.957 148.248 261.142 117.991 273.782 96.0979Z" fill="#F8DAC3"/>
<path d="M121.378 360.067C134.015 338.179 166.628 334.144 195.616 350.88C224.593 367.61 237.405 397.871 224.769 419.759C212.132 441.647 179.518 445.683 150.54 428.953C121.553 412.217 108.741 381.955 121.378 360.067Z" fill="#F8DAC3"/>
<path d="M127.961 120.408C143.738 93.0806 186.397 88.0802 223.062 109.249C259.727 130.417 276.722 169.866 260.948 197.188C245.177 224.505 202.518 229.505 165.853 208.337C129.188 187.168 112.193 147.719 127.961 120.408Z" fill="#F8DAC3"/>
<path d="M67.1455 225.739C82.917 198.423 125.579 193.417 162.243 214.586C198.908 235.754 215.904 275.203 200.133 302.519C184.358 329.841 141.7 334.842 105.035 313.674C68.3699 292.505 51.3742 253.056 67.1455 225.739Z" fill="#F8DAC3"/>
</g>
<defs>
<clipPath id="clip0_4416_4003">
<path d="M0 0H373V227C373 280.019 330.019 323 277 323H0V0Z" fill="white"/>
</clipPath>
</defs>
</svg>
