<svg width="16" height="16" viewBox="0 0 16 16" fill="none" xmlns="http://www.w3.org/2000/svg">
<path fill-rule="evenodd" clip-rule="evenodd" d="M13.5312 0C14.186 0.000102127 14.8144 0.259694 15.2773 0.722656C15.7403 1.18562 15.9999 1.81403 16 2.46875V13.5312C15.9999 14.186 15.7403 14.8144 15.2773 15.2773C14.8144 15.7403 14.186 15.9999 13.5312 16H2.46875C1.81403 15.9999 1.18562 15.7403 0.722656 15.2773C0.259694 14.8144 0.000102127 14.186 0 13.5312V2.46875C0.000102155 1.81403 0.259694 1.18562 0.722656 0.722656C1.18562 0.259694 1.81403 0.000102155 2.46875 0H13.5312ZM2.46875 1.77734C2.28553 1.77745 2.11003 1.85091 1.98047 1.98047C1.85091 2.11003 1.77745 2.28553 1.77734 2.46875V12.8838L8.76367 5.89453H4.84375C4.59262 5.89447 4.35141 5.79479 4.17383 5.61719C3.9963 5.43955 3.89648 5.19843 3.89648 4.94727C3.89649 4.6961 3.99629 4.45498 4.17383 4.27734C4.35141 4.09974 4.59262 4.00006 4.84375 4H11.0527C11.3039 4 11.545 4.0997 11.7227 4.27734C11.9003 4.45499 12 4.69604 12 4.94727V11.1572C12 11.4085 11.9003 11.6495 11.7227 11.8271C11.545 12.0048 11.3039 12.1045 11.0527 12.1045C10.8016 12.1045 10.5604 12.0048 10.3828 11.8271C10.2052 11.6495 10.1055 11.4084 10.1055 11.1572V7.23633L3.12695 14.2148H13.627C13.6323 14.2132 13.9137 14.1253 14.0195 14.0195C14.1491 13.89 14.2226 13.7145 14.2227 13.5312V2.46875C14.2226 2.28553 14.1491 2.11003 14.0195 1.98047C13.89 1.8509 13.7145 1.77745 13.5312 1.77734H2.46875Z" fill="#3358A4"/>
</svg>
