<svg width="251" height="149" viewBox="0 0 251 149" fill="none" xmlns="http://www.w3.org/2000/svg">
<g clip-path="url(#clip0_4416_4296)">
<path d="M122.964 117.573C147.181 104.044 169.9 109.133 181.993 117.589C182.542 117.979 183.346 118.328 184.196 118.699L184.294 118.742C185.32 119.193 186.356 119.651 187.33 120.219C206.752 131.617 215.676 152.606 207.223 167.017C205.697 169.632 203.652 171.684 201.158 173.123C195.356 176.474 187.975 176.04 180.16 175.582L180.128 175.58L179.927 175.569C174.881 175.278 169.665 174.978 164.276 175.563C163.538 175.702 160.477 176.998 156.488 179.301C153.137 181.236 151.236 182.667 150.828 183.123C147.464 187.51 144.894 192.258 142.409 196.849L142.338 196.981C138.397 204.28 134.992 210.574 129.224 213.904C126.43 215.517 123.302 216.259 119.917 216.093C111.533 215.696 103.97 210.876 98.6195 202.521C93.5822 194.659 91.0876 184.484 91.593 173.868C91.6424 172.853 91.8062 171.853 91.9782 170.862C92.1253 170.022 92.2611 169.224 92.2267 168.696C91.1271 153.19 98.3808 131.76 122.037 118.102L122.964 117.573Z" fill="#DAE3F8"/>
<path d="M175.843 59.2764C186.535 53.1035 201.309 59.3629 209.482 73.5194C217.653 87.6707 215.684 103.597 204.995 109.768C194.305 115.939 179.527 109.682 171.357 95.5311C163.184 81.3747 165.152 65.4494 175.843 59.2764Z" fill="#DAE3F8"/>
<path d="M46.9331 133.701C57.6223 127.529 72.4018 133.786 80.5751 147.943C88.7452 162.094 86.774 178.022 76.0849 184.193C65.3959 190.364 50.6166 184.108 42.4463 169.957C34.273 155.8 36.2439 139.872 46.9331 133.701Z" fill="#DAE3F8"/>
<path d="M108.236 33.9499C121.581 26.2447 140.844 34.5469 151.182 52.4526C161.52 70.3582 159.075 91.1922 145.732 98.8958C132.392 106.598 113.129 98.2966 102.791 80.391C92.4534 62.4854 94.8978 41.6504 108.236 33.9499Z" fill="#DAE3F8"/>
<path d="M56.7971 63.6468C70.1374 55.9447 89.4027 64.2445 99.7405 82.1501C110.078 100.056 107.634 120.891 94.2937 128.593C80.9506 136.296 61.6875 127.994 51.3497 110.089C41.012 92.183 43.4568 71.3489 56.7971 63.6468Z" fill="#DAE3F8"/>
</g>
<defs>
<clipPath id="clip0_4416_4296">
<rect width="251" height="149" fill="white"/>
</clipPath>
</defs>
</svg>
