<svg width="193" height="184" viewBox="0 0 193 184" fill="none" xmlns="http://www.w3.org/2000/svg">
<path d="M115.508 73.5343C93.54 43.2489 96.7441 12.0123 106.149 -5.52784C106.583 -6.32527 106.925 -7.45668 107.286 -8.6545L107.327 -8.7929C107.768 -10.2378 108.217 -11.6997 108.823 -13.0943C121.001 -40.9168 147.695 -56.2044 168.339 -47.1739C172.085 -45.5451 175.157 -43.1314 177.481 -40.0209C182.89 -32.7817 183.484 -22.8273 184.111 -12.2883L184.114 -12.2448L184.13 -11.9744C184.543 -5.16934 184.97 1.86495 186.611 8.98908C186.914 9.95585 189.136 13.8482 192.854 18.824C195.978 23.0053 198.197 25.3252 198.873 25.798C205.283 29.6069 212.051 32.2947 218.594 34.8936L218.782 34.9682C229.183 39.0863 238.154 42.6463 243.531 49.8428C246.135 53.3277 247.626 57.3987 247.941 61.9586C248.742 73.2504 243.488 84.1464 233.148 92.6397C223.42 100.636 210.187 105.594 195.889 106.604C194.522 106.699 193.157 106.639 191.802 106.566C190.654 106.502 189.563 106.447 188.862 106.577C168.269 110.514 138.414 104.205 116.363 74.6927L115.508 73.5343Z" fill="#DAE3F8"/>
<path d="M29.0271 11.9709C19.0609 -1.36787 25.0965 -22.1488 42.7576 -35.345C60.4123 -48.5363 82.0552 -48.431 92.0193 -35.0956C101.983 -21.7601 95.9521 -0.971237 78.2973 12.2201C60.6359 25.4161 38.9936 25.3096 29.0271 11.9709Z" fill="#DAE3F8"/>
<path d="M149.191 172.799C139.227 159.464 145.259 138.676 162.92 125.48C180.575 112.289 202.22 112.397 212.184 125.733C222.148 139.068 216.116 159.856 198.462 173.047C180.8 186.244 159.155 186.135 149.191 172.799Z" fill="#DAE3F8"/>
<path d="M53.8004 170.721C41.365 154.078 49.4199 126.956 71.7585 110.264C94.0972 93.5735 122.39 93.5373 134.826 110.18C147.263 126.827 139.206 153.945 116.867 170.636C94.5283 187.327 66.2359 187.364 53.8004 170.721Z" fill="#DAE3F8"/>
<path d="M5.84954 106.545C-6.59077 89.8953 1.46678 62.7766 23.8053 46.0855C46.144 29.3945 74.4368 29.3582 86.8747 46.0046C99.31 62.6478 91.2523 89.766 68.9137 106.457C46.5751 123.148 18.2825 123.185 5.84954 106.545Z" fill="#DAE3F8"/>
</svg>
