<svg width="257" height="355" viewBox="0 0 257 355" fill="none" xmlns="http://www.w3.org/2000/svg">
<g clip-path="url(#clip0_4416_3967)">
<path d="M171.614 174.842C197.448 146.101 229.689 142.578 249.439 148.281C250.338 148.547 251.554 148.647 252.842 148.753L252.992 148.765C254.547 148.897 256.12 149.034 257.659 149.345C288.394 155.624 309.611 179.276 304.957 202.079C304.123 206.214 302.349 209.839 299.711 212.86C293.57 219.889 283.645 222.643 273.137 225.557L273.093 225.569L272.823 225.644C266.04 227.534 259.028 229.487 252.188 232.685C251.277 233.2 247.826 236.287 243.606 241.118C240.059 245.178 238.197 247.922 237.866 248.707C235.406 256.005 234.156 263.422 232.947 270.593L232.911 270.798C231.003 282.194 229.349 292.024 223.245 299.012C220.289 302.396 216.5 304.783 211.963 306.088C200.732 309.34 188.59 306.392 177.775 297.787C167.594 289.692 159.724 277.401 155.61 263.179C155.218 261.818 154.983 260.427 154.763 259.043C154.579 257.87 154.399 256.756 154.116 256.076C145.684 236.13 145.596 204.612 170.63 175.955L171.614 174.842Z" fill="#DAE3F8"/>
<path d="M215.078 74.1771C226.393 61.2254 248.687 62.8252 265.836 77.8067C282.979 92.7827 287.556 114.663 276.244 127.612C264.932 140.561 242.632 138.968 225.489 123.992C208.339 109.01 203.763 87.1292 215.078 74.1771Z" fill="#DAE3F8"/>
<path d="M78.6494 230.339C89.9616 217.39 112.262 218.983 129.411 233.965C146.554 248.941 151.128 270.825 139.816 283.774C128.503 296.722 106.204 295.129 89.0611 280.153C71.9119 265.171 67.3375 243.288 78.6494 230.339Z" fill="#DAE3F8"/>
<path d="M114.548 71.2343C128.672 55.0676 157.804 57.3377 179.495 76.2869C201.186 95.2361 207.345 123.802 193.224 139.966C179.106 156.126 149.975 153.857 128.284 134.908C106.592 115.959 100.433 87.3918 114.548 71.2343Z" fill="#DAE3F8"/>
<path d="M60.106 133.546C74.224 117.386 103.358 119.652 125.049 138.601C146.74 157.55 152.9 186.117 138.782 202.278C124.661 218.442 95.5289 216.172 73.8379 197.222C52.147 178.273 45.9881 149.707 60.106 133.546Z" fill="#DAE3F8"/>
</g>
<defs>
<clipPath id="clip0_4416_3967">
<rect width="257" height="355" fill="white"/>
</clipPath>
</defs>
</svg>
