<svg width="38" height="38" viewBox="0 0 38 38" fill="none" xmlns="http://www.w3.org/2000/svg">
<circle cx="19" cy="19" r="19" fill="url(#paint0_linear_4761_1647)"/>
<path fill-rule="evenodd" clip-rule="evenodd" d="M19.1555 26.1968C17.7349 26.1968 17.0747 25.9885 15.9271 25.1554C15.2012 26.0927 12.9026 26.8252 12.8023 25.5719C12.8023 24.6312 12.5949 23.8362 12.3599 22.9683C12.0799 21.899 11.7619 20.7083 11.7619 18.9829C11.7619 14.8621 15.1286 11.762 19.1175 11.762C23.1098 11.762 26.2381 15.0148 26.2381 19.0211C26.2514 22.9653 23.0827 26.1758 19.1555 26.1968ZM19.2143 15.3238C17.2717 15.2231 15.7577 16.5736 15.4224 18.6913C15.1459 20.4444 15.6367 22.5794 16.055 22.6905C16.2555 22.7391 16.7601 22.3295 17.0747 22.0136C17.5948 22.3745 18.2005 22.5912 18.8306 22.6419C20.8435 22.7392 22.5634 21.2001 22.6985 19.1808C22.7772 17.1571 21.2274 15.4431 19.2143 15.3273V15.3238Z" fill="white"/>
<defs>
<linearGradient id="paint0_linear_4761_1647" x1="4.47819" y1="28.9004" x2="38" y2="19" gradientUnits="userSpaceOnUse">
<stop stop-color="#44CCFF"/>
<stop offset="0.662" stop-color="#5533EE"/>
<stop offset="1" stop-color="#9933DD"/>
</linearGradient>
</defs>
</svg>
