<svg width="38" height="38" viewBox="0 0 38 38" fill="none" xmlns="http://www.w3.org/2000/svg">
<circle cx="19" cy="19" r="19" fill="url(#paint0_linear_4761_1650)"/>
<path d="M26.7705 11.0613L10.4687 17.3535C10.459 17.3572 10.4496 17.3617 10.4406 17.3668C10.3084 17.4415 9.38584 18.0044 10.6867 18.509L10.7 18.5139L14.5818 19.7648C14.6114 19.7744 14.6427 19.7774 14.6737 19.7737C14.7046 19.7699 14.7343 19.7595 14.7607 19.743L24.3886 13.7514C24.4122 13.7367 24.4385 13.7268 24.4659 13.7222C24.5999 13.7002 24.9856 13.6588 24.7416 13.9677C24.4656 14.3184 17.8894 20.1965 17.1595 20.8484C17.1174 20.8861 17.0914 20.9384 17.0867 20.9946L16.7682 24.7819C16.7682 24.8205 16.7771 24.8586 16.7944 24.8931C16.8117 24.9276 16.8368 24.9576 16.8677 24.9808C16.9116 25.0084 16.9632 25.0211 17.0149 25.0172C17.0666 25.0133 17.1157 24.9929 17.1549 24.959L19.4613 22.903C19.4977 22.8705 19.5442 22.8515 19.593 22.849C19.6418 22.8465 19.69 22.8607 19.7295 22.8893L23.7533 25.8035L23.7663 25.8122C23.8637 25.8722 24.9156 26.4827 25.2194 25.1193L27.9968 11.9461C28.0007 11.9043 28.0383 11.4456 27.7096 11.1746C27.3643 10.8912 26.8756 11.0343 26.8021 11.0497C26.7913 11.0527 26.7807 11.0566 26.7705 11.0613Z" fill="white"/>
<defs>
<linearGradient id="paint0_linear_4761_1650" x1="31" y1="4" x2="8.88126" y2="36.308" gradientUnits="userSpaceOnUse">
<stop stop-color="#20AEF5"/>
<stop offset="1" stop-color="#0087CC"/>
</linearGradient>
</defs>
</svg>
