<svg width="55" height="72" viewBox="0 0 55 72" fill="none" xmlns="http://www.w3.org/2000/svg">
<g clip-path="url(#clip0_4416_4088)">
<path d="M19.6589 2.88513C20.5512 3.05786 21.9087 2.58635 23.2756 1.55932C26.0142 -0.494759 28.767 -0.52277 31.5816 1.49863C32.2653 2.02116 33.0483 2.40392 33.8846 2.62439C34.7209 2.84486 35.5936 2.89859 36.4513 2.78242C39.8306 2.39495 42.3224 3.68342 43.6324 6.84389C44.1545 8.11835 45.1038 8.77192 46.3378 9.24809C49.9355 10.6486 51.2692 12.5159 51.2312 16.33C51.1737 17.572 51.6094 18.7874 52.4463 19.7192C54.9855 22.5669 55.3842 25.662 53.2769 28.9065C52.9546 29.3962 52.7492 29.9513 52.6761 30.5302C52.6029 31.109 52.6639 31.6967 52.8545 32.2491C53.8749 35.7317 52.6694 38.4953 49.7124 40.2926C47.5529 41.5998 47.5481 43.7846 46.67 45.6146C46.5087 45.9507 46.9501 46.6089 47.1826 47.0898C49.5589 52.0693 51.9448 57.0582 54.34 62.0565C54.5279 62.3986 54.6958 62.7508 54.8432 63.1115C55.2466 64.2693 54.8432 64.9415 53.5949 65.0069C52.4862 65.028 51.3771 64.9905 50.2725 64.8949C49.9531 64.8629 49.6361 64.8114 49.3232 64.7408C45.7113 64.1759 45.716 64.1806 43.8413 67.1777C43.0581 68.4381 42.3082 69.7219 41.4681 70.9124C40.4287 72.3689 39.4794 72.3129 38.6773 70.735C37.2534 67.8779 35.9244 64.9696 34.5528 62.0845C33.2523 59.3395 31.8853 56.6225 30.675 53.8355C30.4184 53.2202 29.986 52.6911 29.43 52.3125C28.8741 51.9338 28.2184 51.7218 27.5425 51.7021C26.2325 51.6274 25.0507 52.3977 24.4052 53.7702C22.4213 58.0044 20.3661 62.2012 18.3347 66.4121C17.6227 67.8873 16.9488 69.3811 16.1657 70.819C15.3825 72.2569 14.457 72.3549 13.522 70.9964C12.4352 69.467 11.4445 67.8737 10.5555 66.2253C9.7724 64.7315 8.65702 64.33 7.07176 64.5401C5.64787 64.7268 4.25246 64.8575 2.83806 65.0069C0.113693 65.273 -0.712158 64.4467 0.616803 61.8511C3.10386 56.996 5.36309 52.0476 7.76471 47.1364C8.16897 46.3177 8.23034 45.3756 7.93559 44.5128C7.51079 42.621 6.35523 40.9655 4.71285 39.8958C2.27801 38.2059 1.22433 35.811 2.07392 32.7626C2.31745 31.9826 2.38161 31.1591 2.26177 30.3517C2.14192 29.5443 1.84105 28.7732 1.38095 28.0942C-0.30873 25.508 0.0947181 22.875 1.98849 20.5268C3.12144 19.2253 3.75017 17.5718 3.76359 15.8585C3.82055 12.7167 5.32038 10.3265 8.50988 9.32279C9.21984 9.11974 9.87447 8.76271 10.4256 8.27797C10.9768 7.79323 11.4104 7.19311 11.6946 6.52177C13.0758 3.54803 15.6341 2.4463 19.6589 2.88513ZM48.9198 17.301C49.0954 13.627 48.4879 12.5439 45.6733 11.4235C43.6656 10.6253 42.2085 9.50485 41.4017 7.39009C40.647 5.37803 38.7058 4.49104 36.5652 5.0139C34.4246 5.53675 32.697 5.0139 31.0025 3.82347C28.2307 1.86276 26.7309 1.84875 23.9353 3.86081C22.3738 4.98589 20.7933 5.46673 18.8426 5.04657C16.4362 4.52372 14.699 5.3967 13.6216 7.61884C13.2268 8.50835 12.6477 9.30703 11.9211 9.96378C11.1945 10.6205 10.3366 11.1209 9.40219 11.4329C6.84869 12.3666 6.07978 13.4823 6.16522 16.1946C6.23271 17.1266 6.09508 18.0619 5.76172 18.9368C5.42836 19.8117 4.90709 20.6056 4.23347 21.2644C2.40141 23.0758 2.278 25.1392 3.51678 27.2306C4.09292 28.1152 4.46538 29.113 4.60804 30.1541C4.7507 31.1952 4.66013 32.2544 4.34264 33.2574C3.72088 35.3815 4.25246 37.3189 6.44524 38.3926C8.45767 39.3963 9.46389 41.0536 9.85783 43.1497C10.2518 45.2458 11.7563 46.4829 13.7972 46.5202C16.1704 46.5622 17.8411 47.4959 19.3646 49.1252C20.8882 50.7544 22.5921 51.324 24.6852 50.2269C25.5096 49.7553 26.4437 49.5007 27.3973 49.4876C28.3509 49.4745 29.2918 49.7034 30.1292 50.1522C32.3885 51.2959 34.2775 50.5397 35.8675 48.8637C36.4825 48.1542 37.2423 47.5797 38.0975 47.1776C38.9528 46.7755 39.8845 46.5547 40.8321 46.5296C43.0961 46.4502 44.8095 45.2738 45.194 42.9676C45.5642 40.7548 46.8362 39.3963 48.6682 38.2526C50.5003 37.1088 51.4543 35.3815 50.7044 33.0754C50.3973 32.1914 50.2946 31.2512 50.4039 30.3232C50.5131 29.3953 50.8314 28.503 51.3356 27.7114C52.0571 26.535 52.47 25.2092 52.0713 23.9114C51.6843 22.7416 51.088 21.6491 50.3105 20.6856C49.5076 19.7228 49.0225 18.5421 48.9198 17.301ZM9.8341 47.7853C7.64132 52.5097 5.08781 57.3601 2.76687 62.6961C4.9027 62.57 6.64459 62.6214 8.32952 62.3179C9.81511 62.0518 10.7027 62.416 11.4336 63.7184C12.3829 65.3897 13.4697 66.9863 14.7323 68.989C17.338 63.4803 19.7681 58.3498 22.2741 53.0419C20.0434 52.5751 18.5957 51.4733 17.2098 50.1429C16.4407 49.4991 15.5287 49.0417 14.5472 48.8077C13.0806 48.3595 11.5523 48.1401 9.8341 47.7853ZM40.1629 68.7929C41.4918 66.7949 42.6737 65.0583 43.7843 63.3123C43.9944 62.8963 44.3395 62.5612 44.7651 62.36C45.1906 62.1587 45.6722 62.1029 46.1337 62.2012C48.1414 62.4813 50.1681 62.626 52.3846 62.8455C49.8358 57.5936 47.382 52.5284 45.0848 47.7853C43.5185 48.1588 42.3224 48.4763 41.1169 48.719C39.9113 48.9618 38.5586 49.0925 37.6853 50.1195C36.3941 51.6142 34.6571 52.671 32.7207 53.1399C35.2173 58.3872 37.6331 63.485 40.1629 68.8069V68.7929Z" fill="#F8671C"/>
<path d="M27.5578 45.4652C25.0792 45.5047 22.617 45.0618 20.3131 44.162C18.0091 43.2621 15.9088 41.9231 14.1329 40.2219C12.357 38.5208 10.9406 36.491 9.96515 34.2494C8.98974 32.0079 8.47455 29.5987 8.44922 27.1606C8.44922 15.8725 18.0035 8.35649 27.6005 8.3098C37.3494 8.25845 46.7185 16.7128 46.524 27.1046C46.5154 29.5382 46.0167 31.946 45.0569 34.189C44.097 36.432 42.6948 38.4658 40.9314 40.1729C39.168 41.88 37.0783 43.2266 34.7829 44.135C32.4875 45.0433 30.0318 45.4954 27.5578 45.4652ZM10.7891 26.7218C10.4759 36.2265 18.4069 43.2991 27.2208 43.3691C36.8937 43.4485 44.1745 36.1005 44.3359 27.268C44.3916 25.083 44.0025 22.909 43.1916 20.8741C42.3806 18.8391 41.1642 16.9842 39.6138 15.4183C38.0634 13.8525 36.2103 12.6074 34.1635 11.7562C32.1168 10.905 29.9176 10.465 27.6954 10.4619C17.5146 10.4106 10.4949 18.8556 10.7891 26.7218Z" fill="#F8671C"/>
<path d="M27.629 24.6813C28.2874 24.6244 28.9503 24.7169 29.5666 24.9516C30.1829 25.1863 30.7362 25.557 31.184 26.0352C32.5221 27.3397 33.7895 28.7125 34.981 30.148C36.7609 32.3421 36.3337 35.1571 34.0887 36.6603C32.9971 37.3886 31.7678 37.7947 30.5195 37.2579C29.5888 36.8443 28.5808 36.6254 27.5596 36.6149C26.5383 36.6045 25.5259 36.8027 24.5867 37.1972C22.8827 37.8414 20.8276 37.0105 19.8024 35.582C19.2525 34.8168 18.9737 33.895 19.0088 32.9586C19.044 32.0223 19.3912 31.1232 19.997 30.4001C21.2405 28.9109 22.5885 27.501 23.9222 26.0819C24.3923 25.5881 24.9701 25.2056 25.6121 24.963C26.2542 24.7205 26.9437 24.6242 27.629 24.6813Z" fill="#F8671C"/>
<path d="M33.6987 20.0742C33.4614 21.4747 33.2341 21.9928 32.5553 22.7678C31.4969 23.9722 29.8547 23.7015 28.9624 22.3523C27.8565 20.6997 28.4878 17.8473 30.1774 16.7503C30.4137 16.5727 30.6868 16.4485 30.9774 16.3863C31.2679 16.3242 31.5688 16.3257 31.8587 16.3907C32.1486 16.4558 32.4204 16.5828 32.6548 16.7627C32.8892 16.9426 33.0805 17.1711 33.2151 17.4319C33.6043 18.1555 33.6987 19.1405 33.6987 20.0742Z" fill="#F8671C"/>
<path d="M26.3413 19.6068C26.4654 20.3859 26.5088 21.3285 26.3316 21.955C25.6624 23.6542 23.8968 24.0417 22.5346 22.8233C21.8778 22.1544 21.4449 21.3039 21.2939 20.3859C21.1428 19.468 21.281 18.5266 21.6898 17.6881C22.6105 16.0822 24.4379 15.8814 25.5295 17.394C26.1323 18.2156 26.2565 19.0747 26.3413 19.6068Z" fill="#F8671C"/>
<path d="M39.1559 24.2753C38.9186 25.6758 38.6532 26.9596 37.253 27.7159C36.3702 28.1827 35.4589 28.4488 34.6046 27.7766C34.2088 27.5076 33.9089 27.1232 33.7471 26.6776C33.5853 26.2321 33.5698 25.7477 33.7028 25.293C34.0288 24.2719 34.5278 23.3123 35.1789 22.4547C36.0048 21.423 36.9303 21.3063 37.9033 21.7544C38.9807 22.2539 39.1559 23.3417 39.1559 24.2753Z" fill="#F8671C"/>
<path d="M21.416 25.9604C21.4349 26.3613 21.3339 26.759 21.1256 27.1041C20.9172 27.4492 20.6106 27.7268 20.2437 27.9024C19.2137 28.4533 18.274 28.1358 17.3959 27.4356C16.8656 27.0282 16.4441 26.4999 16.1679 25.8964C15.8917 25.2929 15.7691 24.6323 15.8107 23.9717C15.7886 23.5036 15.9074 23.0396 16.1522 22.6377C16.3971 22.2357 16.7571 21.9138 17.1871 21.7122C18.0984 21.2827 18.91 21.6515 19.6172 22.1323C20.8132 22.9493 21.3211 24.1491 21.416 25.9604Z" fill="#F8671C"/>
</g>
<defs>
<clipPath id="clip0_4416_4088">
<rect width="55" height="72" fill="white"/>
</clipPath>
</defs>
</svg>
