<svg width="46" height="46" viewBox="0 0 46 46" fill="none" xmlns="http://www.w3.org/2000/svg">
<circle cx="23" cy="23" r="23" fill="url(#paint0_linear_4416_6097)"/>
<path d="M32.3807 13.39L12.6721 21.0166C12.6604 21.0211 12.649 21.0265 12.6381 21.0328C12.4783 21.1233 11.363 21.8055 12.9356 22.4171L12.9518 22.4231L17.6447 23.9392C17.6806 23.9509 17.7185 23.9545 17.7558 23.95C17.7932 23.9454 17.8291 23.9328 17.8611 23.9129L29.501 16.6505C29.5296 16.6327 29.5614 16.6207 29.5945 16.6152C29.7565 16.5885 30.2228 16.5383 29.9278 16.9128C29.5941 17.3378 21.6436 24.4625 20.7612 25.2526C20.7103 25.2983 20.6788 25.3617 20.6732 25.4299L20.2881 30.0204C20.2881 30.0672 20.2989 30.1133 20.3198 30.1551C20.3407 30.1969 20.371 30.2333 20.4084 30.2614C20.4615 30.2948 20.5239 30.3103 20.5864 30.3056C20.6489 30.3008 20.7083 30.2761 20.7557 30.235L23.544 27.743C23.588 27.7036 23.6442 27.6805 23.7032 27.6775C23.7622 27.6745 23.8205 27.6918 23.8683 27.7264L28.733 31.2586L28.7487 31.2692C28.8664 31.3419 30.1382 32.0819 30.5054 30.4293L33.8633 14.4624C33.868 14.4118 33.9135 13.8558 33.516 13.5273C33.0986 13.1838 32.5078 13.3572 32.419 13.3759C32.4059 13.3796 32.3931 13.3843 32.3807 13.39Z" fill="white"/>
<defs>
<linearGradient id="paint0_linear_4416_6097" x1="37.5263" y1="4.84211" x2="10.751" y2="43.9518" gradientUnits="userSpaceOnUse">
<stop stop-color="#20AEF5"/>
<stop offset="1" stop-color="#0087CC"/>
</linearGradient>
</defs>
</svg>
