<svg width="11" height="13" viewBox="0 0 11 13" fill="none" xmlns="http://www.w3.org/2000/svg">
<path d="M5.5 13C5.28132 13 5.0716 12.9161 4.91698 12.7669C4.76235 12.6176 4.67548 12.4152 4.67548 12.2041L4.67548 2.87909L1.44226 6.36734C1.37027 6.44594 1.2829 6.51002 1.18517 6.55591C1.08744 6.6018 0.981272 6.62859 0.872778 6.63473C0.764283 6.64087 0.655602 6.62624 0.552984 6.59169C0.450366 6.55714 0.355835 6.50335 0.27483 6.43341C0.193826 6.36347 0.127944 6.27875 0.0809753 6.18415C0.0340063 6.08954 0.0068768 5.9869 0.0011466 5.88214C-0.0045836 5.77737 0.0111985 5.67255 0.0475859 5.57369C0.0839732 5.47483 0.140247 5.3839 0.213172 5.30611L4.88546 0.265285C4.96279 0.181824 5.05751 0.115056 5.1634 0.0693424C5.2693 0.023629 5.384 -2.35342e-07 5.5 -2.40413e-07C5.616 -2.45483e-07 5.7307 0.0236289 5.8366 0.0693424C5.94249 0.115056 6.0372 0.181824 6.11454 0.265285L10.7868 5.30611C10.8598 5.3839 10.916 5.47483 10.9524 5.57369C10.9888 5.67255 11.0046 5.77737 10.9989 5.88214C10.9931 5.9869 10.966 6.08954 10.919 6.18415C10.8721 6.27875 10.8062 6.36346 10.7252 6.43341C10.6442 6.50335 10.5496 6.55714 10.447 6.59169C10.3444 6.62624 10.2357 6.64087 10.1272 6.63473C10.0187 6.62859 9.91256 6.6018 9.81483 6.55591C9.71709 6.51002 9.62973 6.44594 9.55774 6.36734L6.32452 2.87909L6.32452 12.2041C6.32452 12.3086 6.30319 12.4121 6.26176 12.5087C6.22032 12.6052 6.15959 12.693 6.08302 12.7669C6.00646 12.8408 5.91557 12.8994 5.81553 12.9394C5.7155 12.9794 5.60828 13 5.5 13Z" fill="#1E1E1D"/>
</svg>
