<svg width="63" height="57" viewBox="0 0 63 57" fill="none" xmlns="http://www.w3.org/2000/svg">
<path d="M40.5452 56.9653C36.8941 56.9653 34.1381 56.3387 31.5484 55.0456C31.3233 54.9182 31.0688 54.8512 30.8099 54.8512C30.5509 54.8512 30.2964 54.9182 30.0713 55.0456C24.7832 57.53 19.444 57.7304 14.1143 55.2047C7.96457 52.2845 4.22389 45.587 4.91288 38.751C5.065 37.4911 5.3005 36.2425 5.61785 35.0134C5.74414 34.479 5.64503 34.1641 5.26617 33.7696C0.871672 29.1938 -0.941116 23.8227 0.470429 17.5737C1.72851 12.0165 5.86563 8.36949 11.6253 7.56152C11.831 7.54707 12.0289 7.47729 12.1978 7.35964C12.3668 7.24198 12.5004 7.08087 12.5845 6.89352C16.4067 -0.077603 24.6058 -2.08162 31.2511 2.33358C31.6475 2.5976 31.9113 2.56579 32.3141 2.33358C37.0283 -0.370251 41.7218 -0.422734 46.3305 2.57534C48.1273 3.74435 49.4381 5.36983 50.4548 7.24661C50.6147 7.53926 51.0015 7.86849 51.3084 7.89394C57.0713 8.39972 61.891 12.8833 62.7894 19.0846C63.7086 25.4291 61.5873 30.7111 56.8044 34.9482C56.3456 35.3553 56.2145 35.675 56.336 36.2826C57.399 41.5773 56.5182 46.4776 53.0573 50.7386C49.6619 54.9295 45.1491 56.8588 40.5452 56.9653Z" fill="white"/>
</svg>
