<svg width="34" height="30" viewBox="0 0 34 30" fill="none" xmlns="http://www.w3.org/2000/svg">
<g clip-path="url(#clip0_4416_4024)">
<path d="M25.9663 17.0864C25.8617 16.9885 25.7525 16.8939 25.6511 16.7924C25.2824 16.4228 25.0883 15.9639 25.0079 15.4637C24.9382 15.0346 24.9134 14.5988 24.8695 14.1657C24.814 13.6184 24.7589 13.0711 24.704 12.5238C24.6592 12.0828 24.643 11.6432 24.7553 11.208C24.8639 10.788 25.0915 10.4454 25.4327 10.1727C25.85 9.83976 26.3317 9.65297 26.8532 9.55613C27.67 9.40443 28.4823 9.4003 29.2844 9.64317C29.8091 9.80192 30.2609 10.0678 30.5819 10.5204C30.8163 10.8516 30.9371 11.2255 31.0004 11.6211C31.0814 12.1266 31.0925 12.6359 31.1021 13.1469C31.102 13.261 31.1316 13.3731 31.1882 13.4725C31.4008 13.8458 31.4343 14.2487 31.3244 14.655C31.262 14.8851 31.1546 15.1043 31.0583 15.3246C31.001 15.4558 30.9248 15.5788 30.859 15.7066C30.7729 15.8743 30.7457 16.053 30.7526 16.2398C30.7582 16.3932 30.8243 16.4966 30.967 16.5631C31.2135 16.6784 31.4571 16.8003 31.7002 16.9228C32.163 17.1564 32.5993 17.4283 32.9597 17.8036C33.5003 18.3671 33.8083 19.0439 33.9258 19.8048C33.9671 20.071 33.989 20.3399 33.9912 20.6092C33.9999 21.8072 33.9978 23.0055 33.9999 24.204C33.9999 24.63 33.8691 25.0034 33.5542 25.3048C33.3922 25.4596 33.195 25.556 32.9859 25.6303C32.6255 25.7587 32.2636 25.8837 31.9027 26.0103C31.8432 26.0311 31.7844 26.0535 31.6775 26.0927C31.7391 26.1343 31.7778 26.1556 31.8108 26.1833C32.4922 26.7569 32.9141 27.475 33.0394 28.3539C33.1026 28.7965 33.0612 29.2351 32.9538 29.6673C32.9069 29.8565 32.7519 29.9781 32.5527 29.9962C32.483 30.0025 32.4132 29.9993 32.3435 29.9993H1.58536C1.55048 29.9993 1.5156 30.0003 1.48073 29.9993C1.25927 29.9895 1.10983 29.8723 1.0603 29.6568C0.744506 28.282 1.12099 27.1216 2.17493 26.1727C2.24224 26.1121 2.31268 26.0552 2.39586 25.9845C2.31687 25.9573 2.25793 25.9353 2.19794 25.9167C1.85459 25.8101 1.51072 25.7053 1.16772 25.5977C1.0793 25.5695 0.992401 25.5369 0.907374 25.5C0.318675 25.2464 0.0121193 24.796 0.00741105 24.1685C-0.00247035 22.804 -0.00247035 21.4395 0.00741105 20.075C0.0128168 19.3586 0.177778 18.6775 0.562804 18.0592C0.841808 17.612 1.19545 17.2336 1.64831 16.9606C2.07379 16.7037 2.51479 16.4711 2.95352 16.2364C3.19137 16.1091 3.24595 16.0226 3.21701 15.7577C3.19591 15.5645 3.1136 15.3965 3.0217 15.2286C2.92196 15.0475 2.81664 14.8685 2.73102 14.6808C2.54914 14.2828 2.497 13.8681 2.61105 13.44C2.63023 13.3683 2.64714 13.2907 2.68777 13.231C2.7978 13.0697 2.80251 12.8951 2.80478 12.709C2.81018 12.268 2.82553 11.8263 2.85709 11.3865C2.88691 10.9832 2.9952 10.5978 3.20445 10.2438C3.4845 9.76993 3.90772 9.47478 4.41882 9.28851C4.75903 9.16467 5.11337 9.09931 5.47293 9.06904C6.17916 9.00867 6.87772 9.04582 7.55936 9.25823C7.9484 9.37949 8.28861 9.58383 8.59133 9.84991C8.9284 10.1463 9.08534 10.5358 9.16678 10.9615C9.24908 11.3898 9.20322 11.817 9.16311 12.246C9.10818 12.8334 9.06564 13.4223 9.0264 14.011C8.99798 14.4347 8.96886 14.8571 8.84906 15.268C8.75699 15.5836 8.64486 15.8929 8.44102 16.1552C8.29715 16.3402 8.12539 16.504 7.95555 16.6884C7.98223 16.7056 8.02111 16.7339 8.06262 16.7584C8.52106 17.0277 8.93119 17.353 9.2571 17.7731C9.65451 18.2862 9.88364 18.8686 9.96647 19.5059C9.99518 19.7333 10.0096 19.9622 10.0097 20.1914C10.0146 21.3839 10.013 22.5764 10.0134 23.769C10.0143 23.8206 10.0126 23.8723 10.0083 23.9238C9.98635 24.136 9.82348 24.285 9.6144 24.285C9.51494 24.2849 9.41894 24.2489 9.34447 24.1839C9.27 24.1189 9.22218 24.0292 9.21002 23.9319C9.20521 23.8747 9.20398 23.8172 9.20636 23.7599C9.20636 22.5903 9.20497 21.4207 9.2081 20.2511C9.2095 19.7879 9.14219 19.3376 8.97758 18.903C8.81732 18.4797 8.55175 18.129 8.20596 17.8366C8.03908 17.6958 7.86016 17.5685 7.67986 17.4297C7.63836 17.4658 7.60575 17.4882 7.58081 17.5169C6.80466 18.4168 5.37668 18.5946 4.26136 17.8081C3.94312 17.5845 3.65609 17.3251 3.428 17.0079C3.4083 16.9806 3.38406 16.9563 3.3661 16.9353C3.35093 16.9353 3.34413 16.9335 3.3396 16.9353C2.85012 17.1743 2.36099 17.4159 1.92714 17.747C1.2591 18.2568 0.917314 18.9446 0.83588 19.7647C0.818442 19.947 0.81199 20.1311 0.811816 20.3151C0.811118 21.565 0.812106 22.8148 0.81478 24.0647C0.81478 24.0991 0.81478 24.1335 0.81478 24.1678C0.810246 24.4614 0.952713 24.6615 1.22509 24.7642C1.47428 24.8582 1.72765 24.9434 1.98294 25.0201C2.38819 25.1419 2.79746 25.2516 3.20358 25.3708C3.30352 25.4016 3.41133 25.3961 3.50752 25.3553C3.65282 25.2973 3.80147 25.2479 3.95271 25.2072C4.18271 25.146 4.36912 25.2442 4.43922 25.4515C4.50932 25.6587 4.42266 25.8515 4.21009 25.9449C4.12011 25.9843 4.02455 26.011 3.93213 26.045C3.20445 26.3137 2.59901 26.7378 2.17423 27.3913C1.83506 27.9129 1.69818 28.4805 1.77979 29.097C1.78345 29.1243 1.79269 29.151 1.80141 29.1869H32.2106C32.3391 28.4941 32.1737 27.8797 31.7747 27.3214C31.4252 26.8301 30.9419 26.4463 30.3807 26.2143C30.332 26.1955 30.2853 26.172 30.2412 26.1443C30.1627 26.0934 30.1055 26.0162 30.0802 25.927C30.0548 25.8378 30.063 25.7426 30.1033 25.6589C30.1878 25.4742 30.361 25.3894 30.5605 25.4353C30.5665 25.4359 30.5724 25.4375 30.5779 25.4399C30.7675 25.5636 30.9537 25.4977 31.1417 25.4338C31.6247 25.2693 32.1088 25.1082 32.5913 24.9425C32.6845 24.9102 32.7749 24.8707 32.8617 24.8244C33.0487 24.7258 33.1582 24.5717 33.1793 24.36C33.1843 24.3084 33.1866 24.2568 33.1866 24.2052C33.1866 23.0471 33.1858 21.8889 33.1842 20.7308C33.1842 20.3225 33.1462 19.9185 33.0335 19.5232C32.8365 18.8316 32.4441 18.2804 31.8177 17.9075C31.4751 17.7035 31.1173 17.5244 30.7657 17.3351C30.725 17.3161 30.6834 17.2993 30.6409 17.2847C30.5858 17.3526 30.5328 17.4194 30.4785 17.4849C30.0938 17.9493 29.6433 18.3277 29.0661 18.5418C28.1504 18.8824 27.1432 18.6945 26.3981 17.9266C26.3664 17.8935 26.3357 17.8595 26.2989 17.8199C26.2614 17.8389 26.2248 17.8543 26.1918 17.8748C25.2965 18.4391 24.8228 19.2508 24.7968 20.2926C24.7725 21.2322 24.79 22.1728 24.7889 23.1133C24.7889 23.3713 24.794 23.6293 24.7868 23.8873C24.7797 24.15 24.5994 24.3118 24.3509 24.2922C24.2602 24.2858 24.1746 24.2486 24.1087 24.1869C24.0427 24.1251 24.0006 24.0427 23.9894 23.9537C23.9845 23.908 23.9826 23.8621 23.9837 23.8161C23.9837 22.6809 23.9837 21.5457 23.9837 20.4106C23.9807 19.9799 24.0492 19.5517 24.1865 19.1429C24.4798 18.283 25.055 17.6529 25.8256 17.1808C25.865 17.1567 25.9058 17.1349 25.9452 17.1106C25.9532 17.1034 25.9603 17.0952 25.9663 17.0864ZM25.5653 12.9366C27.147 12.9357 28.7082 12.8575 30.2672 12.6397C30.2827 12.2243 30.2508 11.8325 30.142 11.4486C30 10.9498 29.6801 10.6112 29.1855 10.4349C29.1091 10.4077 29.0317 10.3833 28.9532 10.3616C28.3302 10.1965 27.7023 10.1937 27.0714 10.3117C26.6905 10.3829 26.3348 10.5142 26.0131 10.7323C25.7449 10.9139 25.5869 11.1622 25.5204 11.4736C25.4507 11.7985 25.4711 12.1235 25.503 12.449C25.5192 12.6062 25.5428 12.7635 25.5647 12.9357L25.5653 12.9366ZM8.30901 12.4985C8.32645 12.3864 8.3411 12.3026 8.35243 12.2183C8.3955 11.8999 8.43282 11.5819 8.40126 11.2589C8.35313 10.7667 8.13847 10.3826 7.66538 10.1753C7.46991 10.0893 7.27042 10.0052 7.06465 9.95018C6.54239 9.81104 6.0081 9.7971 5.47293 9.85541C5.0893 9.89738 4.72311 10.0013 4.37924 10.1831C4.15045 10.3035 3.9766 10.4755 3.87162 10.7077C3.81175 10.8379 3.76316 10.973 3.72637 11.1113C3.64162 11.4412 3.63604 11.7804 3.6247 12.1184C3.62331 12.1622 3.63063 12.2064 3.63569 12.2742L8.30901 12.4985ZM8.12382 14.8629C7.82982 14.7942 7.5428 14.7283 7.25629 14.6602C6.91608 14.5793 6.57326 14.5246 6.22171 14.5587C6.07157 14.5731 5.92196 14.5931 5.77216 14.6103C5.43736 14.6498 5.10255 14.6811 4.76548 14.632C4.70462 14.623 4.6422 14.6249 4.58326 14.622C4.52746 14.8377 4.48578 15.0398 4.42056 15.2343C4.38412 15.343 4.40016 15.4221 4.47689 15.4966C4.67916 15.6932 4.86767 15.9068 5.08721 16.0814C5.72439 16.5853 6.41143 16.6428 7.13179 16.2553C7.66451 15.9686 7.97874 15.5214 8.11789 14.9462C8.12214 14.9184 8.12395 14.8902 8.1233 14.8621L8.12382 14.8629ZM29.1486 15.1037C29.0239 15.1156 28.9025 15.1424 28.7834 15.1352C28.4889 15.117 28.1945 15.0891 27.9014 15.0539C27.6534 15.0239 27.4041 14.9727 27.1568 15.0164C26.7015 15.0967 26.25 15.1968 25.7906 15.2898C25.7965 15.3361 25.7991 15.3758 25.8068 15.4137C26.0003 16.3769 26.9631 16.8918 27.6334 16.8929C28.4115 16.8929 28.9259 16.4369 29.3789 15.9085C29.2978 15.6261 29.2242 15.369 29.148 15.1031L29.1486 15.1037ZM3.95184 13.0836L3.92568 13.1189C4.06152 13.2737 4.19195 13.4324 4.33425 13.5807C4.52345 13.7776 4.76322 13.8772 5.03716 13.8695C5.30361 13.8619 5.57093 13.8463 5.83512 13.8127C6.29966 13.7539 6.76124 13.7398 7.22072 13.843C7.47531 13.9003 7.72816 13.9648 7.9824 14.0239C8.05808 14.0411 8.13533 14.0523 8.22078 14.068C8.23211 13.8162 8.24257 13.5878 8.25216 13.3593C8.25102 13.3323 8.24817 13.3053 8.24362 13.2785L3.95184 13.0836ZM25.6987 14.5124C25.9346 14.4608 26.152 14.4219 26.3644 14.3671C26.9639 14.2123 27.5647 14.1836 28.1757 14.3022C28.3849 14.343 28.6026 14.3452 28.8167 14.3507C28.9274 14.355 29.0378 14.336 29.1406 14.2951C29.2433 14.2543 29.3361 14.1924 29.4129 14.1136C29.5831 13.9416 29.7442 13.7613 29.9074 13.5828C29.9268 13.5616 29.9327 13.5286 29.955 13.478C28.5131 13.6411 27.0891 13.7126 25.6479 13.7262C25.6659 13.9945 25.6812 14.2389 25.6987 14.5124ZM30.0457 16.7484C30.0128 16.6493 29.9817 16.5563 29.9456 16.4484C29.2554 17.2396 28.4552 17.7578 27.3589 17.6612C27.3697 17.6835 27.3718 17.697 27.3797 17.7026C27.403 17.7196 27.4276 17.7348 27.4532 17.748C27.8609 17.9544 28.284 17.9964 28.715 17.8375C29.2842 17.628 29.701 17.2317 30.0448 16.7491L30.0457 16.7484ZM4.01636 16.1674C3.98846 16.2668 3.91696 16.3416 3.98828 16.4367C4.28961 16.838 4.64307 17.1806 5.11616 17.3788C5.60825 17.5852 6.09755 17.5779 6.57448 17.3251C6.60534 17.3088 6.63098 17.2824 6.68765 17.2391C5.55803 17.4132 4.72921 16.9417 4.01548 16.1681L4.01636 16.1674ZM30.0776 15.4269C30.1566 15.288 30.221 15.1861 30.2733 15.08C30.3605 14.8998 30.4505 14.7188 30.5221 14.5327C30.5797 14.3832 30.5975 14.2231 30.542 14.064C30.5246 14.0711 30.5117 14.0726 30.505 14.08C30.324 14.2809 30.1453 14.484 29.9617 14.682C29.9431 14.6997 29.9299 14.7221 29.9235 14.7468C29.9172 14.7715 29.9179 14.7974 29.9258 14.8217C29.973 15.0116 30.0197 15.2004 30.0768 15.4276L30.0776 15.4269ZM3.38563 13.7341C3.34117 14.0938 3.48712 14.5253 3.72061 14.7513C3.75671 14.6037 3.79524 14.4612 3.82524 14.3165C3.83308 14.2773 3.82716 14.2202 3.80274 14.192C3.67301 14.042 3.53525 13.8977 3.38563 13.7341Z" fill="#F8671C"/>
<path d="M11.4895 24.5043C11.4895 24.4282 11.4895 24.3667 11.4895 24.3056C11.4942 23.9389 11.4895 23.5715 11.507 23.2048C11.5343 22.6465 11.6367 22.1021 11.8667 21.5858C12.257 20.71 12.8887 20.0649 13.7618 19.6505C14.06 19.5091 14.3652 19.382 14.6672 19.2485L14.8473 19.1687C14.8008 19.1137 14.7629 19.0669 14.7228 19.0218C14.2804 18.5248 13.9784 17.9596 13.8591 17.3039C13.7883 16.9144 13.7922 16.5299 13.9115 16.1481C13.9317 16.0768 13.9412 16.003 13.9397 15.929C13.9397 15.4417 13.931 14.9544 13.9397 14.467C13.9427 14.261 13.966 14.0558 14.0095 13.8543C14.1394 13.2632 14.4921 12.8368 15.0353 12.5594C15.4383 12.353 15.8694 12.2408 16.3168 12.1946C16.9732 12.1266 17.6281 12.1335 18.2749 12.2845C18.547 12.3462 18.8095 12.4434 19.0556 12.5735C19.6991 12.9175 20.0482 13.4546 20.1151 14.1689C20.1357 14.3856 20.1357 14.6044 20.1345 14.8218C20.131 15.2059 20.117 15.5896 20.1111 15.9742C20.1097 16.0313 20.1164 16.0884 20.131 16.1436C20.3252 16.8404 20.2267 17.5062 19.9107 18.1469C19.7629 18.4472 19.5672 18.7181 19.3527 18.9754C19.3088 19.028 19.2656 19.081 19.2118 19.1453C19.2601 19.1694 19.298 19.1904 19.3376 19.2076C19.6455 19.3421 19.9575 19.4682 20.2618 19.6114C21.3054 20.1039 21.9841 20.9078 22.3154 21.9984C22.486 22.5578 22.5355 23.1336 22.5468 23.7138C22.5507 23.9143 22.5524 24.115 22.5562 24.3158C22.5573 24.3717 22.5622 24.4276 22.5663 24.5032H22.7798C24.3198 24.5039 25.8598 24.5048 27.3997 24.506C27.4751 24.5036 27.5505 24.5087 27.6249 24.5211C27.8289 24.5629 27.9672 24.7359 27.9572 24.926C27.9469 25.1216 27.7991 25.2715 27.5877 25.2967C27.5298 25.3025 27.4716 25.3049 27.4134 25.3039C20.5909 25.3032 13.7684 25.3022 6.94576 25.301C6.86425 25.3028 6.78271 25.2995 6.70163 25.291C6.50528 25.2654 6.37136 25.1236 6.35846 24.937C6.34503 24.7427 6.46308 24.5738 6.65752 24.5278C6.73738 24.5115 6.8189 24.5045 6.90042 24.5068C8.35357 24.5051 9.80637 24.5043 11.2588 24.5043H11.4895ZM19.6678 24.4962V24.2726C19.6678 24.0605 19.6617 23.8481 19.6694 23.6362C19.6714 23.5434 19.7066 23.4543 19.7687 23.3847C19.8309 23.3151 19.9161 23.2694 20.0091 23.2557C20.1049 23.2411 20.2028 23.261 20.2849 23.3117C20.3671 23.3624 20.428 23.4406 20.4566 23.532C20.4729 23.5928 20.4805 23.6556 20.4794 23.7186C20.4824 23.9191 20.481 24.1197 20.4813 24.3206V24.4914H21.763C21.7499 23.8674 21.7684 23.2545 21.6491 22.6491C21.4224 21.4967 20.7839 20.6661 19.676 20.2055C19.5327 20.146 19.3869 20.0927 19.245 20.0377C19.1184 20.1925 19.0108 20.3431 18.8852 20.4768C18.2052 21.1992 17.3749 21.4572 16.403 21.225C15.7831 21.0762 15.3169 20.6962 14.9382 20.2024C14.9007 20.1534 14.8648 20.103 14.8161 20.037C14.523 20.1746 14.2334 20.2932 13.9596 20.4408C13.1859 20.8591 12.688 21.4965 12.4542 22.3347C12.2584 23.0361 12.2833 23.7528 12.3026 24.4692C12.3026 24.4736 12.3091 24.4778 12.3126 24.4821C12.4917 24.5165 13.4054 24.5115 13.5498 24.4721C13.5498 24.4205 13.5498 24.3634 13.5498 24.307V23.7738C13.5498 23.7451 13.5514 23.7163 13.5498 23.6878C13.5378 23.42 13.7303 23.2461 13.9545 23.2435C14.1891 23.2408 14.3587 23.4236 14.3622 23.6857C14.365 23.8921 14.3622 24.0985 14.3622 24.3049V24.4962H19.6678ZM19.3152 15.3614C19.3238 15.1247 19.3369 14.9073 19.3377 14.6906C19.3404 14.5303 19.3322 14.3701 19.3132 14.2109C19.2532 13.7582 19.0249 13.4157 18.5982 13.2231C18.4349 13.1476 18.2646 13.0877 18.0897 13.0441C17.4942 12.9027 16.8914 12.912 16.2886 12.9947C15.9709 13.0354 15.6635 13.1333 15.3818 13.2837C15.0444 13.4665 14.8306 13.7405 14.779 14.1185C14.7497 14.3332 14.7483 14.552 14.7417 14.7692C14.7359 14.9629 14.7406 15.1569 14.7406 15.3616L19.3152 15.3614ZM14.7056 17.3985C14.7173 17.4443 14.723 17.4778 14.7342 17.5089C14.9691 18.1328 15.3487 18.6512 15.9097 19.0258C16.6551 19.5246 17.5314 19.4931 18.2463 18.9513C18.6976 18.6094 19.0244 18.1684 19.2612 17.6613C19.2987 17.5807 19.3215 17.4936 19.3581 17.3898C19.2066 17.4611 19.0854 17.5291 18.9571 17.5769C18.6551 17.6894 18.3419 17.6825 18.0289 17.6342C17.7997 17.5986 17.5729 17.5482 17.3434 17.5155C16.9693 17.461 16.6032 17.5304 16.2375 17.5979C15.9163 17.657 15.5923 17.7045 15.2713 17.6151C15.0821 17.5614 14.9044 17.4756 14.7056 17.3985ZM14.7649 16.1732C14.809 16.3143 14.8984 16.4192 14.9807 16.527C15.2043 16.8194 15.5051 16.9298 15.8685 16.8805C16.035 16.8579 16.201 16.8299 16.3669 16.8017C16.7519 16.7362 17.1376 16.6985 17.527 16.7637C17.7615 16.8027 17.9954 16.8462 18.2306 16.88C18.7157 16.9488 19.1618 16.6605 19.3135 16.1732H14.7649ZM18.4125 19.7704C17.4817 20.2929 16.5674 20.2912 15.65 19.8003C16.3843 20.784 17.7567 20.7392 18.4125 19.7704Z" fill="#F8671C"/>
<path d="M15.8214 2.20984C15.8214 2.03784 15.8214 1.88305 15.8214 1.72945C15.8214 1.31098 15.8204 0.892512 15.8246 0.47387C15.8237 0.394139 15.8372 0.314891 15.8643 0.239781C15.9273 0.0787912 16.0776 -0.00755151 16.25 0.00122037C16.3291 0.00360439 16.4054 0.0305441 16.468 0.0781989C16.5306 0.125854 16.5764 0.191791 16.5988 0.266613C16.619 0.332107 16.6289 0.400258 16.6283 0.46871C16.6302 1.1395 16.6302 1.81029 16.6283 2.48108C16.6283 2.82645 16.4713 2.97179 16.1212 2.99897C14.9914 3.0872 13.9287 3.38235 12.9939 4.04334C12.8857 4.12243 12.786 4.21216 12.6962 4.31114C15.6059 4.06828 18.5089 4.04781 21.4245 4.31114C21.3492 4.24234 21.277 4.17096 21.1978 4.10732C20.7136 3.71706 20.1573 3.4613 19.5655 3.27829C19.0483 3.11851 18.5182 3.01531 17.9755 2.99364C17.666 2.98228 17.4606 2.77589 17.4662 2.46457C17.478 1.81098 17.4684 1.15739 17.4721 0.503797C17.471 0.412586 17.4863 0.321909 17.5174 0.235997C17.5839 0.0667514 17.7584 -0.0219992 17.9408 0.00397239C18.0248 0.0164482 18.1024 0.0553598 18.1621 0.114904C18.2218 0.174448 18.2604 0.251433 18.2721 0.33438C18.2797 0.39715 18.2826 0.46039 18.2807 0.523577C18.2816 1.01664 18.2819 1.5097 18.2815 2.00276V2.20313C18.3258 2.21741 18.3709 2.2289 18.4167 2.23753C18.8839 2.29324 19.3457 2.38667 19.7974 2.51686C20.5777 2.74269 21.2875 3.0946 21.8835 3.65067C22.1301 3.88063 22.3445 4.13587 22.5112 4.4281C22.5606 4.51409 22.6255 4.55727 22.7224 4.58582C22.961 4.65599 23.1981 4.73442 23.4292 4.82575C23.6761 4.9231 23.8302 5.11024 23.9012 5.36462C24.0665 5.95629 24.2093 6.55141 24.2521 7.16699C24.2746 7.49223 24.1701 7.76382 23.9425 7.99257C23.7373 8.19897 23.4953 8.35859 23.2347 8.4881C22.6337 8.78634 21.9944 8.97313 21.3413 9.11967C19.8307 9.45885 18.2979 9.56274 16.7535 9.54072C15.6715 9.52524 14.594 9.45627 13.5236 9.2946C12.7285 9.1742 11.9542 8.97829 11.2098 8.67317C10.886 8.54056 10.5821 8.3732 10.309 8.15614C10.0666 7.96333 9.88177 7.7277 9.85003 7.4126C9.83416 7.25505 9.85125 7.09217 9.86938 6.93341C9.92885 6.41432 10.0399 5.90504 10.1833 5.40263C10.2588 5.13931 10.4075 4.93411 10.6689 4.8316C10.9109 4.73666 11.1603 4.6596 11.407 4.57653C11.4726 4.55434 11.5356 4.54007 11.5739 4.46834C11.9532 3.7592 12.56 3.29635 13.2689 2.93963C13.8928 2.62522 14.5554 2.44599 15.2355 2.31149C15.4226 2.27468 15.6115 2.24596 15.8214 2.20984ZM17.1057 8.7485C18.4561 8.73853 19.7704 8.6625 21.0629 8.36478C21.6287 8.23457 22.1942 8.0999 22.7195 7.84878C22.9167 7.7547 23.1008 7.63172 23.2841 7.51184C23.4095 7.42997 23.4534 7.30716 23.4423 7.15409C23.4046 6.63672 23.2853 6.13603 23.1423 5.63947C23.1341 5.60594 23.1168 5.57525 23.0922 5.55073C23.0676 5.52621 23.0367 5.50878 23.0028 5.50033C22.8257 5.44598 22.6514 5.37873 22.4711 5.33848C21.7213 5.17113 20.9589 5.08977 20.1941 5.0337C18.9187 4.94002 17.6413 4.90527 16.362 4.92947C14.9616 4.95578 13.5631 5.01375 12.1769 5.23339C11.8339 5.28826 11.4932 5.35585 11.1636 5.4735C11.0438 5.51632 10.9683 5.57842 10.9411 5.70776C10.8888 5.95973 10.8122 6.20741 10.7646 6.46025C10.7183 6.70741 10.6949 6.95904 10.6616 7.20844C10.6441 7.34225 10.6992 7.44235 10.8049 7.51975C10.87 7.5674 10.9324 7.62295 11.0042 7.65735C11.2639 7.78446 11.519 7.92584 11.7903 8.02181C12.4197 8.24541 13.0704 8.39591 13.7313 8.49825C14.8587 8.67351 15.9949 8.73526 17.1057 8.7485Z" fill="#F8671C"/>
<path d="M2.61989 21.8687C2.61989 21.5135 2.61815 21.1583 2.62111 20.8033C2.61975 20.7233 2.62913 20.6435 2.64902 20.566C2.70133 20.3816 2.88216 20.2722 3.07973 20.2937C3.26335 20.3138 3.39361 20.4442 3.41488 20.633C3.41961 20.6903 3.42118 20.7477 3.41959 20.805C3.41959 21.481 3.4236 22.1569 3.41593 22.8327C3.41331 23.0617 3.49684 23.2335 3.68953 23.3532C4.00864 23.5518 4.32984 23.7471 4.65052 23.9431C4.95638 24.13 5.26247 24.3168 5.5688 24.5033C5.61869 24.5326 5.66652 24.5652 5.71196 24.6009C5.87291 24.7326 5.91023 24.9412 5.80613 25.1103C5.70202 25.2794 5.49608 25.3449 5.30427 25.2679C5.25635 25.2474 5.21021 25.223 5.16633 25.1951C4.55322 24.8233 3.93941 24.4524 3.32839 24.0771C3.20878 24.0064 3.09708 23.9235 2.99516 23.8296C2.74562 23.5914 2.62408 23.2933 2.62129 22.9512C2.61833 22.59 2.62129 22.2288 2.62129 21.8687H2.61989Z" fill="#F8671C"/>
<path d="M31.3761 22.0617C31.3761 22.3713 31.3733 22.6808 31.3761 22.9904C31.3815 23.4686 31.1949 23.8472 30.7832 24.1084C30.1629 24.5014 29.5414 24.8925 28.9187 25.2818C28.875 25.3099 28.8277 25.3325 28.7782 25.3489C28.6859 25.3784 28.586 25.3744 28.4964 25.3376C28.4069 25.3008 28.3336 25.2336 28.2899 25.1482C28.2028 24.9762 28.2462 24.7804 28.415 24.6604C28.5655 24.5534 28.7247 24.4583 28.882 24.3607C29.339 24.0773 29.7933 23.7894 30.2559 23.5149C30.4791 23.3824 30.5767 23.2044 30.5739 22.9497C30.5671 22.3369 30.5717 21.724 30.5722 21.1112C30.5722 21.0482 30.5705 20.9848 30.5767 20.922C30.5843 20.8298 30.6254 20.7434 30.6925 20.6787C30.7596 20.6141 30.8481 20.5755 30.9417 20.5701C31.151 20.5553 31.3147 20.6733 31.3602 20.8785C31.3715 20.9404 31.3764 21.0033 31.3747 21.0661C31.3768 21.3972 31.3761 21.7299 31.3761 22.0617Z" fill="#F8671C"/>
<path d="M17.6154 6.2941C18.2686 6.28275 19.2324 6.3168 20.1936 6.40813C20.888 6.47418 21.5764 6.58013 22.2544 6.74611C22.4033 6.78326 22.5275 6.84397 22.5909 6.98966C22.6506 7.12725 22.6419 7.26107 22.5467 7.37889C22.4439 7.50565 22.3041 7.5557 22.1428 7.52595C21.9259 7.48604 21.7112 7.43444 21.4943 7.39488C20.4116 7.19829 19.3181 7.11005 18.2183 7.09372C17.096 7.07652 15.9747 7.10937 14.8562 7.20156C13.947 7.27672 13.0427 7.3954 12.1515 7.59285C12.0172 7.62244 11.8868 7.62295 11.7663 7.54228C11.5248 7.38061 11.5284 7.04349 11.7787 6.89764C11.8488 6.85709 11.9255 6.82876 12.0053 6.81387C12.5133 6.72048 13.0201 6.61642 13.5313 6.54573C14.782 6.37305 16.0408 6.307 17.6154 6.2941Z" fill="#F8671C"/>
<path d="M14.0914 8.22446C13.7695 8.21191 13.5487 8.19798 13.3416 8.11267C13.2357 8.06898 13.1112 8.02443 13.1133 7.88408C13.1154 7.75629 13.2277 7.70279 13.3309 7.66461C13.7653 7.50431 14.2047 7.50156 14.6423 7.65051C14.7518 7.68852 14.8668 7.74648 14.8675 7.88408C14.8682 8.02168 14.749 8.08222 14.6393 8.11129C14.4278 8.16719 14.2103 8.20073 14.0914 8.22446Z" fill="#F8671C"/>
<path d="M19.9629 8.22178C19.852 8.19942 19.646 8.1688 19.4473 8.11342C19.3351 8.08194 19.2075 8.0257 19.2131 7.87554C19.2173 7.73795 19.3351 7.68635 19.4434 7.64868C19.868 7.50489 20.2965 7.50747 20.7204 7.65023C20.8336 7.68824 20.961 7.74104 20.9589 7.88844C20.957 8.02759 20.8311 8.06887 20.7256 8.11204C20.5125 8.19684 20.2869 8.21163 19.9629 8.22178Z" fill="#F8671C"/>
<path d="M17.0556 7.61523C17.2529 7.64963 17.4422 7.67406 17.6276 7.71637C17.7059 7.73737 17.7783 7.77566 17.8393 7.82834C17.9481 7.91881 17.9439 8.03474 17.8297 8.1185C17.7691 8.16274 17.7009 8.19595 17.6285 8.21654C17.2469 8.32447 16.8423 8.32554 16.4601 8.21963C16.3932 8.20069 16.3299 8.17093 16.2729 8.13157C16.1428 8.04265 16.1372 7.9164 16.2629 7.8194C16.3256 7.76863 16.3988 7.732 16.4774 7.71207C16.6689 7.67113 16.864 7.64637 17.0556 7.61523Z" fill="#F8671C"/>
</g>
<defs>
<clipPath id="clip0_4416_4024">
<rect width="34" height="30" fill="white"/>
</clipPath>
</defs>
</svg>
