<svg width="31" height="31" viewBox="0 0 31 31" fill="none" xmlns="http://www.w3.org/2000/svg">
<path d="M23.6761 11.6734C23.6761 10.4266 22.6653 9.41582 21.4185 9.41581C20.1717 9.41581 19.1609 10.4266 19.1609 11.6734C19.1609 12.9202 20.1717 13.931 21.4185 13.931C22.6653 13.931 23.6761 12.9202 23.6761 11.6734ZM24.6925 11.6734C24.6925 13.4816 23.2267 14.9474 21.4185 14.9474C19.6104 14.9474 18.1445 13.4816 18.1445 11.6734C18.1445 9.86524 19.6104 8.39941 21.4185 8.39941C23.2267 8.39942 24.6925 9.86525 24.6925 11.6734Z" fill="#F8671C"/>
<path d="M22.2348 14.0288C22.6924 14.4549 22.9727 15.1344 23.1411 15.7484C23.3135 16.3777 23.3942 17.0346 23.3947 17.5058L23.3917 17.7539C23.3536 18.9914 22.9528 20.1924 22.2363 21.2066C21.4721 22.2884 20.3872 23.1027 19.135 23.5347C17.8829 23.9666 16.5267 23.9946 15.2581 23.6141C13.9894 23.2335 12.8722 22.4638 12.0645 21.414L12.8704 20.7942C13.5483 21.6751 14.4857 22.321 15.5504 22.6404C16.615 22.9596 17.7533 22.9363 18.804 22.5739C19.8547 22.2114 20.7652 21.5282 21.4065 20.6205C22.0479 19.7127 22.3877 18.6262 22.3783 17.5147V17.5103C22.3783 17.1341 22.3112 16.5651 22.1609 16.0169C22.0059 15.4516 21.7867 15.0001 21.542 14.7722L22.2348 14.0288Z" fill="#F8671C"/>
<path d="M24.5165 12.0005C25.7195 13.583 26.3578 15.5228 26.3299 17.5103C26.3295 19.5292 25.6704 21.4931 24.4525 23.1034C23.2347 24.7135 21.5248 25.8823 19.5824 26.4325C17.64 26.9826 15.5708 26.8841 13.6895 26.1516C11.8082 25.419 10.217 24.0927 9.15795 22.3739L9.15547 22.3694C8.94337 22.0177 8.76074 21.649 8.60956 21.2671L9.55449 20.8929C9.68441 21.2211 9.84143 21.538 10.0235 21.8403L10.2056 22.1232C11.1444 23.5165 12.4878 24.5926 14.0583 25.2042C15.7335 25.8564 17.5758 25.9446 19.3055 25.4548C21.0351 24.9649 22.5577 23.9242 23.6421 22.4905C24.7265 21.0567 25.3136 19.308 25.314 17.5103V17.5028C25.3403 15.74 24.7745 14.0194 23.7076 12.6159L24.5165 12.0005Z" fill="#F8671C"/>
<path d="M16.2556 20.5718C16.5363 20.5718 16.7638 20.7993 16.7638 21.08C16.7638 21.3606 16.5363 21.5882 16.2556 21.5882H5.178C4.89733 21.5882 4.6698 21.3606 4.6698 21.08C4.6698 20.7993 4.89733 20.5718 5.178 20.5718H16.2556Z" fill="#F8671C"/>
<path d="M22.6307 28.1133C22.9114 28.1133 23.1389 28.3408 23.1389 28.6215C23.1389 28.9021 22.9114 29.1297 22.6307 29.1297H11.5531C11.2724 29.1297 11.0449 28.9021 11.0449 28.6215C11.0449 28.3408 11.2724 28.1133 11.5531 28.1133H22.6307Z" fill="#F8671C"/>
<path d="M19.6977 3.32408C20.29 2.71487 21.266 2.70747 21.8674 3.3077L25.2432 6.67649C25.825 7.25719 25.8417 8.19459 25.2809 8.79563L23.9221 10.2522L23.1786 9.55842L24.5379 8.10232C24.7248 7.90196 24.719 7.58915 24.525 7.39561L21.1498 4.02731C20.9493 3.82722 20.6237 3.82967 20.4262 4.03277L13.0251 11.6453C12.8319 11.8442 12.8335 12.1614 13.0291 12.358L16.0271 15.3719C16.2228 15.5686 16.54 15.5722 16.7398 15.3799L19.0272 13.1768L19.7324 13.9089L17.445 16.1119C16.8454 16.6893 15.893 16.6788 15.306 16.0885L12.3085 13.0746C11.7218 12.4847 11.7166 11.5332 12.2966 10.9366L19.6977 3.32408Z" fill="#F8671C"/>
<path d="M23.1013 1.66414C23.1663 1.67059 23.2305 1.68331 23.2929 1.70236L23.3852 1.73561L23.4736 1.77779C23.5584 1.82345 23.6359 1.88166 23.7043 1.95L23.7048 1.94951L26.5143 4.7297L26.5168 4.73268L26.5198 4.73516C26.7016 4.92067 26.8031 5.17021 26.8031 5.42996C26.8031 5.68783 26.7025 5.9352 26.5232 6.12029L25.2929 7.40418L24.5594 6.70095L25.7768 5.43046L23.0036 2.6855L21.7822 3.93068L21.0566 3.21901L22.2969 1.95497L22.2988 1.95298C22.3911 1.86001 22.5006 1.78599 22.6214 1.73561C22.7424 1.68522 22.8725 1.65918 23.0036 1.65918L23.1013 1.66414Z" fill="#F8671C"/>
<path d="M13.3584 13.2445L12.5822 14.5929C12.4681 14.7912 12.5007 15.0412 12.6616 15.2038L13.3916 15.9418C13.5551 16.107 13.8101 16.1404 14.0105 16.0227L15.3584 15.2311L15.8731 16.1076L14.5251 16.8992C13.924 17.2521 13.1599 17.1524 12.6695 16.657L11.939 15.919C11.4563 15.4312 11.3589 14.6805 11.7013 14.0857L12.4775 12.7373L13.3584 13.2445Z" fill="#F8671C"/>
<path d="M15.3857 26.294C15.2654 26.4825 15.1494 26.8651 15.0671 27.3481C14.9881 27.8114 14.9519 28.2928 14.9519 28.6216H13.9355C13.9356 28.2334 13.9769 27.6949 14.0651 27.1774C14.1499 26.6797 14.2905 26.1203 14.5286 25.7471L15.3857 26.294Z" fill="#F8671C"/>
<path d="M19.4818 25.853C19.9018 26.7974 20.1273 27.8167 20.1453 28.8501L19.1289 28.868C19.1133 27.9708 18.9174 27.0858 18.5527 26.2659L19.4818 25.853Z" fill="#F8671C"/>
</svg>
