<svg width="41" height="29" viewBox="0 0 41 29" fill="none" xmlns="http://www.w3.org/2000/svg">
<g clip-path="url(#clip0_4416_4037)">
<path d="M25.0214 20.2587C25.1111 21.1099 25.1964 21.892 25.2926 22.7913C26.0143 22.8059 26.7295 22.8101 27.4446 22.8373C27.7836 22.8498 28.2669 22.739 28.2713 23.2555C28.2713 23.7386 27.8339 23.7344 27.4621 23.7365C25.824 23.7365 24.1816 23.7365 22.5457 23.7533C21.9399 23.7533 21.8087 23.4458 21.9027 22.8582H24.2581C24.1794 21.9506 24.1072 21.1433 24.0263 20.2169C23.5342 20.2169 23.0706 20.2169 22.6091 20.2169C22.3569 20.2389 22.1026 20.2126 21.8612 20.1395C21.7789 20.0814 21.7105 20.0071 21.6607 19.9216C21.6109 19.8361 21.5809 19.7414 21.5725 19.6439C21.5725 19.5498 21.7912 19.3636 21.9202 19.3365C22.2104 19.3027 22.5032 19.2943 22.795 19.3114C25.017 19.3114 27.239 19.3114 29.4611 19.3114C30.6508 19.3114 30.8629 19.1022 30.8651 17.9708C30.8651 12.7802 30.8651 7.59034 30.8651 2.40114C30.8651 2.26102 30.8651 2.12091 30.8651 1.98288C30.8236 1.19655 30.6202 0.991606 29.8328 0.937232C29.6513 0.924685 29.4676 0.937232 29.2861 0.937232H11.1339C10.9153 0.925605 10.6963 0.925605 10.4778 0.937232C9.90694 1.00206 9.74291 1.161 9.68824 1.7382C9.65981 2.01425 9.68824 2.29448 9.68824 2.57472C9.68824 5.81483 9.68824 9.05425 9.68824 12.293C9.71443 12.6056 9.70195 12.9201 9.65106 13.2299C9.61894 13.3345 9.56309 13.4312 9.48749 13.5128C9.41189 13.5945 9.3184 13.6593 9.21366 13.7025C8.89216 13.7945 8.77625 13.5352 8.77625 13.2654C8.77625 12.9956 8.75876 12.7781 8.75876 12.5335C8.75876 9.05146 8.80468 5.56736 8.73688 2.07699C8.71283 0.847307 9.46954 -0.0394028 10.9501 -0.00385076C14.0798 0.0672533 17.2138 0.0128796 20.3543 0.0128796C23.4438 0.0128796 26.5348 0.0128796 29.6273 0.0128796C31.1997 0.0128796 31.8143 0.596351 31.8143 2.08535C31.8143 7.3833 31.8143 12.6813 31.8143 17.9792C31.8143 19.5226 31.0948 20.2085 29.4939 20.2169C28.4004 20.2169 27.3068 20.2169 26.2133 20.2169C25.8525 20.2106 25.496 20.2378 25.0214 20.2587Z" fill="#F8671C"/>
<path d="M11.0001 28.9977C8.12414 28.9977 5.24602 28.9977 2.37009 28.9977C0.594237 28.9977 -0.158095 28.2302 0.016866 26.5237C0.222446 24.5558 0.491448 22.592 0.747329 20.6283C0.933225 19.1832 1.15411 17.7402 1.33564 16.2931C1.4931 15.0257 2.14265 14.3544 3.47017 14.1809C3.83301 14.1399 4.1984 14.1231 4.56367 14.1307C8.96833 14.1307 13.3737 14.1307 17.7798 14.1307C17.9985 14.1307 18.2172 14.1307 18.4359 14.1307C19.8531 14.2499 20.4939 14.8877 20.6623 16.2429C20.9029 18.1731 21.1959 20.0971 21.4474 22.0274C21.6486 23.577 21.8542 25.1288 21.9942 26.6847C22.1232 28.1319 21.2681 28.9851 19.7438 28.9851C16.8328 29.004 13.9197 28.9977 11.0001 28.9977ZM10.9869 28.0984C13.8301 28.0984 16.6732 28.0984 19.5163 28.0984C20.846 28.0984 21.1216 27.8056 21.021 26.5279C20.9576 25.7311 20.8569 24.9364 20.752 24.1438C20.413 21.5945 20.0587 19.0473 19.7197 16.4959C19.5819 15.4733 19.256 15.1491 18.1888 15.1387C16.3714 15.1219 14.5562 15.1387 12.7387 15.1387C9.75128 15.1387 6.76381 15.1387 3.77197 15.1387C2.66534 15.1387 2.39197 15.4524 2.26512 16.4855C1.95894 18.9699 1.60901 21.4481 1.27878 23.9284C1.14755 24.9301 1.00102 25.9298 0.937601 26.9336C0.8873 27.6948 1.23285 28.0169 2.01798 28.0901C2.30667 28.1173 2.59973 28.1047 2.89279 28.1047L10.9869 28.0984Z" fill="#F8671C"/>
<path d="M40.5437 21.7412C40.5437 23.2051 40.5437 24.669 40.5437 26.1329C40.5437 27.5968 39.7782 28.3099 38.2758 28.3497C37.8037 28.3748 37.3306 28.3748 36.8586 28.3497C35.6426 28.2514 34.9624 27.5132 34.9646 26.3462C34.9646 24.0848 34.9704 21.8241 34.9821 19.5641C34.9821 18.5966 34.9741 17.6276 34.9581 16.6572C34.9581 16.5297 34.9274 16.3435 34.8378 16.2829C34.3282 15.942 34.4004 15.4464 34.4004 14.957C34.4004 14.2627 34.3872 13.5663 34.4004 12.8657C34.4288 12.0292 34.6475 11.795 35.4939 11.7803C37.0219 11.7594 38.5528 11.7594 40.0866 11.7803C40.7427 11.7803 40.9614 11.9706 40.9811 12.5771C41.0139 13.5496 40.9811 14.5241 40.9811 15.5049C40.9811 15.6095 41.0008 15.7454 40.9417 15.8124C40.3031 16.5359 40.5568 17.3976 40.5371 18.209C40.5065 19.3906 40.5371 20.5721 40.5371 21.7642L40.5437 21.7412ZM39.5552 16.3038H35.9881C35.9685 16.6907 35.9357 17.0295 35.9357 17.3662C35.9357 20.0486 35.932 22.7304 35.9247 25.4114C35.9247 26.9171 35.612 27.5613 38.0636 27.4609C39.2774 27.4107 39.5945 27.1325 39.5945 25.9489C39.5945 23.021 39.5945 20.0932 39.5945 17.1654C39.6011 16.8936 39.5727 16.6217 39.5552 16.2954V16.3038ZM35.3998 12.7151V15.3523C36.2353 15.3523 36.9942 15.3523 37.7552 15.3523C38.5163 15.3523 39.2468 15.3293 39.9773 15.3167V12.7068L35.3998 12.7151Z" fill="#F8671C"/>
<path d="M24.0908 5.88248C24.6704 5.5667 25.239 5.1819 25.9979 5.38266C27.4719 5.77792 28.198 7.41959 27.2467 8.62417C26.4244 9.66982 25.3396 10.5189 24.3598 11.4432C24.1017 11.6837 23.8065 11.5917 23.5812 11.3805C22.6496 10.5022 21.6457 9.68028 20.8278 8.7141C20.5949 8.44378 20.4386 8.12083 20.3737 7.77617C20.3088 7.4315 20.3375 7.07668 20.4572 6.74569C20.5768 6.41469 20.7833 6.11861 21.0569 5.88581C21.3305 5.65301 21.662 5.49128 22.0197 5.41612C22.3698 5.35139 22.731 5.36644 23.0739 5.46004C23.426 5.56988 23.7665 5.71132 24.0908 5.88248ZM24.0755 10.5398C24.8803 9.78693 25.7048 9.10935 26.4091 8.3293C26.6451 8.08114 26.7693 7.75393 26.7546 7.41875C26.7398 7.08356 26.5874 6.76748 26.3303 6.53915C25.7967 6.0958 25.2915 6.13344 24.5807 6.67508C24.0143 7.10798 24.0077 7.11635 23.4391 6.66463C23.0323 6.34257 22.6277 6.08116 22.0656 6.31747C21.263 6.65417 21.0246 7.46559 21.5757 8.22892C22.245 9.1449 23.1438 9.8434 24.0755 10.5398Z" fill="#F8671C"/>
<path d="M11.4769 26.7098C8.50691 26.6513 6.03121 26.0615 3.78296 24.7148C2.94314 24.2128 2.92565 24.1668 3.44616 23.3219C4.64902 21.3701 5.86499 19.4294 7.0941 17.4998C7.57743 16.7406 7.60586 16.7365 8.45005 17.1401C10.1559 17.9557 11.8487 18.0372 13.572 17.1714C14.4184 16.7532 14.4665 16.7657 14.9411 17.5165C16.2008 19.5116 17.446 21.5186 18.6765 23.5374C19.0265 24.1083 18.9871 24.2338 18.3616 24.6332C16.9012 25.5593 15.2552 26.1846 13.5283 26.4693C12.7497 26.5969 11.9449 26.6555 11.4769 26.7098ZM15.2079 19.75C12.4173 21.1595 9.61791 21.055 6.83384 19.7019C5.90286 21.0535 5.04444 22.4495 4.26191 23.8845C8.08482 26.4505 14.3637 26.3606 17.7208 23.8301C17.0057 22.636 16.2861 21.4314 15.5622 20.2331C15.4529 20.0663 15.3347 19.9051 15.2079 19.75ZM7.33467 18.8612C9.6704 20.3063 13.3337 20.0219 14.6481 18.7943C14.5693 18.6416 14.5015 18.4806 14.4075 18.3342C14.3134 18.1878 14.2019 18.0665 14.0576 17.8825C12.0389 18.9679 10.0203 18.8717 7.9864 17.8825C7.74146 18.2422 7.55118 18.5182 7.32592 18.8612H7.33467Z" fill="#F8671C"/>
<path d="M22.2726 18.2133C22.6821 18.2133 23.014 17.8959 23.014 17.5044C23.014 17.1128 22.6821 16.7954 22.2726 16.7954C21.8631 16.7954 21.5312 17.1128 21.5312 17.5044C21.5312 17.8959 21.8631 18.2133 22.2726 18.2133Z" fill="#F8671C"/>
<path d="M38.5083 23.4119C38.7124 23.4119 38.8779 23.2537 38.8779 23.0585C38.8779 22.8633 38.7124 22.7051 38.5083 22.7051C38.3042 22.7051 38.1387 22.8633 38.1387 23.0585C38.1387 23.2537 38.3042 23.4119 38.5083 23.4119Z" fill="#F8671C"/>
<path d="M38.8798 24.351C38.8798 24.1558 38.7144 23.9976 38.5102 23.9976C38.3061 23.9976 38.1406 24.1558 38.1406 24.351V26.1181C38.1406 26.3133 38.3061 26.4716 38.5102 26.4716C38.7144 26.4716 38.8798 26.3133 38.8798 26.1181V24.351Z" fill="#F8671C"/>
<path d="M18.2547 11.8639H18.2175C18.1195 11.8555 18.0264 11.8192 17.9503 11.7595C17.8742 11.6998 17.8187 11.6196 17.791 11.5293L16.4482 7.1836L15.6849 9.0825C15.6491 9.17118 15.5861 9.24741 15.5041 9.30117C15.4221 9.35493 15.325 9.38368 15.2256 9.38364H12.9686C12.8381 9.38364 12.713 9.33407 12.6207 9.24582C12.5284 9.15758 12.4766 9.0379 12.4766 8.9131C12.4766 8.78831 12.5284 8.66862 12.6207 8.58038C12.713 8.49213 12.8381 8.44256 12.9686 8.44256H14.8735L16.0414 5.55239C16.0784 5.46051 16.1446 5.38204 16.2307 5.32804C16.3168 5.27405 16.4185 5.24724 16.5214 5.2514C16.6242 5.25555 16.7232 5.29046 16.8042 5.35121C16.8852 5.41196 16.9443 5.49549 16.9731 5.59003L18.3771 10.1323L19.3307 8.34427C19.3582 8.28623 19.3977 8.23413 19.4468 8.19113C19.496 8.14813 19.5538 8.11513 19.6167 8.09412C19.6796 8.07311 19.7463 8.06454 19.8128 8.06892C19.8792 8.0733 19.9441 8.09054 20.0034 8.11959C20.0627 8.14865 20.1152 8.18892 20.1577 8.23796C20.2002 8.287 20.2319 8.34379 20.2508 8.40489C20.2697 8.46598 20.2754 8.53011 20.2676 8.59338C20.2599 8.65666 20.2387 8.71776 20.2055 8.77298L18.6921 11.6171C18.6493 11.6923 18.5861 11.7549 18.509 11.7984C18.432 11.8418 18.3441 11.8645 18.2547 11.8639Z" fill="#F8671C"/>
<path d="M28.5681 14.7688H21.3072C21.1767 14.7688 21.0515 14.7193 20.9592 14.631C20.8669 14.5428 20.8151 14.4231 20.8151 14.2983C20.8151 14.1735 20.8669 14.0538 20.9592 13.9656C21.0515 13.8773 21.1767 13.8278 21.3072 13.8278H28.5681C28.5893 13.8278 28.6104 13.8238 28.63 13.816C28.6496 13.8082 28.6675 13.7968 28.6825 13.7824C28.6975 13.7681 28.7094 13.751 28.7176 13.7322C28.7257 13.7135 28.7299 13.6933 28.7299 13.673V3.2228C28.7299 3.18176 28.7129 3.14239 28.6825 3.11337C28.6521 3.08435 28.611 3.06804 28.5681 3.06804H12.0933C12.0503 3.06804 12.0092 3.08435 11.9788 3.11337C11.9485 3.14239 11.9314 3.18176 11.9314 3.2228V14.2042C11.9314 14.329 11.8796 14.4487 11.7873 14.5369C11.695 14.6252 11.5699 14.6747 11.4393 14.6747C11.3088 14.6747 11.1837 14.6252 11.0914 14.5369C10.9991 14.4487 10.9473 14.329 10.9473 14.2042V3.2228C10.9478 2.93234 11.0688 2.65393 11.2836 2.44854C11.4984 2.24315 11.7895 2.12751 12.0933 2.12696H28.5615C28.7125 2.12641 28.8621 2.15433 29.0017 2.20913C29.1414 2.26393 29.2684 2.34453 29.3754 2.44632C29.4825 2.5481 29.5675 2.66908 29.6256 2.80231C29.6837 2.93555 29.7138 3.07844 29.7141 3.2228V13.6793C29.7118 13.9687 29.5901 14.2455 29.3755 14.4495C29.1609 14.6535 28.8707 14.7683 28.5681 14.7688Z" fill="#F8671C"/>
</g>
<defs>
<clipPath id="clip0_4416_4037">
<rect width="41" height="29" fill="white"/>
</clipPath>
</defs>
</svg>
