<svg width="27" height="31" viewBox="0 0 27 31" fill="none" xmlns="http://www.w3.org/2000/svg">
<g clip-path="url(#clip0_4416_4076)">
<path d="M13.5101 16.2407C11.3064 16.2374 9.19392 15.3811 7.63568 13.8593C6.07744 12.3375 5.20056 10.2744 5.19727 8.12228C5.20056 5.97014 6.07744 3.90707 7.63568 2.38528C9.19392 0.863488 11.3064 0.00712721 13.5101 0.00390625C15.7138 0.00712721 17.8262 0.863488 19.3845 2.38528C20.9427 3.90707 21.8196 5.97014 21.8229 8.12228C21.8196 10.2744 20.9427 12.3375 19.3845 13.8593C17.8262 15.3811 15.7138 16.2374 13.5101 16.2407ZM13.5101 0.913166C11.5535 0.915315 9.67776 1.67532 8.29427 3.02644C6.91079 4.37757 6.13258 6.20947 6.13038 8.12025C6.13477 10.0296 6.91396 11.8594 8.2972 13.2088C9.68045 14.5582 11.555 15.3171 13.5101 15.3192C15.4666 15.3171 17.3424 14.5571 18.7259 13.2059C20.1094 11.8548 20.8876 10.0229 20.8898 8.11213C20.8865 6.20206 20.1078 4.3712 18.7244 3.02095C17.341 1.6707 15.4659 0.911252 13.5101 0.909106V0.913166Z" fill="#F8671C"/>
<path d="M26.4804 31.0002C26.4188 31.0002 26.3579 30.9883 26.301 30.9653C26.2441 30.9422 26.1925 30.9084 26.149 30.8658C26.1056 30.8231 26.0712 30.7726 26.0478 30.7169C26.0244 30.6613 26.0125 30.6017 26.0128 30.5415V28.5282C26.0117 28.5106 26.0117 28.493 26.0128 28.4754C26.0128 28.4247 26.5802 23.3365 23.334 19.7766C21.1935 17.4283 17.8787 16.239 13.4833 16.239C13.3593 16.239 13.2404 16.1909 13.1527 16.1052C13.065 16.0196 13.0157 15.9035 13.0157 15.7823C13.0157 15.6612 13.065 15.5451 13.1527 15.4594C13.2404 15.3738 13.3593 15.3257 13.4833 15.3257C18.1614 15.3257 21.713 16.6206 24.0385 19.1819C27.4717 22.9529 26.9958 28.0857 26.948 28.5607V30.5415C26.9483 30.6017 26.9364 30.6613 26.913 30.7169C26.8896 30.7726 26.8552 30.8231 26.8118 30.8658C26.7683 30.9084 26.7167 30.9422 26.6598 30.9653C26.603 30.9883 26.542 31.0002 26.4804 31.0002Z" fill="#F8671C"/>
<path d="M0.518062 31C0.456481 31 0.395509 30.9881 0.338642 30.965C0.281775 30.9419 0.230131 30.9081 0.186683 30.8655C0.143236 30.8229 0.108839 30.7723 0.0854623 30.7167C0.062086 30.661 0.0501926 30.6014 0.0504663 30.5413V28.5543C-0.00148879 28.0794 -0.475319 22.9465 2.95995 19.1756C5.28546 16.6203 8.83503 15.3193 13.5131 15.3193C13.6371 15.3193 13.756 15.3674 13.8437 15.4531C13.9314 15.5387 13.9807 15.6549 13.9807 15.776C13.9807 15.8971 13.9314 16.0133 13.8437 16.0989C13.756 16.1845 13.6371 16.2327 13.5131 16.2327C9.11767 16.2327 5.80501 17.422 3.66446 19.7702C0.414155 23.3383 0.987737 28.4264 0.987737 28.4772C0.988817 28.4948 0.988817 28.5124 0.987737 28.53V30.5413C0.988012 30.6016 0.976057 30.6614 0.952551 30.7171C0.929045 30.7729 0.894453 30.8236 0.850785 30.8662C0.807116 30.9089 0.755236 30.9426 0.698129 30.9656C0.641021 30.9886 0.579817 31.0002 0.518062 31Z" fill="#F8671C"/>
<path d="M7.0926 23.9432C7.03112 23.9435 6.97019 23.9319 6.91333 23.909C6.85648 23.8862 6.80482 23.8526 6.76135 23.8101C6.71787 23.7676 6.68344 23.7172 6.66004 23.6617C6.63664 23.6061 6.62473 23.5466 6.625 23.4866V20.2047C6.625 16.7077 10.6546 15.4027 10.8251 15.3479C10.8836 15.3296 10.9453 15.3228 11.0065 15.3278C11.0678 15.3327 11.1274 15.3495 11.182 15.377C11.2366 15.4045 11.2852 15.4423 11.3248 15.4881C11.3645 15.534 11.3945 15.587 11.4132 15.6442C11.4323 15.7013 11.4396 15.7614 11.4347 15.8212C11.4299 15.881 11.413 15.9393 11.385 15.9927C11.357 16.0461 11.3184 16.0936 11.2715 16.1323C11.2247 16.1711 11.1704 16.2004 11.1118 16.2186C11.0765 16.2186 7.5602 17.3775 7.5602 20.2047V23.4866C7.5602 23.5466 7.5481 23.6059 7.5246 23.6613C7.5011 23.7167 7.46666 23.7671 7.42324 23.8095C7.37982 23.8519 7.32827 23.8855 7.27154 23.9085C7.21481 23.9314 7.15401 23.9432 7.0926 23.9432Z" fill="#F8671C"/>
<path d="M19.558 21.3816C19.4339 21.3816 19.315 21.3335 19.2273 21.2478C19.1396 21.1622 19.0904 21.046 19.0904 20.9249V20.2044C19.0904 17.3772 15.572 16.2284 15.5366 16.2183C15.4186 16.1806 15.3206 16.0989 15.2641 15.9908C15.2077 15.8828 15.1973 15.7574 15.2353 15.6419C15.2739 15.5271 15.3573 15.4317 15.4674 15.3766C15.5775 15.3215 15.7055 15.3111 15.8234 15.3476C15.9959 15.4024 20.0256 16.7074 20.0256 20.2044V20.9249C20.0256 20.9849 20.0135 21.0443 19.99 21.0997C19.9665 21.1551 19.932 21.2054 19.8886 21.2478C19.8452 21.2902 19.7936 21.3239 19.7369 21.3468C19.6802 21.3698 19.6194 21.3816 19.558 21.3816Z" fill="#F8671C"/>
<path d="M7.09345 27.915C6.43289 27.9123 5.80015 27.6548 5.33306 27.1987C4.86596 26.7425 4.60234 26.1246 4.59961 25.4795C4.60234 24.8343 4.86596 24.2164 5.33306 23.7602C5.80015 23.3041 6.43289 23.0466 7.09345 23.0439C7.75402 23.0466 8.38675 23.3041 8.85385 23.7602C9.32094 24.2164 9.58456 24.8343 9.58729 25.4795C9.58729 26.1254 9.32455 26.7449 8.85687 27.2016C8.38918 27.6584 7.75486 27.915 7.09345 27.915ZM7.09345 23.9431C6.67911 23.9436 6.28181 24.1042 5.98824 24.3897C5.69467 24.6753 5.52869 25.0626 5.52649 25.4673C5.52704 25.8728 5.69237 26.2615 5.98617 26.5481C6.27998 26.8346 6.67823 26.9956 7.09345 26.9956C7.50832 26.995 7.90603 26.8338 8.19939 26.5473C8.49274 26.2609 8.65778 25.8724 8.65833 25.4673C8.65668 25.0628 8.49116 24.6755 8.19793 24.3898C7.90469 24.1042 7.5076 23.9436 7.09345 23.9431Z" fill="#F8671C"/>
<path d="M21.8778 28.8222C21.7153 28.819 21.5552 28.7831 21.4075 28.7168C21.2598 28.6504 21.1278 28.5551 21.0195 28.4366C20.934 28.3485 20.8877 28.2309 20.8908 28.1095C20.894 27.9882 20.9462 27.873 21.0361 27.7892C21.1263 27.7063 21.2462 27.6615 21.37 27.6645C21.4938 27.6676 21.6113 27.7182 21.697 27.8054C21.8279 27.9414 21.9048 27.913 21.9568 27.8907C22.2664 27.7709 22.5678 27.2371 22.5678 26.9956V25.2806C22.5678 21.8303 19.7352 21.3818 19.6147 21.3655C19.5538 21.3571 19.4952 21.337 19.4423 21.3064C19.3893 21.2757 19.3431 21.2352 19.3062 21.1872C19.2694 21.1391 19.2426 21.0844 19.2274 21.0262C19.2122 20.968 19.2089 20.9074 19.2177 20.848C19.2261 20.7885 19.2465 20.7312 19.2778 20.6794C19.3091 20.6277 19.3506 20.5826 19.3999 20.5467C19.4493 20.5108 19.5054 20.4849 19.5651 20.4704C19.6248 20.4559 19.6869 20.4532 19.7477 20.4623C19.7872 20.4623 23.503 21.0428 23.503 25.2806V26.9956C23.503 27.6045 22.9917 28.4711 22.3059 28.739C22.1698 28.7927 22.0246 28.8209 21.8778 28.8222Z" fill="#F8671C"/>
<path d="M21.8444 28.7918C21.2646 28.7918 20.8281 28.4529 20.8281 28.0044C20.8281 27.5558 21.2646 27.2148 21.8444 27.2148C22.4242 27.2148 22.8606 27.5538 22.8606 28.0044C22.8606 28.4549 22.4242 28.7918 21.8444 28.7918Z" fill="#F8671C"/>
<path d="M17.3244 28.8222C17.1776 28.8209 17.0324 28.7927 16.8963 28.739C16.2105 28.4711 15.6992 27.5964 15.6992 26.9956V25.2806C15.6992 21.0428 19.415 20.4664 19.4525 20.4623C19.5132 20.4532 19.5753 20.4559 19.635 20.4704C19.6947 20.4849 19.7509 20.5108 19.8002 20.5467C19.8495 20.5826 19.891 20.6277 19.9223 20.6794C19.9536 20.7312 19.974 20.7885 19.9824 20.848C20.0003 20.9674 19.969 21.0889 19.8954 21.1859C19.8218 21.2829 19.7118 21.3475 19.5896 21.3655C19.4628 21.3838 16.6344 21.8526 16.6344 25.2806V26.9956C16.6344 27.2371 16.9357 27.7709 17.2433 27.8907C17.3015 27.913 17.3722 27.9414 17.5052 27.8054C17.5906 27.7177 17.7083 27.6667 17.8322 27.6637C17.9561 27.6606 18.0762 27.7058 18.166 27.7892C18.2557 27.8733 18.3076 27.9886 18.3103 28.11C18.313 28.2313 18.2664 28.3488 18.1806 28.4366C18.0727 28.555 17.941 28.6504 17.7937 28.7167C17.6464 28.7831 17.4866 28.819 17.3244 28.8222Z" fill="#F8671C"/>
<path d="M17.358 28.7918C16.7782 28.7918 16.3418 28.4529 16.3418 28.0044C16.3418 27.5558 16.7782 27.2148 17.358 27.2148C17.9379 27.2148 18.3743 27.5538 18.3743 28.0044C18.3743 28.4549 17.9358 28.7918 17.358 28.7918Z" fill="#F8671C"/>
</g>
<defs>
<clipPath id="clip0_4416_4076">
<rect width="27" height="31" fill="white"/>
</clipPath>
</defs>
</svg>
