<svg width="37" height="33" viewBox="0 0 37 33" fill="none" xmlns="http://www.w3.org/2000/svg">
<g clip-path="url(#clip0_4416_4018)">
<path d="M3.64961 16.3832H2.10258C1.81466 16.3966 1.5261 16.3869 1.23981 16.3544C0.686943 16.2581 0.220839 16.0199 0.0522514 15.44C-0.0180404 15.2073 -0.0142167 14.9594 0.063207 14.7289C0.140631 14.4983 0.28804 14.2958 0.486116 14.148C1.25798 13.4839 2.03811 12.831 2.82651 12.1894C6.20322 9.43035 9.58158 6.67374 12.9616 3.91953C14.2243 2.88971 15.4822 1.85346 16.735 0.81081C17.9994 -0.245478 18.8671 -0.279164 20.1266 0.750657C23.9743 3.89466 27.818 7.04588 31.6575 10.2043C33.145 11.4074 34.6325 12.6104 36.1201 13.8279C36.663 14.2707 37.2531 14.7302 36.8911 15.5387C36.5638 16.275 35.8821 16.4049 35.1358 16.3881C34.5259 16.3736 33.9185 16.3881 33.1822 16.3881V17.8005C33.1822 22.1315 33.1822 26.4625 33.1822 30.7815C33.1822 32.2372 32.4012 32.947 30.8765 32.9927C30.7104 32.9927 30.5443 32.9927 30.3807 32.9927H6.59494C6.34701 32.9927 6.09909 32.9927 5.85117 32.9927C4.68345 32.9302 3.93473 32.3142 3.71656 31.1929C3.65237 30.7951 3.62581 30.3924 3.63722 29.9899C3.63722 25.9797 3.63722 21.9735 3.63722 17.9713L3.64961 16.3832ZM1.01419 15.2163C1.33648 15.2762 1.66167 15.3204 1.98853 15.3486C2.60833 15.3679 3.22814 15.3486 3.84795 15.3655C4.55701 15.3943 4.7132 15.5267 4.7975 16.2004C4.8361 16.6002 4.84853 17.0021 4.83469 17.4034C4.79668 21.6478 4.75617 25.8931 4.7132 30.1391C4.69832 31.6068 5.05534 31.9581 6.59742 31.9581H30.1352C30.3831 31.9581 30.6311 31.9581 30.879 31.9581C31.8013 31.9196 32.0616 31.6838 32.1186 30.8248C32.1384 30.5457 32.1186 30.2642 32.1186 29.9851C32.1186 25.654 32.1186 21.323 32.1186 16.992C32.1186 16.7105 32.1186 16.4314 32.1186 16.1499C32.1384 15.6133 32.4235 15.3534 32.9838 15.3606C33.7673 15.3606 34.5532 15.3751 35.3366 15.3462C35.5461 15.3033 35.7471 15.2277 35.9316 15.1224C35.8697 14.9949 35.8622 14.9492 35.8349 14.9251C30.3906 10.469 24.9313 6.01366 19.4572 1.55912C18.5622 0.837282 18.3936 0.837275 17.4738 1.59039C14.5648 3.95802 11.6575 6.32565 8.75187 8.69328C6.38503 10.6278 4.02315 12.5687 1.66623 14.5161C1.4343 14.7371 1.21655 14.9718 1.01419 15.2187V15.2163Z" fill="#F8671C"/>
<path d="M18.419 13.0146C19.3264 12.5599 20.08 12.0233 20.923 11.7899C24.379 10.8275 27.9913 13.5079 28.2094 17.0617C28.3532 19.4318 27.3343 21.3687 25.8269 23.0626C23.9744 25.1608 21.8426 27.0104 19.4875 28.563C18.533 29.1862 18.4512 29.1766 17.524 28.5414C15.2864 27.0306 13.2343 25.2764 11.4077 23.3129C10.3083 22.1647 9.49571 20.7866 9.03261 19.285C7.99878 15.7384 10.2003 12.288 13.9167 11.6239C15.248 11.3833 16.443 11.7586 17.5636 12.4251C17.9033 12.6321 18.2256 12.8751 18.419 13.0146ZM18.5305 14.504C18.2479 14.2634 18.0496 14.1311 17.8785 13.9627C14.9431 11.0753 10.9044 13.1518 10.1012 15.967C9.5359 17.9376 10.0441 19.6892 11.1375 21.3206C12.3424 23.118 14.0233 24.4943 15.667 25.8922C16.3786 26.4986 17.1546 27.0279 17.8983 27.5982C18.352 27.9495 18.7512 27.9519 19.2123 27.5597C20.7594 26.2411 22.3981 25.0164 23.8758 23.6281C25.0236 22.5501 26.0674 21.3495 26.6822 19.8601C27.369 18.1974 27.3368 16.595 26.4665 15.0069C25.0162 12.3602 21.6073 11.7779 19.3313 13.7894L18.5305 14.504Z" fill="#F8671C"/>
<path d="M18.6411 19.6021C20.0017 19.5881 20.8538 20.3616 21.17 21.0278C21.1842 21.0583 21.2101 21.0935 21.2376 21.1305L21.2408 21.1345C21.274 21.1792 21.3074 21.2248 21.3355 21.2734C21.8955 22.2467 21.7769 23.391 21.0707 23.8249C20.9428 23.9038 20.8061 23.945 20.6649 23.9486C20.3362 23.9568 20.0301 23.7595 19.7063 23.5506L19.7052 23.5496L19.6968 23.5446C19.4875 23.41 19.2712 23.2703 19.0264 23.1662C18.9915 23.1545 18.8292 23.1382 18.6033 23.1438C18.4135 23.1486 18.2979 23.166 18.2695 23.1763C18.0206 23.2893 17.7971 23.4373 17.581 23.5805L17.5748 23.5847C17.2317 23.8126 16.9353 24.0087 16.6087 24.0169C16.4506 24.0208 16.299 23.9783 16.158 23.8894C15.8083 23.6694 15.5991 23.2734 15.5694 22.7745C15.5413 22.3049 15.6776 21.7945 15.9527 21.3368C15.9659 21.3149 15.98 21.2936 15.995 21.2731L16.0777 21.1646C16.0887 21.1493 16.0975 21.135 16.1031 21.1229C16.4263 20.41 17.2489 19.6369 18.5886 19.6035L18.6411 19.6021Z" fill="#F8671C"/>
<path d="M22.2991 18.2986C22.9045 18.2836 23.388 18.9176 23.4001 19.7414C23.4122 20.5648 22.9477 21.2223 22.3424 21.2375C21.7371 21.2526 21.2531 20.6188 21.2409 19.7953C21.2287 18.9714 21.6935 18.3137 22.2991 18.2986Z" fill="#F8671C"/>
<path d="M14.9984 18.4807C15.6038 18.4657 16.0878 19.0991 16.1 19.923C16.1122 20.7466 15.6471 21.404 15.0418 21.4192C14.4364 21.4343 13.9524 20.8005 13.9402 19.9769C13.9281 19.153 14.3931 18.4958 14.9984 18.4807Z" fill="#F8671C"/>
<path d="M17.0934 15.618C17.8489 15.5991 18.4761 16.4317 18.4915 17.4737C18.5069 18.5158 17.9047 19.379 17.1491 19.3978C16.3935 19.4165 15.7663 18.5841 15.7509 17.5421C15.7356 16.5001 16.3379 15.637 17.0934 15.618Z" fill="#F8671C"/>
<path d="M20.0068 15.5453C20.7625 15.5264 21.3895 16.359 21.4049 17.401C21.4203 18.4431 20.8182 19.3063 20.0625 19.3252C19.307 19.3439 18.6797 18.5115 18.6643 17.4694C18.649 16.4274 19.2515 15.5642 20.0068 15.5453Z" fill="#F8671C"/>
</g>
<defs>
<clipPath id="clip0_4416_4018">
<rect width="37" height="33" fill="white"/>
</clipPath>
</defs>
</svg>
