<svg width="22" height="22" viewBox="0 0 22 22" fill="none" xmlns="http://www.w3.org/2000/svg">
<path fill-rule="evenodd" clip-rule="evenodd" d="M5.81213 1.81213C8.22829 -0.604043 12.1457 -0.604043 14.5618 1.81213L19.6879 6.93816C22.104 9.3543 22.104 13.2717 19.6879 15.6879C17.9026 17.4731 15.2977 17.9393 13.0845 17.0864C12.1338 19.6627 9.6571 21.4999 6.75 21.4999C3.02208 21.4999 0 18.4778 0 14.7499C0 11.8427 1.83726 9.3661 4.4136 8.41543C3.56071 6.20217 4.02689 3.59737 5.81213 1.81213ZM13.5012 2.87279C11.6708 1.0424 8.70317 1.0424 6.87279 2.87279C5.0424 4.70317 5.04241 7.6708 6.87279 9.5012L9.1259 11.7542C9.3425 11.6824 9.6466 11.5671 10.0152 11.3895C10.8208 11.0013 11.9374 10.3139 13.1254 9.1258C14.3135 7.93774 15.001 6.82109 15.3893 6.01537C15.567 5.64669 15.6823 5.34252 15.7542 5.12582L13.5012 2.87279ZM16.9144 6.28603C16.8626 6.40603 16.8049 6.53314 16.7406 6.66662C16.286 7.60971 15.5042 8.8684 14.1861 10.1865C12.868 11.5045 11.6094 12.2863 10.6664 12.7408C10.533 12.805 10.406 12.8627 10.2861 12.9145L11.9988 14.6272C13.8292 16.4576 16.7968 16.4576 18.6272 14.6272C20.4576 12.7968 20.4576 9.8292 18.6272 7.99882L16.9144 6.28603ZM5.13067 9.7542C3.02349 10.4366 1.5 12.4161 1.5 14.7499C1.5 17.6494 3.8505 19.9999 6.75 19.9999C9.0839 19.9999 11.0633 18.4764 11.7457 16.3693C11.4623 16.1688 11.1919 15.9417 10.9382 15.6879L5.81213 10.5618C5.55831 10.308 5.33116 10.0376 5.13067 9.7542Z" fill="#F8671C"/>
</svg>
